<ttFont>
<head>
    <!-- Most of this table will be recalculated by the compiler -->
    <tableVersion value="1.0"/>
    <fontRevision value="2.538"/>
    <checkSumAdjustment value="0xd064d4c1"/>
    <magicNumber value="0x5f0f3cf5"/>
    <flags value="00000000 00001111"/>
    <unitsPerEm value="1000"/>
    <created value="Thu May 18 16:20:00 2017"/>
    <modified value="Thu May 18 10:50:06 2017"/>
    <xMin value="-578"/>
    <yMin value="-525"/>
    <xMax value="1290"/>
    <yMax value="946"/>
    <macStyle value="00000000 00000000"/>
    <lowestRecPPEM value="9"/>
    <fontDirectionHint value="2"/>
    <indexToLocFormat value="1"/>
    <glyphDataFormat value="0"/>
  </head>
    <TTGlyph name=".notdef" xMin="0" yMin="0" xMax="490" yMax="700">
      <contour>
        <pt x="0" y="700" on="1"/>
        <pt x="490" y="700" on="1"/>
        <pt x="490" y="0" on="1"/>
        <pt x="0" y="0" on="1"/>
      </contour>
      <contour>
        <pt x="420" y="655" on="1"/>
        <pt x="70" y="655" on="1"/>
        <pt x="245" y="390" on="1"/>
      </contour>
      <contour>
        <pt x="445" y="90" on="1"/>
        <pt x="445" y="610" on="1"/>
        <pt x="272" y="350" on="1"/>
      </contour>
      <contour>
        <pt x="420" y="45" on="1"/>
        <pt x="245" y="310" on="1"/>
        <pt x="70" y="45" on="1"/>
      </contour>
      <contour>
        <pt x="45" y="90" on="1"/>
        <pt x="217" y="350" on="1"/>
        <pt x="45" y="610" on="1"/>
      </contour>
    </TTGlyph>
    <TTGlyph name="A" xMin="12" yMin="0" xMax="571" yMax="630">
      <contour>
        <pt x="176" y="238" on="1"/>
        <pt x="404" y="238" on="1"/>
        <pt x="354" y="373" on="1"/>
        <pt x="341" y="408" on="0"/>
        <pt x="310" y="497" on="0"/>
        <pt x="293" y="550" on="1"/>
        <pt x="291" y="550" on="1"/>
        <pt x="283" y="524" on="0"/>
        <pt x="267" y="478" on="0"/>
        <pt x="252" y="436" on="0"/>
        <pt x="237" y="395" on="0"/>
        <pt x="228" y="373" on="1"/>
      </contour>
      <contour>
        <pt x="260" y="630" on="1"/>
        <pt x="327" y="630" on="1"/>
        <pt x="571" y="0" on="1"/>
        <pt x="495" y="0" on="1"/>
        <pt x="426" y="180" on="1"/>
        <pt x="156" y="180" on="1"/>
        <pt x="87" y="0" on="1"/>
        <pt x="12" y="0" on="1"/>
      </contour>
    </TTGlyph>
    <TTGlyph name="AE" xMin="9" yMin="0" xMax="734" yMax="630">
      <contour>
        <pt x="9" y="0" on="1"/>
        <pt x="333" y="630" on="1"/>
        <pt x="731" y="630" on="1"/>
        <pt x="731" y="571" on="1"/>
        <pt x="448" y="571" on="1"/>
        <pt x="448" y="355" on="1"/>
        <pt x="705" y="355" on="1"/>
        <pt x="705" y="296" on="1"/>
        <pt x="448" y="296" on="1"/>
        <pt x="448" y="59" on="1"/>
        <pt x="734" y="59" on="1"/>
        <pt x="734" y="0" on="1"/>
        <pt x="378" y="0" on="1"/>
        <pt x="378" y="184" on="1"/>
        <pt x="182" y="184" on="1"/>
        <pt x="91" y="0" on="1"/>
      </contour>
      <contour>
        <pt x="378" y="577" on="1"/>
        <pt x="208" y="240" on="1"/>
        <pt x="378" y="240" on="1"/>
      </contour>
    </TTGlyph>
    <TTGlyph name="AEacute" xMin="9" yMin="0" xMax="734" yMax="834">
      <contour>
        <pt x="9" y="0" on="1"/>
        <pt x="333" y="630" on="1"/>
        <pt x="731" y="630" on="1"/>
        <pt x="731" y="571" on="1"/>
        <pt x="448" y="571" on="1"/>
        <pt x="448" y="355" on="1"/>
        <pt x="705" y="355" on="1"/>
        <pt x="705" y="296" on="1"/>
        <pt x="448" y="296" on="1"/>
        <pt x="448" y="59" on="1"/>
        <pt x="734" y="59" on="1"/>
        <pt x="734" y="0" on="1"/>
        <pt x="378" y="0" on="1"/>
        <pt x="378" y="184" on="1"/>
        <pt x="182" y="184" on="1"/>
        <pt x="91" y="0" on="1"/>
      </contour>
      <contour>
        <pt x="378" y="577" on="1"/>
        <pt x="208" y="240" on="1"/>
        <pt x="378" y="240" on="1"/>
      </contour>
      <contour>
        <pt x="412" y="710" on="1"/>
        <pt x="355" y="710" on="1"/>
        <pt x="440" y="834" on="1"/>
        <pt x="523" y="834" on="1"/>
      </contour>
    </TTGlyph>
    <TTGlyph name="Aacute" xMin="12" yMin="0" xMax="571" yMax="834">
      <contour>
        <pt x="317" y="710" on="1"/>
        <pt x="260" y="710" on="1"/>
        <pt x="345" y="834" on="1"/>
        <pt x="428" y="834" on="1"/>
      </contour>
      <contour>
        <pt x="176" y="238" on="1"/>
        <pt x="404" y="238" on="1"/>
        <pt x="354" y="373" on="1"/>
        <pt x="340" y="408" on="0"/>
        <pt x="310" y="497" on="0"/>
        <pt x="293" y="550" on="1"/>
        <pt x="291" y="550" on="1"/>
        <pt x="283" y="524" on="0"/>
        <pt x="267" y="478" on="0"/>
        <pt x="252" y="436" on="0"/>
        <pt x="237" y="395" on="0"/>
        <pt x="228" y="373" on="1"/>
      </contour>
      <contour>
        <pt x="260" y="630" on="1"/>
        <pt x="327" y="630" on="1"/>
        <pt x="571" y="0" on="1"/>
        <pt x="495" y="0" on="1"/>
        <pt x="426" y="180" on="1"/>
        <pt x="156" y="180" on="1"/>
        <pt x="87" y="0" on="1"/>
        <pt x="12" y="0" on="1"/>
      </contour>
    </TTGlyph>
    <TTGlyph name="Abreve" xMin="12" yMin="0" xMax="571" yMax="834">
      <contour>
        <pt x="211" y="834" on="1"/>
        <pt x="213" y="799" on="0"/>
        <pt x="247" y="757" on="0"/>
        <pt x="291" y="757" on="1"/>
        <pt x="328" y="757" on="0"/>
        <pt x="367" y="797" on="0"/>
        <pt x="369" y="834" on="1"/>
        <pt x="424" y="834" on="1"/>
        <pt x="424" y="780" on="0"/>
        <pt x="356" y="710" on="0"/>
        <pt x="291" y="710" on="1"/>
        <pt x="255" y="710" on="0"/>
        <pt x="204" y="731" on="0"/>
        <pt x="171" y="765" on="0"/>
        <pt x="155" y="810" on="0"/>
        <pt x="155" y="834" on="1"/>
      </contour>
      <contour>
        <pt x="176" y="238" on="1"/>
        <pt x="404" y="238" on="1"/>
        <pt x="354" y="373" on="1"/>
        <pt x="340" y="408" on="0"/>
        <pt x="310" y="497" on="0"/>
        <pt x="293" y="550" on="1"/>
        <pt x="291" y="550" on="1"/>
        <pt x="283" y="524" on="0"/>
        <pt x="267" y="478" on="0"/>
        <pt x="252" y="436" on="0"/>
        <pt x="237" y="395" on="0"/>
        <pt x="228" y="373" on="1"/>
      </contour>
      <contour>
        <pt x="260" y="630" on="1"/>
        <pt x="327" y="630" on="1"/>
        <pt x="571" y="0" on="1"/>
        <pt x="495" y="0" on="1"/>
        <pt x="426" y="180" on="1"/>
        <pt x="156" y="180" on="1"/>
        <pt x="87" y="0" on="1"/>
        <pt x="12" y="0" on="1"/>
      </contour>
    </TTGlyph>
    <TTGlyph name="Acircumflex" xMin="12" yMin="0" xMax="571" yMax="844">
      <contour>
        <pt x="263" y="844" on="1"/>
        <pt x="322" y="844" on="1"/>
        <pt x="447" y="710" on="1"/>
        <pt x="377" y="710" on="1"/>
        <pt x="292" y="801" on="1"/>
        <pt x="207" y="710" on="1"/>
        <pt x="141" y="710" on="1"/>
      </contour>
      <contour>
        <pt x="176" y="238" on="1"/>
        <pt x="404" y="238" on="1"/>
        <pt x="354" y="373" on="1"/>
        <pt x="340" y="408" on="0"/>
        <pt x="310" y="497" on="0"/>
        <pt x="293" y="550" on="1"/>
        <pt x="291" y="550" on="1"/>
        <pt x="283" y="524" on="0"/>
        <pt x="267" y="478" on="0"/>
        <pt x="252" y="436" on="0"/>
        <pt x="237" y="395" on="0"/>
        <pt x="228" y="373" on="1"/>
      </contour>
      <contour>
        <pt x="260" y="630" on="1"/>
        <pt x="327" y="630" on="1"/>
        <pt x="571" y="0" on="1"/>
        <pt x="495" y="0" on="1"/>
        <pt x="426" y="180" on="1"/>
        <pt x="156" y="180" on="1"/>
        <pt x="87" y="0" on="1"/>
        <pt x="12" y="0" on="1"/>
      </contour>
    </TTGlyph>
    <TTGlyph name="Addak.gm" xMin="-274" yMin="643" xMax="23" yMax="796">
      <contour>
        <pt x="-125" y="643" on="1"/>
        <pt x="-154" y="643" on="0"/>
        <pt x="-207" y="661" on="0"/>
        <pt x="-249" y="697" on="0"/>
        <pt x="-274" y="752" on="0"/>
        <pt x="-274" y="788" on="1"/>
        <pt x="-274" y="796" on="1"/>
        <pt x="-228" y="796" on="1"/>
        <pt x="-223" y="742" on="0"/>
        <pt x="-163" y="693" on="0"/>
        <pt x="-124" y="693" on="1"/>
        <pt x="-85" y="693" on="0"/>
        <pt x="-25" y="742" on="0"/>
        <pt x="-23" y="796" on="1"/>
        <pt x="23" y="796" on="1"/>
        <pt x="23" y="787" on="1"/>
        <pt x="23" y="751" on="0"/>
        <pt x="0" y="697" on="0"/>
        <pt x="-41" y="661" on="0"/>
        <pt x="-95" y="643" on="0"/>
      </contour>
    </TTGlyph>
    <TTGlyph name="Addak.gm.alt" xMin="-395" yMin="657" xMax="-172" yMax="766">
      <contour>
        <pt x="-287" y="657" on="1"/>
        <pt x="-333" y="657" on="0"/>
        <pt x="-395" y="708" on="0"/>
        <pt x="-395" y="755" on="1"/>
        <pt x="-395" y="763" on="1"/>
        <pt x="-348" y="766" on="1"/>
        <pt x="-346" y="729" on="0"/>
        <pt x="-310" y="699" on="0"/>
        <pt x="-284" y="699" on="1"/>
        <pt x="-256" y="699" on="0"/>
        <pt x="-219" y="732" on="0"/>
        <pt x="-218" y="766" on="1"/>
        <pt x="-172" y="763" on="1"/>
        <pt x="-172" y="755" on="1"/>
        <pt x="-172" y="707" on="0"/>
        <pt x="-236" y="657" on="0"/>
      </contour>
    </TTGlyph>
    <TTGlyph name="AddakBindi.gm" xMin="-274" yMin="643" xMax="23" yMax="837">
      <contour>
        <pt x="-166" y="796" on="1"/>
        <pt x="-166" y="813" on="0"/>
        <pt x="-144" y="837" on="0"/>
        <pt x="-125" y="837" on="1"/>
        <pt x="-106" y="837" on="0"/>
        <pt x="-83" y="813" on="0"/>
        <pt x="-83" y="796" on="1"/>
        <pt x="-83" y="778" on="0"/>
        <pt x="-106" y="754" on="0"/>
        <pt x="-125" y="754" on="1"/>
        <pt x="-144" y="754" on="0"/>
        <pt x="-166" y="778" on="0"/>
      </contour>
      <contour>
        <pt x="-125" y="643" on="1"/>
        <pt x="-154" y="643" on="0"/>
        <pt x="-207" y="661" on="0"/>
        <pt x="-249" y="697" on="0"/>
        <pt x="-274" y="752" on="0"/>
        <pt x="-274" y="788" on="1"/>
        <pt x="-274" y="796" on="1"/>
        <pt x="-228" y="796" on="1"/>
        <pt x="-223" y="742" on="0"/>
        <pt x="-163" y="693" on="0"/>
        <pt x="-124" y="693" on="1"/>
        <pt x="-85" y="693" on="0"/>
        <pt x="-25" y="742" on="0"/>
        <pt x="-23" y="796" on="1"/>
        <pt x="23" y="796" on="1"/>
        <pt x="23" y="787" on="1"/>
        <pt x="23" y="751" on="0"/>
        <pt x="0" y="697" on="0"/>
        <pt x="-41" y="661" on="0"/>
        <pt x="-95" y="643" on="0"/>
      </contour>
    </TTGlyph>
    <TTGlyph name="AddakBindi.gm.alt" xMin="-395" yMin="657" xMax="-172" yMax="805">
      <contour>
        <pt x="-317" y="770" on="1"/>
        <pt x="-317" y="785" on="0"/>
        <pt x="-298" y="805" on="0"/>
        <pt x="-284" y="805" on="1"/>
        <pt x="-269" y="805" on="0"/>
        <pt x="-249" y="785" on="0"/>
        <pt x="-249" y="770" on="1"/>
        <pt x="-249" y="755" on="0"/>
        <pt x="-267" y="734" on="0"/>
        <pt x="-283" y="734" on="1"/>
        <pt x="-299" y="734" on="0"/>
        <pt x="-317" y="755" on="0"/>
      </contour>
      <contour>
        <pt x="-287" y="657" on="1"/>
        <pt x="-332" y="657" on="0"/>
        <pt x="-395" y="707" on="0"/>
        <pt x="-395" y="755" on="1"/>
        <pt x="-395" y="763" on="1"/>
        <pt x="-349" y="766" on="1"/>
        <pt x="-347" y="728" on="0"/>
        <pt x="-310" y="697" on="0"/>
        <pt x="-284" y="697" on="1"/>
        <pt x="-255" y="697" on="0"/>
        <pt x="-218" y="731" on="0"/>
        <pt x="-217" y="766" on="1"/>
        <pt x="-172" y="763" on="1"/>
        <pt x="-172" y="755" on="1"/>
        <pt x="-172" y="706" on="0"/>
        <pt x="-236" y="657" on="0"/>
      </contour>
    </TTGlyph>
    <TTGlyph name="AddhaMa.gm" xMin="0" yMin="0" xMax="445" yMax="577">
      <contour>
        <pt x="0" y="294" on="1"/>
        <pt x="273" y="294" on="1"/>
        <pt x="273" y="577" on="1"/>
        <pt x="445" y="577" on="1"/>
        <pt x="445" y="527" on="1"/>
        <pt x="333" y="527" on="1"/>
        <pt x="333" y="0" on="1"/>
        <pt x="273" y="0" on="1"/>
        <pt x="273" y="243" on="1"/>
        <pt x="0" y="243" on="1"/>
      </contour>
    </TTGlyph>
    <TTGlyph name="AddhaTha.gm" xMin="-30" yMin="0" xMax="471" yMax="577">
      <contour>
        <pt x="-30" y="577" on="1"/>
        <pt x="471" y="577" on="1"/>
        <pt x="471" y="527" on="1"/>
        <pt x="359" y="527" on="1"/>
        <pt x="359" y="0" on="1"/>
        <pt x="299" y="0" on="1"/>
        <pt x="299" y="143" on="1"/>
        <pt x="274" y="126" on="0"/>
        <pt x="203" y="104" on="0"/>
        <pt x="152" y="104" on="1"/>
        <pt x="101" y="104" on="0"/>
        <pt x="14" y="134" on="0"/>
        <pt x="-13" y="157" on="1"/>
        <pt x="22" y="199" on="1"/>
        <pt x="45" y="179" on="0"/>
        <pt x="111" y="156" on="0"/>
        <pt x="153" y="156" on="1"/>
        <pt x="204" y="156" on="0"/>
        <pt x="276" y="185" on="0"/>
        <pt x="299" y="209" on="1"/>
        <pt x="299" y="527" on="1"/>
        <pt x="-30" y="527" on="1"/>
      </contour>
    </TTGlyph>
    <TTGlyph name="AddhaYa.gm" xMin="-30" yMin="0" xMax="582" yMax="577">
      <contour>
        <pt x="-30" y="577" on="1"/>
        <pt x="582" y="577" on="1"/>
        <pt x="582" y="527" on="1"/>
        <pt x="469" y="527" on="1"/>
        <pt x="469" y="0" on="1"/>
        <pt x="409" y="0" on="1"/>
        <pt x="409" y="311" on="1"/>
        <pt x="254" y="311" on="1"/>
        <pt x="254" y="100" on="1"/>
        <pt x="239" y="94" on="0"/>
        <pt x="196" y="85" on="0"/>
        <pt x="169" y="85" on="1"/>
        <pt x="118" y="85" on="0"/>
        <pt x="24" y="115" on="0"/>
        <pt x="-14" y="151" on="1"/>
        <pt x="23" y="194" on="1"/>
        <pt x="49" y="170" on="0"/>
        <pt x="120" y="137" on="0"/>
        <pt x="170" y="137" on="1"/>
        <pt x="176" y="137" on="0"/>
        <pt x="188" y="137" on="0"/>
        <pt x="194" y="138" on="1"/>
        <pt x="194" y="363" on="1"/>
        <pt x="409" y="363" on="1"/>
        <pt x="409" y="527" on="1"/>
        <pt x="-30" y="527" on="1"/>
      </contour>
    </TTGlyph>
    <TTGlyph name="Adieresis" xMin="12" yMin="0" xMax="571" yMax="810">
      <contour>
        <pt x="164" y="763" on="1"/>
        <pt x="164" y="783" on="0"/>
        <pt x="190" y="810" on="0"/>
        <pt x="209" y="810" on="1"/>
        <pt x="227" y="810" on="0"/>
        <pt x="254" y="783" on="0"/>
        <pt x="254" y="763" on="1"/>
        <pt x="254" y="743" on="0"/>
        <pt x="227" y="716" on="0"/>
        <pt x="209" y="716" on="1"/>
        <pt x="190" y="716" on="0"/>
        <pt x="164" y="743" on="0"/>
      </contour>
      <contour>
        <pt x="332" y="763" on="1"/>
        <pt x="332" y="783" on="0"/>
        <pt x="358" y="810" on="0"/>
        <pt x="377" y="810" on="1"/>
        <pt x="395" y="810" on="0"/>
        <pt x="422" y="783" on="0"/>
        <pt x="422" y="763" on="1"/>
        <pt x="422" y="743" on="0"/>
        <pt x="395" y="716" on="0"/>
        <pt x="377" y="716" on="1"/>
        <pt x="358" y="716" on="0"/>
        <pt x="332" y="743" on="0"/>
      </contour>
      <contour>
        <pt x="176" y="238" on="1"/>
        <pt x="404" y="238" on="1"/>
        <pt x="354" y="373" on="1"/>
        <pt x="340" y="408" on="0"/>
        <pt x="310" y="497" on="0"/>
        <pt x="293" y="550" on="1"/>
        <pt x="291" y="550" on="1"/>
        <pt x="283" y="524" on="0"/>
        <pt x="267" y="478" on="0"/>
        <pt x="252" y="436" on="0"/>
        <pt x="237" y="395" on="0"/>
        <pt x="228" y="373" on="1"/>
      </contour>
      <contour>
        <pt x="260" y="630" on="1"/>
        <pt x="327" y="630" on="1"/>
        <pt x="571" y="0" on="1"/>
        <pt x="495" y="0" on="1"/>
        <pt x="426" y="180" on="1"/>
        <pt x="156" y="180" on="1"/>
        <pt x="87" y="0" on="1"/>
        <pt x="12" y="0" on="1"/>
      </contour>
    </TTGlyph>
    <TTGlyph name="Agrave" xMin="12" yMin="0" xMax="571" yMax="834">
      <contour>
        <pt x="159" y="834" on="1"/>
        <pt x="242" y="834" on="1"/>
        <pt x="327" y="710" on="1"/>
        <pt x="270" y="710" on="1"/>
      </contour>
      <contour>
        <pt x="176" y="238" on="1"/>
        <pt x="404" y="238" on="1"/>
        <pt x="354" y="373" on="1"/>
        <pt x="340" y="408" on="0"/>
        <pt x="310" y="497" on="0"/>
        <pt x="293" y="550" on="1"/>
        <pt x="291" y="550" on="1"/>
        <pt x="283" y="524" on="0"/>
        <pt x="267" y="478" on="0"/>
        <pt x="252" y="436" on="0"/>
        <pt x="237" y="395" on="0"/>
        <pt x="228" y="373" on="1"/>
      </contour>
      <contour>
        <pt x="260" y="630" on="1"/>
        <pt x="327" y="630" on="1"/>
        <pt x="571" y="0" on="1"/>
        <pt x="495" y="0" on="1"/>
        <pt x="426" y="180" on="1"/>
        <pt x="156" y="180" on="1"/>
        <pt x="87" y="0" on="1"/>
        <pt x="12" y="0" on="1"/>
      </contour>
    </TTGlyph>
    <TTGlyph name="Amacron" xMin="12" yMin="0" xMax="571" yMax="772">
      <contour>
        <pt x="413" y="772" on="1"/>
        <pt x="413" y="720" on="1"/>
        <pt x="168" y="720" on="1"/>
        <pt x="168" y="772" on="1"/>
      </contour>
      <contour>
        <pt x="176" y="238" on="1"/>
        <pt x="404" y="238" on="1"/>
        <pt x="354" y="373" on="1"/>
        <pt x="340" y="408" on="0"/>
        <pt x="310" y="497" on="0"/>
        <pt x="293" y="550" on="1"/>
        <pt x="291" y="550" on="1"/>
        <pt x="283" y="524" on="0"/>
        <pt x="267" y="478" on="0"/>
        <pt x="252" y="436" on="0"/>
        <pt x="237" y="395" on="0"/>
        <pt x="228" y="373" on="1"/>
      </contour>
      <contour>
        <pt x="260" y="630" on="1"/>
        <pt x="327" y="630" on="1"/>
        <pt x="571" y="0" on="1"/>
        <pt x="495" y="0" on="1"/>
        <pt x="426" y="180" on="1"/>
        <pt x="156" y="180" on="1"/>
        <pt x="87" y="0" on="1"/>
        <pt x="12" y="0" on="1"/>
      </contour>
    </TTGlyph>
    <TTGlyph name="Aogonek" xMin="12" yMin="-206" xMax="600" yMax="630">
      <contour>
        <pt x="260" y="630" on="1"/>
        <pt x="327" y="630" on="1"/>
        <pt x="571" y="0" on="1"/>
        <pt x="519" y="-23" on="0"/>
        <pt x="472" y="-71" on="0"/>
        <pt x="472" y="-100" on="1"/>
        <pt x="472" y="-127" on="0"/>
        <pt x="506" y="-156" on="0"/>
        <pt x="536" y="-156" on="1"/>
        <pt x="567" y="-156" on="0"/>
        <pt x="589" y="-146" on="1"/>
        <pt x="600" y="-185" on="1"/>
        <pt x="565" y="-206" on="0"/>
        <pt x="520" y="-206" on="1"/>
        <pt x="474" y="-206" on="0"/>
        <pt x="413" y="-156" on="0"/>
        <pt x="413" y="-109" on="1"/>
        <pt x="413" y="-71" on="0"/>
        <pt x="462" y="-15" on="0"/>
        <pt x="495" y="0" on="1"/>
        <pt x="426" y="180" on="1"/>
        <pt x="156" y="180" on="1"/>
        <pt x="87" y="0" on="1"/>
        <pt x="12" y="0" on="1"/>
      </contour>
      <contour>
        <pt x="176" y="238" on="1"/>
        <pt x="404" y="238" on="1"/>
        <pt x="354" y="373" on="1"/>
        <pt x="340" y="408" on="0"/>
        <pt x="310" y="497" on="0"/>
        <pt x="293" y="550" on="1"/>
        <pt x="291" y="550" on="1"/>
        <pt x="283" y="524" on="0"/>
        <pt x="267" y="478" on="0"/>
        <pt x="252" y="436" on="0"/>
        <pt x="237" y="395" on="0"/>
        <pt x="228" y="373" on="1"/>
      </contour>
    </TTGlyph>
    <TTGlyph name="Aring" xMin="12" yMin="0" xMax="571" yMax="843">
      <contour>
        <pt x="198" y="760" on="1"/>
        <pt x="198" y="803" on="0"/>
        <pt x="254" y="843" on="0"/>
        <pt x="293" y="843" on="1"/>
        <pt x="333" y="843" on="0"/>
        <pt x="388" y="803" on="0"/>
        <pt x="388" y="760" on="1"/>
        <pt x="388" y="738" on="0"/>
        <pt x="372" y="707" on="0"/>
        <pt x="346" y="687" on="0"/>
        <pt x="312" y="677" on="0"/>
        <pt x="293" y="677" on="1"/>
        <pt x="255" y="677" on="0"/>
        <pt x="198" y="718" on="0"/>
      </contour>
      <contour>
        <pt x="242" y="760" on="1"/>
        <pt x="242" y="735" on="0"/>
        <pt x="269" y="707" on="0"/>
        <pt x="293" y="707" on="1"/>
        <pt x="317" y="707" on="0"/>
        <pt x="344" y="735" on="0"/>
        <pt x="344" y="760" on="1"/>
        <pt x="344" y="784" on="0"/>
        <pt x="316" y="812" on="0"/>
        <pt x="293" y="812" on="1"/>
        <pt x="270" y="812" on="0"/>
        <pt x="242" y="784" on="0"/>
      </contour>
      <contour>
        <pt x="176" y="238" on="1"/>
        <pt x="404" y="238" on="1"/>
        <pt x="354" y="373" on="1"/>
        <pt x="340" y="408" on="0"/>
        <pt x="310" y="497" on="0"/>
        <pt x="293" y="550" on="1"/>
        <pt x="291" y="550" on="1"/>
        <pt x="283" y="524" on="0"/>
        <pt x="267" y="478" on="0"/>
        <pt x="252" y="436" on="0"/>
        <pt x="237" y="395" on="0"/>
        <pt x="228" y="373" on="1"/>
      </contour>
      <contour>
        <pt x="260" y="630" on="1"/>
        <pt x="327" y="630" on="1"/>
        <pt x="571" y="0" on="1"/>
        <pt x="495" y="0" on="1"/>
        <pt x="426" y="180" on="1"/>
        <pt x="156" y="180" on="1"/>
        <pt x="87" y="0" on="1"/>
        <pt x="12" y="0" on="1"/>
      </contour>
    </TTGlyph>
    <TTGlyph name="Asmall" xMin="1" yMin="0" xMax="440" yMax="470">
      <contour>
        <pt x="187" y="470" on="1"/>
        <pt x="257" y="470" on="1"/>
        <pt x="440" y="0" on="1"/>
        <pt x="373" y="0" on="1"/>
        <pt x="323" y="128" on="1"/>
        <pt x="116" y="128" on="1"/>
        <pt x="67" y="0" on="1"/>
        <pt x="1" y="0" on="1"/>
      </contour>
      <contour>
        <pt x="221" y="410" on="1"/>
        <pt x="211" y="378" on="0"/>
        <pt x="183" y="305" on="0"/>
        <pt x="173" y="280" on="1"/>
        <pt x="135" y="181" on="1"/>
        <pt x="304" y="181" on="1"/>
        <pt x="267" y="280" on="1"/>
        <pt x="258" y="305" on="0"/>
        <pt x="232" y="378" on="0"/>
        <pt x="223" y="410" on="1"/>
      </contour>
    </TTGlyph>
    <TTGlyph name="Atilde" xMin="12" yMin="0" xMax="571" yMax="820">
      <contour>
        <pt x="143" y="712" on="1"/>
        <pt x="143" y="756" on="0"/>
        <pt x="184" y="817" on="0"/>
        <pt x="230" y="817" on="1"/>
        <pt x="251" y="817" on="0"/>
        <pt x="284" y="802" on="0"/>
        <pt x="313" y="783" on="0"/>
        <pt x="340" y="768" on="0"/>
        <pt x="357" y="768" on="1"/>
        <pt x="380" y="768" on="0"/>
        <pt x="399" y="800" on="0"/>
        <pt x="401" y="820" on="1"/>
        <pt x="446" y="820" on="1"/>
        <pt x="446" y="800" on="0"/>
        <pt x="435" y="763" on="0"/>
        <pt x="414" y="735" on="0"/>
        <pt x="383" y="717" on="0"/>
        <pt x="362" y="717" on="1"/>
        <pt x="340" y="717" on="0"/>
        <pt x="304" y="732" on="0"/>
        <pt x="273" y="750" on="0"/>
        <pt x="246" y="765" on="0"/>
        <pt x="233" y="765" on="1"/>
        <pt x="209" y="765" on="0"/>
        <pt x="190" y="734" on="0"/>
        <pt x="188" y="712" on="1"/>
      </contour>
      <contour>
        <pt x="176" y="238" on="1"/>
        <pt x="404" y="238" on="1"/>
        <pt x="354" y="373" on="1"/>
        <pt x="340" y="408" on="0"/>
        <pt x="310" y="497" on="0"/>
        <pt x="293" y="550" on="1"/>
        <pt x="291" y="550" on="1"/>
        <pt x="283" y="524" on="0"/>
        <pt x="267" y="478" on="0"/>
        <pt x="252" y="436" on="0"/>
        <pt x="237" y="395" on="0"/>
        <pt x="228" y="373" on="1"/>
      </contour>
      <contour>
        <pt x="260" y="630" on="1"/>
        <pt x="327" y="630" on="1"/>
        <pt x="571" y="0" on="1"/>
        <pt x="495" y="0" on="1"/>
        <pt x="426" y="180" on="1"/>
        <pt x="156" y="180" on="1"/>
        <pt x="87" y="0" on="1"/>
        <pt x="12" y="0" on="1"/>
      </contour>
    </TTGlyph>
    <TTGlyph name="B" xMin="80" yMin="0" xMax="467" yMax="630">
      <contour>
        <pt x="249" y="630" on="1"/>
        <pt x="343" y="630" on="0"/>
        <pt x="448" y="549" on="0"/>
        <pt x="448" y="471" on="1"/>
        <pt x="448" y="413" on="0"/>
        <pt x="383" y="348" on="0"/>
        <pt x="334" y="335" on="1"/>
        <pt x="362" y="330" on="0"/>
        <pt x="410" y="305" on="0"/>
        <pt x="446" y="265" on="0"/>
        <pt x="467" y="210" on="0"/>
        <pt x="467" y="176" on="1"/>
        <pt x="467" y="137" on="0"/>
        <pt x="434" y="72" on="0"/>
        <pt x="374" y="26" on="0"/>
        <pt x="290" y="0" on="0"/>
        <pt x="240" y="0" on="1"/>
        <pt x="80" y="0" on="1"/>
        <pt x="80" y="630" on="1"/>
      </contour>
      <contour>
        <pt x="152" y="360" on="1"/>
        <pt x="228" y="360" on="1"/>
        <pt x="256" y="360" on="0"/>
        <pt x="309" y="370" on="0"/>
        <pt x="350" y="394" on="0"/>
        <pt x="374" y="435" on="0"/>
        <pt x="374" y="466" on="1"/>
        <pt x="374" y="522" on="0"/>
        <pt x="297" y="572" on="0"/>
        <pt x="235" y="572" on="1"/>
        <pt x="152" y="572" on="1"/>
      </contour>
      <contour>
        <pt x="152" y="58" on="1"/>
        <pt x="230" y="58" on="1"/>
        <pt x="263" y="58" on="0"/>
        <pt x="321" y="71" on="0"/>
        <pt x="365" y="101" on="0"/>
        <pt x="391" y="150" on="0"/>
        <pt x="391" y="185" on="1"/>
        <pt x="391" y="219" on="0"/>
        <pt x="363" y="264" on="0"/>
        <pt x="316" y="291" on="0"/>
        <pt x="255" y="303" on="0"/>
        <pt x="223" y="303" on="1"/>
        <pt x="152" y="303" on="1"/>
      </contour>
    </TTGlyph>
    <TTGlyph name="Ba.gm" xMin="-40" yMin="0" xMax="598" yMax="577">
      <contour>
        <pt x="425" y="117" on="1"/>
        <pt x="401" y="102" on="0"/>
        <pt x="331" y="81" on="0"/>
        <pt x="280" y="81" on="1"/>
        <pt x="211" y="81" on="0"/>
        <pt x="84" y="144" on="0"/>
        <pt x="44" y="212" on="1"/>
        <pt x="66" y="258" on="0"/>
        <pt x="143" y="328" on="0"/>
        <pt x="195" y="345" on="1"/>
        <pt x="172" y="355" on="0"/>
        <pt x="126" y="389" on="0"/>
        <pt x="88" y="436" on="0"/>
        <pt x="61" y="494" on="0"/>
        <pt x="55" y="527" on="1"/>
        <pt x="-40" y="527" on="1"/>
        <pt x="-40" y="577" on="1"/>
        <pt x="598" y="577" on="1"/>
        <pt x="598" y="527" on="1"/>
        <pt x="485" y="527" on="1"/>
        <pt x="485" y="0" on="1"/>
        <pt x="425" y="0" on="1"/>
      </contour>
      <contour>
        <pt x="285" y="133" on="1"/>
        <pt x="335" y="133" on="0"/>
        <pt x="402" y="159" on="0"/>
        <pt x="425" y="177" on="1"/>
        <pt x="425" y="316" on="1"/>
        <pt x="300" y="316" on="1"/>
        <pt x="239" y="316" on="0"/>
        <pt x="138" y="260" on="0"/>
        <pt x="110" y="215" on="1"/>
        <pt x="139" y="177" on="0"/>
        <pt x="229" y="133" on="0"/>
      </contour>
      <contour>
        <pt x="116" y="527" on="1"/>
        <pt x="123" y="494" on="0"/>
        <pt x="157" y="437" on="0"/>
        <pt x="204" y="394" on="0"/>
        <pt x="258" y="368" on="0"/>
        <pt x="287" y="367" on="1"/>
        <pt x="425" y="367" on="1"/>
        <pt x="425" y="527" on="1"/>
      </contour>
    </TTGlyph>
    <TTGlyph name="BaVirama.gm" xMin="-40" yMin="-257" xMax="653" yMax="577">
      <contour>
        <pt x="425" y="117" on="1"/>
        <pt x="401" y="102" on="0"/>
        <pt x="331" y="81" on="0"/>
        <pt x="280" y="81" on="1"/>
        <pt x="211" y="81" on="0"/>
        <pt x="84" y="144" on="0"/>
        <pt x="44" y="212" on="1"/>
        <pt x="66" y="258" on="0"/>
        <pt x="143" y="328" on="0"/>
        <pt x="195" y="345" on="1"/>
        <pt x="172" y="355" on="0"/>
        <pt x="126" y="389" on="0"/>
        <pt x="88" y="436" on="0"/>
        <pt x="61" y="494" on="0"/>
        <pt x="55" y="527" on="1"/>
        <pt x="-40" y="527" on="1"/>
        <pt x="-40" y="577" on="1"/>
        <pt x="598" y="577" on="1"/>
        <pt x="598" y="527" on="1"/>
        <pt x="485" y="527" on="1"/>
        <pt x="485" y="0" on="1"/>
        <pt x="425" y="0" on="1"/>
      </contour>
      <contour>
        <pt x="285" y="133" on="1"/>
        <pt x="335" y="133" on="0"/>
        <pt x="402" y="159" on="0"/>
        <pt x="425" y="177" on="1"/>
        <pt x="425" y="316" on="1"/>
        <pt x="300" y="316" on="1"/>
        <pt x="239" y="316" on="0"/>
        <pt x="138" y="260" on="0"/>
        <pt x="110" y="215" on="1"/>
        <pt x="139" y="177" on="0"/>
        <pt x="229" y="133" on="0"/>
      </contour>
      <contour>
        <pt x="116" y="527" on="1"/>
        <pt x="123" y="494" on="0"/>
        <pt x="157" y="437" on="0"/>
        <pt x="204" y="394" on="0"/>
        <pt x="258" y="368" on="0"/>
        <pt x="287" y="367" on="1"/>
        <pt x="425" y="367" on="1"/>
        <pt x="425" y="527" on="1"/>
      </contour>
      <contour>
        <pt x="653" y="-222" on="1"/>
        <pt x="623" y="-257" on="1"/>
        <pt x="427" y="-105" on="1"/>
        <pt x="463" y="-60" on="1"/>
      </contour>
    </TTGlyph>
    <TTGlyph name="Bha.gm" xMin="-20" yMin="-5" xMax="572" yMax="577">
      <contour>
        <pt x="-20" y="577" on="1"/>
        <pt x="572" y="577" on="1"/>
        <pt x="572" y="527" on="1"/>
        <pt x="485" y="527" on="1"/>
        <pt x="483" y="467" on="0"/>
        <pt x="449" y="357" on="0"/>
        <pt x="423" y="318" on="1"/>
        <pt x="448" y="294" on="0"/>
        <pt x="481" y="224" on="0"/>
        <pt x="481" y="184" on="1"/>
        <pt x="481" y="140" on="0"/>
        <pt x="445" y="70" on="0"/>
        <pt x="380" y="21" on="0"/>
        <pt x="289" y="-5" on="0"/>
        <pt x="233" y="-5" on="1"/>
        <pt x="164" y="-5" on="0"/>
        <pt x="60" y="30" on="0"/>
        <pt x="33" y="50" on="1"/>
        <pt x="60" y="95" on="1"/>
        <pt x="85" y="79" on="0"/>
        <pt x="174" y="46" on="0"/>
        <pt x="234" y="46" on="1"/>
        <pt x="280" y="46" on="0"/>
        <pt x="350" y="68" on="0"/>
        <pt x="396" y="107" on="0"/>
        <pt x="420" y="157" on="0"/>
        <pt x="420" y="186" on="1"/>
        <pt x="420" y="214" on="0"/>
        <pt x="401" y="259" on="0"/>
        <pt x="387" y="276" on="1"/>
        <pt x="358" y="243" on="0"/>
        <pt x="265" y="195" on="0"/>
        <pt x="203" y="195" on="1"/>
        <pt x="171" y="195" on="0"/>
        <pt x="116" y="209" on="0"/>
        <pt x="75" y="237" on="0"/>
        <pt x="52" y="277" on="0"/>
        <pt x="52" y="304" on="1"/>
        <pt x="52" y="354" on="0"/>
        <pt x="136" y="415" on="0"/>
        <pt x="205" y="415" on="1"/>
        <pt x="265" y="415" on="0"/>
        <pt x="357" y="374" on="0"/>
        <pt x="383" y="352" on="1"/>
        <pt x="403" y="392" on="0"/>
        <pt x="423" y="487" on="0"/>
        <pt x="424" y="527" on="1"/>
        <pt x="-20" y="527" on="1"/>
      </contour>
      <contour>
        <pt x="209" y="246" on="1"/>
        <pt x="254" y="246" on="0"/>
        <pt x="327" y="281" on="0"/>
        <pt x="354" y="313" on="1"/>
        <pt x="328" y="333" on="0"/>
        <pt x="257" y="365" on="0"/>
        <pt x="210" y="365" on="1"/>
        <pt x="162" y="365" on="0"/>
        <pt x="113" y="330" on="0"/>
        <pt x="113" y="304" on="1"/>
        <pt x="113" y="277" on="0"/>
        <pt x="163" y="246" on="0"/>
      </contour>
    </TTGlyph>
    <TTGlyph name="BhaVirama.gm" xMin="-20" yMin="-257" xMax="572" yMax="577">
      <contour>
        <pt x="-20" y="577" on="1"/>
        <pt x="572" y="577" on="1"/>
        <pt x="572" y="527" on="1"/>
        <pt x="485" y="527" on="1"/>
        <pt x="483" y="467" on="0"/>
        <pt x="449" y="357" on="0"/>
        <pt x="423" y="318" on="1"/>
        <pt x="448" y="294" on="0"/>
        <pt x="481" y="224" on="0"/>
        <pt x="481" y="184" on="1"/>
        <pt x="481" y="140" on="0"/>
        <pt x="445" y="70" on="0"/>
        <pt x="380" y="21" on="0"/>
        <pt x="289" y="-5" on="0"/>
        <pt x="233" y="-5" on="1"/>
        <pt x="164" y="-5" on="0"/>
        <pt x="60" y="30" on="0"/>
        <pt x="33" y="50" on="1"/>
        <pt x="60" y="95" on="1"/>
        <pt x="85" y="79" on="0"/>
        <pt x="174" y="46" on="0"/>
        <pt x="234" y="46" on="1"/>
        <pt x="280" y="46" on="0"/>
        <pt x="350" y="68" on="0"/>
        <pt x="396" y="107" on="0"/>
        <pt x="420" y="157" on="0"/>
        <pt x="420" y="186" on="1"/>
        <pt x="420" y="214" on="0"/>
        <pt x="401" y="259" on="0"/>
        <pt x="387" y="276" on="1"/>
        <pt x="358" y="243" on="0"/>
        <pt x="265" y="195" on="0"/>
        <pt x="203" y="195" on="1"/>
        <pt x="171" y="195" on="0"/>
        <pt x="116" y="209" on="0"/>
        <pt x="75" y="237" on="0"/>
        <pt x="52" y="277" on="0"/>
        <pt x="52" y="304" on="1"/>
        <pt x="52" y="354" on="0"/>
        <pt x="136" y="415" on="0"/>
        <pt x="205" y="415" on="1"/>
        <pt x="265" y="415" on="0"/>
        <pt x="357" y="374" on="0"/>
        <pt x="383" y="352" on="1"/>
        <pt x="403" y="392" on="0"/>
        <pt x="423" y="487" on="0"/>
        <pt x="424" y="527" on="1"/>
        <pt x="-20" y="527" on="1"/>
      </contour>
      <contour>
        <pt x="209" y="246" on="1"/>
        <pt x="254" y="246" on="0"/>
        <pt x="327" y="281" on="0"/>
        <pt x="354" y="313" on="1"/>
        <pt x="328" y="333" on="0"/>
        <pt x="257" y="365" on="0"/>
        <pt x="210" y="365" on="1"/>
        <pt x="162" y="365" on="0"/>
        <pt x="113" y="330" on="0"/>
        <pt x="113" y="304" on="1"/>
        <pt x="113" y="277" on="0"/>
        <pt x="163" y="246" on="0"/>
      </contour>
      <contour>
        <pt x="525" y="-222" on="1"/>
        <pt x="495" y="-257" on="1"/>
        <pt x="299" y="-105" on="1"/>
        <pt x="335" y="-60" on="1"/>
      </contour>
    </TTGlyph>
    <TTGlyph name="Bindi.gm" xMin="-168" yMin="666" xMax="-79" yMax="754">
      <contour>
        <pt x="-168" y="710" on="1"/>
        <pt x="-168" y="728" on="0"/>
        <pt x="-143" y="754" on="0"/>
        <pt x="-123" y="754" on="1"/>
        <pt x="-103" y="754" on="0"/>
        <pt x="-79" y="728" on="0"/>
        <pt x="-79" y="710" on="1"/>
        <pt x="-79" y="692" on="0"/>
        <pt x="-103" y="666" on="0"/>
        <pt x="-123" y="666" on="1"/>
        <pt x="-143" y="666" on="0"/>
        <pt x="-168" y="692" on="0"/>
      </contour>
    </TTGlyph>
    <TTGlyph name="Bindi.gm.alt" xMin="-163" yMin="672" xMax="-86" yMax="749">
      <contour>
        <pt x="-163" y="710" on="1"/>
        <pt x="-163" y="726" on="0"/>
        <pt x="-141" y="749" on="0"/>
        <pt x="-124" y="749" on="1"/>
        <pt x="-107" y="749" on="0"/>
        <pt x="-86" y="726" on="0"/>
        <pt x="-86" y="710" on="1"/>
        <pt x="-86" y="695" on="0"/>
        <pt x="-107" y="672" on="0"/>
        <pt x="-124" y="672" on="1"/>
        <pt x="-141" y="672" on="0"/>
        <pt x="-163" y="695" on="0"/>
      </contour>
    </TTGlyph>
    <TTGlyph name="Bsmall" xMin="74" yMin="0" xMax="407" yMax="470">
      <contour>
        <pt x="237" y="470" on="1"/>
        <pt x="311" y="470" on="0"/>
        <pt x="387" y="406" on="0"/>
        <pt x="387" y="354" on="1"/>
        <pt x="387" y="316" on="0"/>
        <pt x="341" y="264" on="0"/>
        <pt x="305" y="252" on="1"/>
        <pt x="353" y="241" on="0"/>
        <pt x="407" y="183" on="0"/>
        <pt x="407" y="135" on="1"/>
        <pt x="407" y="107" on="0"/>
        <pt x="385" y="58" on="0"/>
        <pt x="342" y="21" on="0"/>
        <pt x="278" y="0" on="0"/>
        <pt x="236" y="0" on="1"/>
        <pt x="74" y="0" on="1"/>
        <pt x="74" y="470" on="1"/>
      </contour>
      <contour>
        <pt x="135" y="271" on="1"/>
        <pt x="221" y="271" on="1"/>
        <pt x="266" y="271" on="0"/>
        <pt x="317" y="309" on="0"/>
        <pt x="317" y="345" on="1"/>
        <pt x="317" y="379" on="0"/>
        <pt x="270" y="417" on="0"/>
        <pt x="216" y="417" on="1"/>
        <pt x="135" y="417" on="1"/>
      </contour>
      <contour>
        <pt x="135" y="53" on="1"/>
        <pt x="215" y="53" on="1"/>
        <pt x="272" y="53" on="0"/>
        <pt x="336" y="93" on="0"/>
        <pt x="336" y="141" on="1"/>
        <pt x="336" y="156" on="0"/>
        <pt x="325" y="184" on="0"/>
        <pt x="301" y="206" on="0"/>
        <pt x="263" y="219" on="0"/>
        <pt x="236" y="219" on="1"/>
        <pt x="135" y="219" on="1"/>
      </contour>
    </TTGlyph>
    <TTGlyph name="C" xMin="40" yMin="-9" xMax="511" yMax="638">
      <contour>
        <pt x="348" y="50" on="1"/>
        <pt x="397" y="50" on="0"/>
        <pt x="462" y="68" on="0"/>
        <pt x="491" y="82" on="1"/>
        <pt x="508" y="24" on="1"/>
        <pt x="475" y="8" on="0"/>
        <pt x="396" y="-9" on="0"/>
        <pt x="339" y="-9" on="1"/>
        <pt x="277" y="-9" on="0"/>
        <pt x="168" y="33" on="0"/>
        <pt x="87" y="115" on="0"/>
        <pt x="40" y="235" on="0"/>
        <pt x="40" y="314" on="1"/>
        <pt x="40" y="391" on="0"/>
        <pt x="85" y="512" on="0"/>
        <pt x="166" y="595" on="0"/>
        <pt x="276" y="638" on="0"/>
        <pt x="341" y="638" on="1"/>
        <pt x="400" y="638" on="0"/>
        <pt x="478" y="619" on="0"/>
        <pt x="511" y="602" on="1"/>
        <pt x="494" y="546" on="1"/>
        <pt x="459" y="563" on="0"/>
        <pt x="394" y="579" on="0"/>
        <pt x="352" y="579" on="1"/>
        <pt x="305" y="579" on="0"/>
        <pt x="220" y="549" on="0"/>
        <pt x="156" y="485" on="0"/>
        <pt x="117" y="384" on="0"/>
        <pt x="117" y="313" on="1"/>
        <pt x="117" y="240" on="0"/>
        <pt x="156" y="140" on="0"/>
        <pt x="221" y="78" on="0"/>
        <pt x="304" y="50" on="0"/>
      </contour>
    </TTGlyph>
    <TTGlyph name="Ca.gm" xMin="-20" yMin="-6" xMax="617" yMax="577">
      <contour>
        <pt x="-20" y="577" on="1"/>
        <pt x="617" y="577" on="1"/>
        <pt x="617" y="527" on="1"/>
        <pt x="500" y="527" on="1"/>
        <pt x="500" y="304" on="1"/>
        <pt x="517" y="278" on="0"/>
        <pt x="539" y="212" on="0"/>
        <pt x="539" y="174" on="1"/>
        <pt x="539" y="127" on="0"/>
        <pt x="506" y="59" on="0"/>
        <pt x="450" y="15" on="0"/>
        <pt x="377" y="-6" on="0"/>
        <pt x="337" y="-6" on="1"/>
        <pt x="286" y="-6" on="0"/>
        <pt x="197" y="29" on="0"/>
        <pt x="130" y="101" on="0"/>
        <pt x="89" y="210" on="0"/>
        <pt x="86" y="284" on="1"/>
        <pt x="60" y="286" on="0"/>
        <pt x="28" y="311" on="0"/>
        <pt x="28" y="334" on="1"/>
        <pt x="28" y="366" on="0"/>
        <pt x="78" y="411" on="0"/>
        <pt x="112" y="411" on="1"/>
        <pt x="123" y="411" on="0"/>
        <pt x="141" y="406" on="0"/>
        <pt x="148" y="402" on="1"/>
        <pt x="148" y="336" on="1"/>
        <pt x="441" y="336" on="1"/>
        <pt x="441" y="527" on="1"/>
        <pt x="-20" y="527" on="1"/>
      </contour>
      <contour>
        <pt x="478" y="177" on="1"/>
        <pt x="478" y="209" on="0"/>
        <pt x="460" y="265" on="0"/>
        <pt x="447" y="285" on="1"/>
        <pt x="147" y="285" on="1"/>
        <pt x="150" y="225" on="0"/>
        <pt x="181" y="135" on="0"/>
        <pt x="232" y="76" on="0"/>
        <pt x="300" y="46" on="0"/>
        <pt x="339" y="46" on="1"/>
        <pt x="367" y="46" on="0"/>
        <pt x="418" y="62" on="0"/>
        <pt x="456" y="94" on="0"/>
        <pt x="478" y="144" on="0"/>
      </contour>
    </TTGlyph>
    <TTGlyph name="CaVirama.gm" xMin="-20" yMin="-257" xMax="617" yMax="577">
      <contour>
        <pt x="-20" y="577" on="1"/>
        <pt x="617" y="577" on="1"/>
        <pt x="617" y="527" on="1"/>
        <pt x="500" y="527" on="1"/>
        <pt x="500" y="304" on="1"/>
        <pt x="517" y="278" on="0"/>
        <pt x="539" y="212" on="0"/>
        <pt x="539" y="174" on="1"/>
        <pt x="539" y="127" on="0"/>
        <pt x="506" y="59" on="0"/>
        <pt x="450" y="15" on="0"/>
        <pt x="377" y="-6" on="0"/>
        <pt x="337" y="-6" on="1"/>
        <pt x="286" y="-6" on="0"/>
        <pt x="197" y="29" on="0"/>
        <pt x="130" y="101" on="0"/>
        <pt x="89" y="210" on="0"/>
        <pt x="86" y="284" on="1"/>
        <pt x="60" y="286" on="0"/>
        <pt x="28" y="311" on="0"/>
        <pt x="28" y="334" on="1"/>
        <pt x="28" y="366" on="0"/>
        <pt x="78" y="411" on="0"/>
        <pt x="112" y="411" on="1"/>
        <pt x="123" y="411" on="0"/>
        <pt x="141" y="406" on="0"/>
        <pt x="148" y="402" on="1"/>
        <pt x="148" y="336" on="1"/>
        <pt x="441" y="336" on="1"/>
        <pt x="441" y="527" on="1"/>
        <pt x="-20" y="527" on="1"/>
      </contour>
      <contour>
        <pt x="478" y="177" on="1"/>
        <pt x="478" y="209" on="0"/>
        <pt x="460" y="265" on="0"/>
        <pt x="447" y="285" on="1"/>
        <pt x="147" y="285" on="1"/>
        <pt x="150" y="225" on="0"/>
        <pt x="181" y="135" on="0"/>
        <pt x="232" y="76" on="0"/>
        <pt x="300" y="46" on="0"/>
        <pt x="339" y="46" on="1"/>
        <pt x="367" y="46" on="0"/>
        <pt x="418" y="62" on="0"/>
        <pt x="456" y="94" on="0"/>
        <pt x="478" y="144" on="0"/>
      </contour>
      <contour>
        <pt x="552" y="-222" on="1"/>
        <pt x="522" y="-257" on="1"/>
        <pt x="326" y="-105" on="1"/>
        <pt x="362" y="-60" on="1"/>
      </contour>
    </TTGlyph>
    <TTGlyph name="Cacute" xMin="40" yMin="-9" xMax="511" yMax="834">
      <contour>
        <pt x="348" y="50" on="1"/>
        <pt x="397" y="50" on="0"/>
        <pt x="462" y="68" on="0"/>
        <pt x="491" y="82" on="1"/>
        <pt x="508" y="24" on="1"/>
        <pt x="475" y="8" on="0"/>
        <pt x="396" y="-9" on="0"/>
        <pt x="339" y="-9" on="1"/>
        <pt x="277" y="-9" on="0"/>
        <pt x="168" y="33" on="0"/>
        <pt x="87" y="115" on="0"/>
        <pt x="40" y="235" on="0"/>
        <pt x="40" y="314" on="1"/>
        <pt x="40" y="391" on="0"/>
        <pt x="85" y="512" on="0"/>
        <pt x="166" y="595" on="0"/>
        <pt x="276" y="638" on="0"/>
        <pt x="341" y="638" on="1"/>
        <pt x="400" y="638" on="0"/>
        <pt x="478" y="619" on="0"/>
        <pt x="511" y="602" on="1"/>
        <pt x="494" y="546" on="1"/>
        <pt x="459" y="563" on="0"/>
        <pt x="394" y="579" on="0"/>
        <pt x="352" y="579" on="1"/>
        <pt x="305" y="579" on="0"/>
        <pt x="220" y="549" on="0"/>
        <pt x="156" y="485" on="0"/>
        <pt x="117" y="384" on="0"/>
        <pt x="117" y="313" on="1"/>
        <pt x="117" y="240" on="0"/>
        <pt x="156" y="140" on="0"/>
        <pt x="221" y="78" on="0"/>
        <pt x="304" y="50" on="0"/>
      </contour>
      <contour>
        <pt x="307" y="710" on="1"/>
        <pt x="250" y="710" on="1"/>
        <pt x="335" y="834" on="1"/>
        <pt x="418" y="834" on="1"/>
      </contour>
    </TTGlyph>
    <TTGlyph name="Ccaron" xMin="40" yMin="-9" xMax="511" yMax="845">
      <contour>
        <pt x="348" y="50" on="1"/>
        <pt x="397" y="50" on="0"/>
        <pt x="462" y="68" on="0"/>
        <pt x="491" y="82" on="1"/>
        <pt x="508" y="24" on="1"/>
        <pt x="475" y="8" on="0"/>
        <pt x="396" y="-9" on="0"/>
        <pt x="339" y="-9" on="1"/>
        <pt x="277" y="-9" on="0"/>
        <pt x="168" y="33" on="0"/>
        <pt x="87" y="115" on="0"/>
        <pt x="40" y="235" on="0"/>
        <pt x="40" y="314" on="1"/>
        <pt x="40" y="391" on="0"/>
        <pt x="85" y="512" on="0"/>
        <pt x="166" y="595" on="0"/>
        <pt x="276" y="638" on="0"/>
        <pt x="341" y="638" on="1"/>
        <pt x="400" y="638" on="0"/>
        <pt x="478" y="619" on="0"/>
        <pt x="511" y="602" on="1"/>
        <pt x="494" y="546" on="1"/>
        <pt x="459" y="563" on="0"/>
        <pt x="394" y="579" on="0"/>
        <pt x="352" y="579" on="1"/>
        <pt x="305" y="579" on="0"/>
        <pt x="220" y="549" on="0"/>
        <pt x="156" y="485" on="0"/>
        <pt x="117" y="384" on="0"/>
        <pt x="117" y="313" on="1"/>
        <pt x="117" y="240" on="0"/>
        <pt x="156" y="140" on="0"/>
        <pt x="221" y="78" on="0"/>
        <pt x="304" y="50" on="0"/>
      </contour>
      <contour>
        <pt x="186" y="845" on="1"/>
        <pt x="254" y="845" on="1"/>
        <pt x="338" y="752" on="1"/>
        <pt x="422" y="845" on="1"/>
        <pt x="492" y="845" on="1"/>
        <pt x="367" y="711" on="1"/>
        <pt x="308" y="711" on="1"/>
      </contour>
    </TTGlyph>
    <TTGlyph name="Ccedilla" xMin="40" yMin="-214" xMax="511" yMax="638">
      <contour>
        <pt x="348" y="50" on="1"/>
        <pt x="397" y="50" on="0"/>
        <pt x="462" y="68" on="0"/>
        <pt x="491" y="82" on="1"/>
        <pt x="508" y="24" on="1"/>
        <pt x="476" y="9" on="0"/>
        <pt x="402" y="-8" on="0"/>
        <pt x="348" y="-9" on="1"/>
        <pt x="331" y="-47" on="1"/>
        <pt x="359" y="-48" on="0"/>
        <pt x="398" y="-62" on="0"/>
        <pt x="423" y="-84" on="0"/>
        <pt x="434" y="-111" on="0"/>
        <pt x="434" y="-126" on="1"/>
        <pt x="434" y="-168" on="0"/>
        <pt x="365" y="-214" on="0"/>
        <pt x="313" y="-214" on="1"/>
        <pt x="290" y="-214" on="0"/>
        <pt x="251" y="-207" on="0"/>
        <pt x="239" y="-202" on="1"/>
        <pt x="250" y="-165" on="1"/>
        <pt x="263" y="-170" on="0"/>
        <pt x="292" y="-174" on="0"/>
        <pt x="306" y="-174" on="1"/>
        <pt x="344" y="-174" on="0"/>
        <pt x="379" y="-149" on="0"/>
        <pt x="379" y="-128" on="1"/>
        <pt x="379" y="-118" on="0"/>
        <pt x="371" y="-100" on="0"/>
        <pt x="349" y="-86" on="0"/>
        <pt x="307" y="-78" on="0"/>
        <pt x="273" y="-78" on="1"/>
        <pt x="307" y="-7" on="1"/>
        <pt x="250" y="-2" on="0"/>
        <pt x="153" y="44" on="0"/>
        <pt x="81" y="125" on="0"/>
        <pt x="40" y="240" on="0"/>
        <pt x="40" y="314" on="1"/>
        <pt x="40" y="391" on="0"/>
        <pt x="85" y="512" on="0"/>
        <pt x="166" y="595" on="0"/>
        <pt x="276" y="638" on="0"/>
        <pt x="341" y="638" on="1"/>
        <pt x="400" y="638" on="0"/>
        <pt x="478" y="619" on="0"/>
        <pt x="511" y="602" on="1"/>
        <pt x="494" y="546" on="1"/>
        <pt x="459" y="563" on="0"/>
        <pt x="394" y="579" on="0"/>
        <pt x="352" y="579" on="1"/>
        <pt x="305" y="579" on="0"/>
        <pt x="220" y="549" on="0"/>
        <pt x="156" y="485" on="0"/>
        <pt x="117" y="384" on="0"/>
        <pt x="117" y="313" on="1"/>
        <pt x="117" y="240" on="0"/>
        <pt x="156" y="140" on="0"/>
        <pt x="221" y="78" on="0"/>
        <pt x="304" y="50" on="0"/>
      </contour>
    </TTGlyph>
    <TTGlyph name="Ccircumflex" xMin="40" yMin="-9" xMax="511" yMax="844">
      <contour>
        <pt x="348" y="50" on="1"/>
        <pt x="397" y="50" on="0"/>
        <pt x="462" y="68" on="0"/>
        <pt x="491" y="82" on="1"/>
        <pt x="508" y="24" on="1"/>
        <pt x="475" y="8" on="0"/>
        <pt x="396" y="-9" on="0"/>
        <pt x="339" y="-9" on="1"/>
        <pt x="277" y="-9" on="0"/>
        <pt x="168" y="33" on="0"/>
        <pt x="87" y="115" on="0"/>
        <pt x="40" y="235" on="0"/>
        <pt x="40" y="314" on="1"/>
        <pt x="40" y="391" on="0"/>
        <pt x="85" y="512" on="0"/>
        <pt x="166" y="595" on="0"/>
        <pt x="276" y="638" on="0"/>
        <pt x="341" y="638" on="1"/>
        <pt x="400" y="638" on="0"/>
        <pt x="478" y="619" on="0"/>
        <pt x="511" y="602" on="1"/>
        <pt x="494" y="546" on="1"/>
        <pt x="459" y="563" on="0"/>
        <pt x="394" y="579" on="0"/>
        <pt x="352" y="579" on="1"/>
        <pt x="305" y="579" on="0"/>
        <pt x="220" y="549" on="0"/>
        <pt x="156" y="485" on="0"/>
        <pt x="117" y="384" on="0"/>
        <pt x="117" y="313" on="1"/>
        <pt x="117" y="240" on="0"/>
        <pt x="156" y="140" on="0"/>
        <pt x="221" y="78" on="0"/>
        <pt x="304" y="50" on="0"/>
      </contour>
      <contour>
        <pt x="303" y="844" on="1"/>
        <pt x="362" y="844" on="1"/>
        <pt x="487" y="710" on="1"/>
        <pt x="417" y="710" on="1"/>
        <pt x="332" y="801" on="1"/>
        <pt x="247" y="710" on="1"/>
        <pt x="181" y="710" on="1"/>
      </contour>
    </TTGlyph>
    <TTGlyph name="Cdotaccent" xMin="40" yMin="-9" xMax="511" yMax="822">
      <contour>
        <pt x="348" y="50" on="1"/>
        <pt x="397" y="50" on="0"/>
        <pt x="462" y="68" on="0"/>
        <pt x="491" y="82" on="1"/>
        <pt x="508" y="24" on="1"/>
        <pt x="475" y="8" on="0"/>
        <pt x="396" y="-9" on="0"/>
        <pt x="339" y="-9" on="1"/>
        <pt x="277" y="-9" on="0"/>
        <pt x="168" y="33" on="0"/>
        <pt x="87" y="115" on="0"/>
        <pt x="40" y="235" on="0"/>
        <pt x="40" y="314" on="1"/>
        <pt x="40" y="391" on="0"/>
        <pt x="85" y="512" on="0"/>
        <pt x="166" y="595" on="0"/>
        <pt x="276" y="638" on="0"/>
        <pt x="341" y="638" on="1"/>
        <pt x="400" y="638" on="0"/>
        <pt x="478" y="619" on="0"/>
        <pt x="511" y="602" on="1"/>
        <pt x="494" y="546" on="1"/>
        <pt x="459" y="563" on="0"/>
        <pt x="394" y="579" on="0"/>
        <pt x="352" y="579" on="1"/>
        <pt x="305" y="579" on="0"/>
        <pt x="220" y="549" on="0"/>
        <pt x="156" y="485" on="0"/>
        <pt x="117" y="384" on="0"/>
        <pt x="117" y="313" on="1"/>
        <pt x="117" y="240" on="0"/>
        <pt x="156" y="140" on="0"/>
        <pt x="221" y="78" on="0"/>
        <pt x="304" y="50" on="0"/>
      </contour>
      <contour>
        <pt x="290" y="772" on="1"/>
        <pt x="290" y="792" on="0"/>
        <pt x="318" y="822" on="0"/>
        <pt x="338" y="822" on="1"/>
        <pt x="358" y="822" on="0"/>
        <pt x="386" y="792" on="0"/>
        <pt x="386" y="772" on="1"/>
        <pt x="386" y="750" on="0"/>
        <pt x="358" y="722" on="0"/>
        <pt x="338" y="722" on="1"/>
        <pt x="318" y="722" on="0"/>
        <pt x="290" y="750" on="0"/>
      </contour>
    </TTGlyph>
    <TTGlyph name="Cha.gm" xMin="-20" yMin="0" xMax="594" yMax="577">
      <contour>
        <pt x="-20" y="577" on="1"/>
        <pt x="594" y="577" on="1"/>
        <pt x="594" y="527" on="1"/>
        <pt x="486" y="527" on="1"/>
        <pt x="486" y="365" on="1"/>
        <pt x="188" y="365" on="1"/>
        <pt x="151" y="365" on="0"/>
        <pt x="117" y="333" on="0"/>
        <pt x="117" y="308" on="1"/>
        <pt x="117" y="283" on="0"/>
        <pt x="149" y="248" on="0"/>
        <pt x="178" y="248" on="1"/>
        <pt x="371" y="248" on="1"/>
        <pt x="441" y="248" on="0"/>
        <pt x="522" y="183" on="0"/>
        <pt x="522" y="123" on="1"/>
        <pt x="522" y="66" on="0"/>
        <pt x="443" y="0" on="0"/>
        <pt x="365" y="0" on="1"/>
        <pt x="222" y="0" on="1"/>
        <pt x="140" y="0" on="0"/>
        <pt x="54" y="67" on="0"/>
        <pt x="54" y="127" on="1"/>
        <pt x="54" y="161" on="0"/>
        <pt x="91" y="211" on="0"/>
        <pt x="118" y="221" on="1"/>
        <pt x="94" y="230" on="0"/>
        <pt x="56" y="274" on="0"/>
        <pt x="56" y="309" on="1"/>
        <pt x="56" y="361" on="0"/>
        <pt x="127" y="416" on="0"/>
        <pt x="185" y="416" on="1"/>
        <pt x="427" y="416" on="1"/>
        <pt x="427" y="527" on="1"/>
        <pt x="-20" y="527" on="1"/>
      </contour>
      <contour>
        <pt x="285" y="50" on="1"/>
        <pt x="284" y="82" on="0"/>
        <pt x="271" y="137" on="0"/>
        <pt x="246" y="177" on="0"/>
        <pt x="208" y="200" on="0"/>
        <pt x="182" y="200" on="1"/>
        <pt x="157" y="200" on="0"/>
        <pt x="114" y="166" on="0"/>
        <pt x="114" y="131" on="1"/>
        <pt x="114" y="93" on="0"/>
        <pt x="169" y="50" on="0"/>
        <pt x="226" y="50" on="1"/>
      </contour>
      <contour>
        <pt x="280" y="199" on="1"/>
        <pt x="302" y="181" on="0"/>
        <pt x="336" y="114" on="0"/>
        <pt x="339" y="50" on="1"/>
        <pt x="366" y="50" on="1"/>
        <pt x="462" y="50" on="0"/>
        <pt x="462" y="126" on="1"/>
        <pt x="462" y="155" on="0"/>
        <pt x="418" y="199" on="0"/>
        <pt x="373" y="199" on="1"/>
      </contour>
    </TTGlyph>
    <TTGlyph name="ChaVirama.gm" xMin="-20" yMin="-257" xMax="594" yMax="577">
      <contour>
        <pt x="-20" y="577" on="1"/>
        <pt x="594" y="577" on="1"/>
        <pt x="594" y="527" on="1"/>
        <pt x="486" y="527" on="1"/>
        <pt x="486" y="365" on="1"/>
        <pt x="188" y="365" on="1"/>
        <pt x="151" y="365" on="0"/>
        <pt x="117" y="333" on="0"/>
        <pt x="117" y="308" on="1"/>
        <pt x="117" y="283" on="0"/>
        <pt x="149" y="248" on="0"/>
        <pt x="178" y="248" on="1"/>
        <pt x="371" y="248" on="1"/>
        <pt x="441" y="248" on="0"/>
        <pt x="522" y="183" on="0"/>
        <pt x="522" y="123" on="1"/>
        <pt x="522" y="66" on="0"/>
        <pt x="443" y="0" on="0"/>
        <pt x="365" y="0" on="1"/>
        <pt x="222" y="0" on="1"/>
        <pt x="140" y="0" on="0"/>
        <pt x="54" y="67" on="0"/>
        <pt x="54" y="127" on="1"/>
        <pt x="54" y="161" on="0"/>
        <pt x="91" y="211" on="0"/>
        <pt x="118" y="221" on="1"/>
        <pt x="94" y="230" on="0"/>
        <pt x="56" y="274" on="0"/>
        <pt x="56" y="309" on="1"/>
        <pt x="56" y="361" on="0"/>
        <pt x="127" y="416" on="0"/>
        <pt x="185" y="416" on="1"/>
        <pt x="427" y="416" on="1"/>
        <pt x="427" y="527" on="1"/>
        <pt x="-20" y="527" on="1"/>
      </contour>
      <contour>
        <pt x="285" y="50" on="1"/>
        <pt x="284" y="82" on="0"/>
        <pt x="271" y="137" on="0"/>
        <pt x="246" y="177" on="0"/>
        <pt x="208" y="200" on="0"/>
        <pt x="182" y="200" on="1"/>
        <pt x="157" y="200" on="0"/>
        <pt x="114" y="166" on="0"/>
        <pt x="114" y="131" on="1"/>
        <pt x="114" y="93" on="0"/>
        <pt x="169" y="50" on="0"/>
        <pt x="226" y="50" on="1"/>
      </contour>
      <contour>
        <pt x="280" y="199" on="1"/>
        <pt x="302" y="181" on="0"/>
        <pt x="336" y="114" on="0"/>
        <pt x="339" y="50" on="1"/>
        <pt x="366" y="50" on="1"/>
        <pt x="462" y="50" on="0"/>
        <pt x="462" y="126" on="1"/>
        <pt x="462" y="155" on="0"/>
        <pt x="418" y="199" on="0"/>
        <pt x="373" y="199" on="1"/>
      </contour>
      <contour>
        <pt x="554" y="-222" on="1"/>
        <pt x="524" y="-257" on="1"/>
        <pt x="328" y="-105" on="1"/>
        <pt x="364" y="-60" on="1"/>
      </contour>
    </TTGlyph>
    <TTGlyph name="Csmall" xMin="41" yMin="-9" xMax="408" yMax="476">
      <contour>
        <pt x="288" y="43" on="1"/>
        <pt x="320" y="43" on="0"/>
        <pt x="370" y="57" on="0"/>
        <pt x="393" y="68" on="1"/>
        <pt x="408" y="18" on="1"/>
        <pt x="354" y="-9" on="0"/>
        <pt x="281" y="-9" on="1"/>
        <pt x="231" y="-9" on="0"/>
        <pt x="144" y="21" on="0"/>
        <pt x="79" y="82" on="0"/>
        <pt x="41" y="173" on="0"/>
        <pt x="41" y="234" on="1"/>
        <pt x="41" y="290" on="0"/>
        <pt x="76" y="380" on="0"/>
        <pt x="140" y="443" on="0"/>
        <pt x="227" y="476" on="0"/>
        <pt x="280" y="476" on="1"/>
        <pt x="312" y="476" on="0"/>
        <pt x="373" y="465" on="0"/>
        <pt x="406" y="451" on="1"/>
        <pt x="390" y="399" on="1"/>
        <pt x="366" y="412" on="0"/>
        <pt x="314" y="423" on="0"/>
        <pt x="288" y="423" on="1"/>
        <pt x="208" y="423" on="0"/>
        <pt x="111" y="324" on="0"/>
        <pt x="111" y="237" on="1"/>
        <pt x="111" y="182" on="0"/>
        <pt x="142" y="107" on="0"/>
        <pt x="191" y="62" on="0"/>
        <pt x="255" y="43" on="0"/>
      </contour>
    </TTGlyph>
    <TTGlyph name="D" xMin="80" yMin="0" xMax="576" yMax="630">
      <contour>
        <pt x="275" y="630" on="1"/>
        <pt x="339" y="630" on="0"/>
        <pt x="450" y="592" on="0"/>
        <pt x="530" y="517" on="0"/>
        <pt x="576" y="404" on="0"/>
        <pt x="576" y="329" on="1"/>
        <pt x="576" y="238" on="0"/>
        <pt x="522" y="112" on="0"/>
        <pt x="430" y="34" on="0"/>
        <pt x="308" y="0" on="0"/>
        <pt x="240" y="0" on="1"/>
        <pt x="80" y="0" on="1"/>
        <pt x="80" y="630" on="1"/>
      </contour>
      <contour>
        <pt x="152" y="59" on="1"/>
        <pt x="231" y="59" on="1"/>
        <pt x="281" y="59" on="0"/>
        <pt x="377" y="82" on="0"/>
        <pt x="453" y="143" on="0"/>
        <pt x="499" y="248" on="0"/>
        <pt x="499" y="329" on="1"/>
        <pt x="499" y="387" on="0"/>
        <pt x="464" y="477" on="0"/>
        <pt x="401" y="539" on="0"/>
        <pt x="311" y="571" on="0"/>
        <pt x="257" y="571" on="1"/>
        <pt x="152" y="571" on="1"/>
      </contour>
    </TTGlyph>
    <TTGlyph name="Da.gm" xMin="-20" yMin="-4" xMax="592" yMax="577">
      <contour>
        <pt x="-20" y="577" on="1"/>
        <pt x="592" y="577" on="1"/>
        <pt x="592" y="527" on="1"/>
        <pt x="485" y="527" on="1"/>
        <pt x="485" y="277" on="1"/>
        <pt x="149" y="277" on="1"/>
        <pt x="149" y="162" on="0"/>
        <pt x="257" y="48" on="0"/>
        <pt x="352" y="48" on="1"/>
        <pt x="398" y="48" on="0"/>
        <pt x="466" y="73" on="0"/>
        <pt x="489" y="90" on="1"/>
        <pt x="516" y="47" on="1"/>
        <pt x="490" y="26" on="0"/>
        <pt x="407" y="-4" on="0"/>
        <pt x="351" y="-4" on="1"/>
        <pt x="286" y="-4" on="0"/>
        <pt x="189" y="36" on="0"/>
        <pt x="124" y="110" on="0"/>
        <pt x="90" y="214" on="0"/>
        <pt x="89" y="277" on="1"/>
        <pt x="60" y="278" on="0"/>
        <pt x="27" y="304" on="0"/>
        <pt x="27" y="328" on="1"/>
        <pt x="27" y="360" on="0"/>
        <pt x="77" y="404" on="0"/>
        <pt x="108" y="404" on="1"/>
        <pt x="132" y="404" on="0"/>
        <pt x="149" y="395" on="1"/>
        <pt x="149" y="329" on="1"/>
        <pt x="425" y="329" on="1"/>
        <pt x="425" y="527" on="1"/>
        <pt x="-20" y="527" on="1"/>
      </contour>
    </TTGlyph>
    <TTGlyph name="DaVirama.gm" xMin="-20" yMin="-257" xMax="596" yMax="577">
      <contour>
        <pt x="-20" y="577" on="1"/>
        <pt x="592" y="577" on="1"/>
        <pt x="592" y="527" on="1"/>
        <pt x="485" y="527" on="1"/>
        <pt x="485" y="277" on="1"/>
        <pt x="149" y="277" on="1"/>
        <pt x="149" y="162" on="0"/>
        <pt x="257" y="48" on="0"/>
        <pt x="352" y="48" on="1"/>
        <pt x="398" y="48" on="0"/>
        <pt x="466" y="73" on="0"/>
        <pt x="489" y="90" on="1"/>
        <pt x="516" y="47" on="1"/>
        <pt x="490" y="26" on="0"/>
        <pt x="407" y="-4" on="0"/>
        <pt x="351" y="-4" on="1"/>
        <pt x="286" y="-4" on="0"/>
        <pt x="189" y="36" on="0"/>
        <pt x="124" y="110" on="0"/>
        <pt x="90" y="214" on="0"/>
        <pt x="89" y="277" on="1"/>
        <pt x="60" y="278" on="0"/>
        <pt x="27" y="304" on="0"/>
        <pt x="27" y="328" on="1"/>
        <pt x="27" y="360" on="0"/>
        <pt x="77" y="404" on="0"/>
        <pt x="108" y="404" on="1"/>
        <pt x="132" y="404" on="0"/>
        <pt x="149" y="395" on="1"/>
        <pt x="149" y="329" on="1"/>
        <pt x="425" y="329" on="1"/>
        <pt x="425" y="527" on="1"/>
        <pt x="-20" y="527" on="1"/>
      </contour>
      <contour>
        <pt x="596" y="-222" on="1"/>
        <pt x="566" y="-257" on="1"/>
        <pt x="370" y="-105" on="1"/>
        <pt x="406" y="-60" on="1"/>
      </contour>
    </TTGlyph>
    <TTGlyph name="Danda.gm" xMin="110" yMin="0" xMax="170" yMax="582">
      <contour>
        <pt x="110" y="582" on="1"/>
        <pt x="170" y="582" on="1"/>
        <pt x="170" y="0" on="1"/>
        <pt x="110" y="0" on="1"/>
      </contour>
    </TTGlyph>
    <TTGlyph name="Dcaron" xMin="80" yMin="0" xMax="576" yMax="844">
      <contour>
        <pt x="275" y="630" on="1"/>
        <pt x="339" y="630" on="0"/>
        <pt x="450" y="592" on="0"/>
        <pt x="530" y="517" on="0"/>
        <pt x="576" y="404" on="0"/>
        <pt x="576" y="329" on="1"/>
        <pt x="576" y="238" on="0"/>
        <pt x="522" y="112" on="0"/>
        <pt x="430" y="34" on="0"/>
        <pt x="308" y="0" on="0"/>
        <pt x="240" y="0" on="1"/>
        <pt x="80" y="0" on="1"/>
        <pt x="80" y="630" on="1"/>
      </contour>
      <contour>
        <pt x="152" y="59" on="1"/>
        <pt x="231" y="59" on="1"/>
        <pt x="281" y="59" on="0"/>
        <pt x="377" y="82" on="0"/>
        <pt x="453" y="143" on="0"/>
        <pt x="499" y="248" on="0"/>
        <pt x="499" y="329" on="1"/>
        <pt x="499" y="387" on="0"/>
        <pt x="464" y="477" on="0"/>
        <pt x="401" y="539" on="0"/>
        <pt x="311" y="571" on="0"/>
        <pt x="257" y="571" on="1"/>
        <pt x="152" y="571" on="1"/>
      </contour>
      <contour>
        <pt x="123" y="844" on="1"/>
        <pt x="189" y="844" on="1"/>
        <pt x="274" y="753" on="1"/>
        <pt x="359" y="844" on="1"/>
        <pt x="429" y="844" on="1"/>
        <pt x="304" y="710" on="1"/>
        <pt x="245" y="710" on="1"/>
      </contour>
    </TTGlyph>
    <TTGlyph name="Dcroat" xMin="30" yMin="0" xMax="606" yMax="630">
      <contour>
        <pt x="305" y="630" on="1"/>
        <pt x="369" y="630" on="0"/>
        <pt x="480" y="592" on="0"/>
        <pt x="560" y="517" on="0"/>
        <pt x="606" y="404" on="0"/>
        <pt x="606" y="329" on="1"/>
        <pt x="606" y="238" on="0"/>
        <pt x="552" y="112" on="0"/>
        <pt x="460" y="34" on="0"/>
        <pt x="338" y="0" on="0"/>
        <pt x="270" y="0" on="1"/>
        <pt x="110" y="0" on="1"/>
        <pt x="110" y="303" on="1"/>
        <pt x="30" y="303" on="1"/>
        <pt x="30" y="355" on="1"/>
        <pt x="110" y="355" on="1"/>
        <pt x="110" y="630" on="1"/>
      </contour>
      <contour>
        <pt x="330" y="355" on="1"/>
        <pt x="330" y="303" on="1"/>
        <pt x="182" y="303" on="1"/>
        <pt x="182" y="59" on="1"/>
        <pt x="261" y="59" on="1"/>
        <pt x="311" y="59" on="0"/>
        <pt x="407" y="82" on="0"/>
        <pt x="483" y="143" on="0"/>
        <pt x="529" y="248" on="0"/>
        <pt x="529" y="329" on="1"/>
        <pt x="529" y="387" on="0"/>
        <pt x="494" y="477" on="0"/>
        <pt x="431" y="539" on="0"/>
        <pt x="341" y="571" on="0"/>
        <pt x="287" y="571" on="1"/>
        <pt x="182" y="571" on="1"/>
        <pt x="182" y="355" on="1"/>
      </contour>
    </TTGlyph>
    <TTGlyph name="Dda.gm" xMin="-20" yMin="-4" xMax="566" yMax="577">
      <contour>
        <pt x="-20" y="577" on="1"/>
        <pt x="566" y="577" on="1"/>
        <pt x="566" y="527" on="1"/>
        <pt x="472" y="527" on="1"/>
        <pt x="469" y="467" on="0"/>
        <pt x="421" y="368" on="0"/>
        <pt x="389" y="339" on="1"/>
        <pt x="431" y="315" on="0"/>
        <pt x="480" y="236" on="0"/>
        <pt x="480" y="182" on="1"/>
        <pt x="480" y="137" on="0"/>
        <pt x="442" y="68" on="0"/>
        <pt x="377" y="21" on="0"/>
        <pt x="290" y="-4" on="0"/>
        <pt x="241" y="-4" on="1"/>
        <pt x="195" y="-4" on="0"/>
        <pt x="119" y="14" on="0"/>
        <pt x="64" y="48" on="0"/>
        <pt x="34" y="95" on="0"/>
        <pt x="34" y="124" on="1"/>
        <pt x="34" y="164" on="0"/>
        <pt x="93" y="222" on="0"/>
        <pt x="147" y="222" on="1"/>
        <pt x="189" y="222" on="0"/>
        <pt x="256" y="196" on="0"/>
        <pt x="309" y="155" on="0"/>
        <pt x="350" y="106" on="0"/>
        <pt x="365" y="83" on="1"/>
        <pt x="390" y="100" on="0"/>
        <pt x="419" y="152" on="0"/>
        <pt x="419" y="187" on="1"/>
        <pt x="419" y="232" on="0"/>
        <pt x="367" y="299" on="0"/>
        <pt x="331" y="313" on="1"/>
        <pt x="302" y="305" on="0"/>
        <pt x="233" y="298" on="0"/>
        <pt x="190" y="298" on="1"/>
        <pt x="137" y="298" on="0"/>
        <pt x="86" y="319" on="0"/>
        <pt x="86" y="344" on="1"/>
        <pt x="86" y="352" on="0"/>
        <pt x="91" y="367" on="0"/>
        <pt x="94" y="372" on="1"/>
        <pt x="348" y="372" on="1"/>
        <pt x="371" y="395" on="0"/>
        <pt x="409" y="480" on="0"/>
        <pt x="412" y="527" on="1"/>
        <pt x="-20" y="527" on="1"/>
      </contour>
      <contour>
        <pt x="241" y="47" on="1"/>
        <pt x="284" y="47" on="0"/>
        <pt x="319" y="59" on="1"/>
        <pt x="305" y="79" on="0"/>
        <pt x="273" y="119" on="0"/>
        <pt x="232" y="152" on="0"/>
        <pt x="182" y="173" on="0"/>
        <pt x="152" y="173" on="1"/>
        <pt x="123" y="173" on="0"/>
        <pt x="95" y="143" on="0"/>
        <pt x="95" y="124" on="1"/>
        <pt x="95" y="92" on="0"/>
        <pt x="174" y="47" on="0"/>
      </contour>
    </TTGlyph>
    <TTGlyph name="DdaVirama.gm" xMin="-20" yMin="-257" xMax="566" yMax="577">
      <contour>
        <pt x="-20" y="577" on="1"/>
        <pt x="566" y="577" on="1"/>
        <pt x="566" y="527" on="1"/>
        <pt x="472" y="527" on="1"/>
        <pt x="469" y="467" on="0"/>
        <pt x="421" y="368" on="0"/>
        <pt x="389" y="339" on="1"/>
        <pt x="431" y="315" on="0"/>
        <pt x="480" y="236" on="0"/>
        <pt x="480" y="182" on="1"/>
        <pt x="480" y="137" on="0"/>
        <pt x="442" y="68" on="0"/>
        <pt x="377" y="21" on="0"/>
        <pt x="290" y="-4" on="0"/>
        <pt x="241" y="-4" on="1"/>
        <pt x="195" y="-4" on="0"/>
        <pt x="119" y="14" on="0"/>
        <pt x="64" y="48" on="0"/>
        <pt x="34" y="95" on="0"/>
        <pt x="34" y="124" on="1"/>
        <pt x="34" y="164" on="0"/>
        <pt x="93" y="222" on="0"/>
        <pt x="147" y="222" on="1"/>
        <pt x="189" y="222" on="0"/>
        <pt x="256" y="196" on="0"/>
        <pt x="309" y="155" on="0"/>
        <pt x="350" y="106" on="0"/>
        <pt x="365" y="83" on="1"/>
        <pt x="390" y="100" on="0"/>
        <pt x="419" y="152" on="0"/>
        <pt x="419" y="187" on="1"/>
        <pt x="419" y="232" on="0"/>
        <pt x="367" y="299" on="0"/>
        <pt x="331" y="313" on="1"/>
        <pt x="302" y="305" on="0"/>
        <pt x="233" y="298" on="0"/>
        <pt x="190" y="298" on="1"/>
        <pt x="137" y="298" on="0"/>
        <pt x="86" y="319" on="0"/>
        <pt x="86" y="344" on="1"/>
        <pt x="86" y="352" on="0"/>
        <pt x="91" y="367" on="0"/>
        <pt x="94" y="372" on="1"/>
        <pt x="348" y="372" on="1"/>
        <pt x="371" y="395" on="0"/>
        <pt x="409" y="480" on="0"/>
        <pt x="412" y="527" on="1"/>
        <pt x="-20" y="527" on="1"/>
      </contour>
      <contour>
        <pt x="241" y="47" on="1"/>
        <pt x="284" y="47" on="0"/>
        <pt x="319" y="59" on="1"/>
        <pt x="305" y="79" on="0"/>
        <pt x="273" y="119" on="0"/>
        <pt x="232" y="152" on="0"/>
        <pt x="182" y="173" on="0"/>
        <pt x="152" y="173" on="1"/>
        <pt x="123" y="173" on="0"/>
        <pt x="95" y="143" on="0"/>
        <pt x="95" y="124" on="1"/>
        <pt x="95" y="92" on="0"/>
        <pt x="174" y="47" on="0"/>
      </contour>
      <contour>
        <pt x="513" y="-222" on="1"/>
        <pt x="483" y="-257" on="1"/>
        <pt x="287" y="-105" on="1"/>
        <pt x="323" y="-60" on="1"/>
      </contour>
    </TTGlyph>
    <TTGlyph name="Ddha.gm" xMin="-20" yMin="-4" xMax="613" yMax="577">
      <contour>
        <pt x="-20" y="577" on="1"/>
        <pt x="613" y="577" on="1"/>
        <pt x="613" y="527" on="1"/>
        <pt x="506" y="527" on="1"/>
        <pt x="506" y="305" on="1"/>
        <pt x="144" y="305" on="1"/>
        <pt x="148" y="235" on="0"/>
        <pt x="193" y="135" on="0"/>
        <pt x="223" y="106" on="1"/>
        <pt x="260" y="157" on="0"/>
        <pt x="357" y="215" on="0"/>
        <pt x="414" y="215" on="1"/>
        <pt x="470" y="215" on="0"/>
        <pt x="536" y="158" on="0"/>
        <pt x="536" y="113" on="1"/>
        <pt x="536" y="61" on="0"/>
        <pt x="452" y="-4" on="0"/>
        <pt x="377" y="-4" on="1"/>
        <pt x="324" y="-4" on="0"/>
        <pt x="222" y="32" on="0"/>
        <pt x="140" y="107" on="0"/>
        <pt x="88" y="223" on="0"/>
        <pt x="84" y="304" on="1"/>
        <pt x="56" y="306" on="0"/>
        <pt x="23" y="333" on="0"/>
        <pt x="23" y="356" on="1"/>
        <pt x="23" y="372" on="0"/>
        <pt x="36" y="400" on="0"/>
        <pt x="58" y="421" on="0"/>
        <pt x="87" y="433" on="0"/>
        <pt x="103" y="433" on="1"/>
        <pt x="129" y="433" on="0"/>
        <pt x="143" y="424" on="1"/>
        <pt x="143" y="357" on="1"/>
        <pt x="446" y="357" on="1"/>
        <pt x="446" y="527" on="1"/>
        <pt x="-20" y="527" on="1"/>
      </contour>
      <contour>
        <pt x="410" y="166" on="1"/>
        <pt x="368" y="166" on="0"/>
        <pt x="296" y="117" on="0"/>
        <pt x="266" y="75" on="1"/>
        <pt x="287" y="62" on="0"/>
        <pt x="344" y="47" on="0"/>
        <pt x="376" y="47" on="1"/>
        <pt x="422" y="47" on="0"/>
        <pt x="477" y="83" on="0"/>
        <pt x="477" y="113" on="1"/>
        <pt x="477" y="136" on="0"/>
        <pt x="442" y="166" on="0"/>
      </contour>
    </TTGlyph>
    <TTGlyph name="DdhaVirama.gm" xMin="-20" yMin="-257" xMax="613" yMax="577">
      <contour>
        <pt x="-20" y="577" on="1"/>
        <pt x="613" y="577" on="1"/>
        <pt x="613" y="527" on="1"/>
        <pt x="506" y="527" on="1"/>
        <pt x="506" y="305" on="1"/>
        <pt x="144" y="305" on="1"/>
        <pt x="148" y="235" on="0"/>
        <pt x="193" y="135" on="0"/>
        <pt x="223" y="106" on="1"/>
        <pt x="260" y="157" on="0"/>
        <pt x="357" y="215" on="0"/>
        <pt x="414" y="215" on="1"/>
        <pt x="470" y="215" on="0"/>
        <pt x="536" y="158" on="0"/>
        <pt x="536" y="113" on="1"/>
        <pt x="536" y="61" on="0"/>
        <pt x="452" y="-4" on="0"/>
        <pt x="377" y="-4" on="1"/>
        <pt x="324" y="-4" on="0"/>
        <pt x="222" y="32" on="0"/>
        <pt x="140" y="107" on="0"/>
        <pt x="88" y="223" on="0"/>
        <pt x="84" y="304" on="1"/>
        <pt x="56" y="306" on="0"/>
        <pt x="23" y="333" on="0"/>
        <pt x="23" y="356" on="1"/>
        <pt x="23" y="372" on="0"/>
        <pt x="36" y="400" on="0"/>
        <pt x="58" y="421" on="0"/>
        <pt x="87" y="433" on="0"/>
        <pt x="103" y="433" on="1"/>
        <pt x="129" y="433" on="0"/>
        <pt x="143" y="424" on="1"/>
        <pt x="143" y="357" on="1"/>
        <pt x="446" y="357" on="1"/>
        <pt x="446" y="527" on="1"/>
        <pt x="-20" y="527" on="1"/>
      </contour>
      <contour>
        <pt x="410" y="166" on="1"/>
        <pt x="368" y="166" on="0"/>
        <pt x="296" y="117" on="0"/>
        <pt x="266" y="75" on="1"/>
        <pt x="287" y="62" on="0"/>
        <pt x="344" y="47" on="0"/>
        <pt x="376" y="47" on="1"/>
        <pt x="422" y="47" on="0"/>
        <pt x="477" y="83" on="0"/>
        <pt x="477" y="113" on="1"/>
        <pt x="477" y="136" on="0"/>
        <pt x="442" y="166" on="0"/>
      </contour>
      <contour>
        <pt x="576" y="-222" on="1"/>
        <pt x="546" y="-257" on="1"/>
        <pt x="350" y="-105" on="1"/>
        <pt x="386" y="-60" on="1"/>
      </contour>
    </TTGlyph>
    <TTGlyph name="Dha.gm" xMin="-30" yMin="0" xMax="583" yMax="577">
      <contour>
        <pt x="411" y="146" on="1"/>
        <pt x="385" y="128" on="0"/>
        <pt x="313" y="107" on="0"/>
        <pt x="267" y="107" on="1"/>
        <pt x="192" y="107" on="0"/>
        <pt x="78" y="175" on="0"/>
        <pt x="47" y="232" on="1"/>
        <pt x="74" y="277" on="0"/>
        <pt x="111" y="373" on="0"/>
        <pt x="111" y="428" on="1"/>
        <pt x="111" y="456" on="0"/>
        <pt x="100" y="507" on="0"/>
        <pt x="92" y="527" on="1"/>
        <pt x="-30" y="527" on="1"/>
        <pt x="-30" y="577" on="1"/>
        <pt x="583" y="577" on="1"/>
        <pt x="583" y="527" on="1"/>
        <pt x="471" y="527" on="1"/>
        <pt x="471" y="0" on="1"/>
        <pt x="411" y="0" on="1"/>
      </contour>
      <contour>
        <pt x="269" y="159" on="1"/>
        <pt x="318" y="159" on="0"/>
        <pt x="389" y="189" on="0"/>
        <pt x="411" y="212" on="1"/>
        <pt x="411" y="527" on="1"/>
        <pt x="152" y="527" on="1"/>
        <pt x="171" y="472" on="0"/>
        <pt x="171" y="428" on="1"/>
        <pt x="171" y="368" on="0"/>
        <pt x="141" y="276" on="0"/>
        <pt x="116" y="233" on="1"/>
        <pt x="136" y="201" on="0"/>
        <pt x="219" y="159" on="0"/>
      </contour>
    </TTGlyph>
    <TTGlyph name="DhaVirama.gm" xMin="-30" yMin="-257" xMax="640" yMax="577">
      <contour>
        <pt x="411" y="146" on="1"/>
        <pt x="385" y="128" on="0"/>
        <pt x="313" y="107" on="0"/>
        <pt x="267" y="107" on="1"/>
        <pt x="192" y="107" on="0"/>
        <pt x="78" y="175" on="0"/>
        <pt x="47" y="232" on="1"/>
        <pt x="74" y="277" on="0"/>
        <pt x="111" y="373" on="0"/>
        <pt x="111" y="428" on="1"/>
        <pt x="111" y="456" on="0"/>
        <pt x="100" y="507" on="0"/>
        <pt x="92" y="527" on="1"/>
        <pt x="-30" y="527" on="1"/>
        <pt x="-30" y="577" on="1"/>
        <pt x="583" y="577" on="1"/>
        <pt x="583" y="527" on="1"/>
        <pt x="471" y="527" on="1"/>
        <pt x="471" y="0" on="1"/>
        <pt x="411" y="0" on="1"/>
      </contour>
      <contour>
        <pt x="269" y="159" on="1"/>
        <pt x="318" y="159" on="0"/>
        <pt x="389" y="189" on="0"/>
        <pt x="411" y="212" on="1"/>
        <pt x="411" y="527" on="1"/>
        <pt x="152" y="527" on="1"/>
        <pt x="171" y="472" on="0"/>
        <pt x="171" y="428" on="1"/>
        <pt x="171" y="368" on="0"/>
        <pt x="141" y="276" on="0"/>
        <pt x="116" y="233" on="1"/>
        <pt x="136" y="201" on="0"/>
        <pt x="219" y="159" on="0"/>
      </contour>
      <contour>
        <pt x="640" y="-222" on="1"/>
        <pt x="610" y="-257" on="1"/>
        <pt x="414" y="-105" on="1"/>
        <pt x="450" y="-60" on="1"/>
      </contour>
    </TTGlyph>
    <TTGlyph name="Dottedcircle" xMin="10" yMin="-30" xMax="667" yMax="627">
      <contour>
        <pt x="310" y="-2" on="1"/>
        <pt x="310" y="10" on="0"/>
        <pt x="326" y="27" on="0"/>
        <pt x="338" y="27" on="1"/>
        <pt x="350" y="27" on="0"/>
        <pt x="367" y="10" on="0"/>
        <pt x="367" y="-2" on="1"/>
        <pt x="367" y="-14" on="0"/>
        <pt x="350" y="-30" on="0"/>
        <pt x="338" y="-30" on="1"/>
        <pt x="326" y="-30" on="0"/>
        <pt x="310" y="-14" on="0"/>
      </contour>
      <contour>
        <pt x="310" y="598" on="1"/>
        <pt x="310" y="610" on="0"/>
        <pt x="326" y="627" on="0"/>
        <pt x="338" y="627" on="1"/>
        <pt x="350" y="627" on="0"/>
        <pt x="367" y="610" on="0"/>
        <pt x="367" y="598" on="1"/>
        <pt x="367" y="586" on="0"/>
        <pt x="350" y="570" on="0"/>
        <pt x="338" y="570" on="1"/>
        <pt x="326" y="570" on="0"/>
        <pt x="310" y="586" on="0"/>
      </contour>
      <contour>
        <pt x="10" y="298" on="1"/>
        <pt x="10" y="310" on="0"/>
        <pt x="26" y="327" on="0"/>
        <pt x="38" y="327" on="1"/>
        <pt x="50" y="327" on="0"/>
        <pt x="67" y="310" on="0"/>
        <pt x="67" y="298" on="1"/>
        <pt x="67" y="286" on="0"/>
        <pt x="50" y="270" on="0"/>
        <pt x="38" y="270" on="1"/>
        <pt x="26" y="270" on="0"/>
        <pt x="10" y="286" on="0"/>
      </contour>
      <contour>
        <pt x="610" y="298" on="1"/>
        <pt x="610" y="310" on="0"/>
        <pt x="626" y="327" on="0"/>
        <pt x="638" y="327" on="1"/>
        <pt x="650" y="327" on="0"/>
        <pt x="667" y="310" on="0"/>
        <pt x="667" y="298" on="1"/>
        <pt x="667" y="286" on="0"/>
        <pt x="650" y="270" on="0"/>
        <pt x="638" y="270" on="1"/>
        <pt x="626" y="270" on="0"/>
        <pt x="610" y="286" on="0"/>
      </contour>
      <contour>
        <pt x="110" y="498" on="1"/>
        <pt x="110" y="510" on="0"/>
        <pt x="126" y="527" on="0"/>
        <pt x="138" y="527" on="1"/>
        <pt x="150" y="527" on="0"/>
        <pt x="167" y="510" on="0"/>
        <pt x="167" y="498" on="1"/>
        <pt x="167" y="486" on="0"/>
        <pt x="150" y="470" on="0"/>
        <pt x="138" y="470" on="1"/>
        <pt x="126" y="470" on="0"/>
        <pt x="110" y="486" on="0"/>
      </contour>
      <contour>
        <pt x="110" y="98" on="1"/>
        <pt x="110" y="110" on="0"/>
        <pt x="126" y="127" on="0"/>
        <pt x="138" y="127" on="1"/>
        <pt x="150" y="127" on="0"/>
        <pt x="167" y="110" on="0"/>
        <pt x="167" y="98" on="1"/>
        <pt x="167" y="86" on="0"/>
        <pt x="150" y="70" on="0"/>
        <pt x="138" y="70" on="1"/>
        <pt x="126" y="70" on="0"/>
        <pt x="110" y="86" on="0"/>
      </contour>
      <contour>
        <pt x="510" y="98" on="1"/>
        <pt x="510" y="110" on="0"/>
        <pt x="526" y="127" on="0"/>
        <pt x="538" y="127" on="1"/>
        <pt x="550" y="127" on="0"/>
        <pt x="567" y="110" on="0"/>
        <pt x="567" y="98" on="1"/>
        <pt x="567" y="86" on="0"/>
        <pt x="550" y="70" on="0"/>
        <pt x="538" y="70" on="1"/>
        <pt x="526" y="70" on="0"/>
        <pt x="510" y="86" on="0"/>
      </contour>
      <contour>
        <pt x="510" y="498" on="1"/>
        <pt x="510" y="510" on="0"/>
        <pt x="526" y="527" on="0"/>
        <pt x="538" y="527" on="1"/>
        <pt x="550" y="527" on="0"/>
        <pt x="567" y="510" on="0"/>
        <pt x="567" y="498" on="1"/>
        <pt x="567" y="486" on="0"/>
        <pt x="550" y="470" on="0"/>
        <pt x="538" y="470" on="1"/>
        <pt x="526" y="470" on="0"/>
        <pt x="510" y="486" on="0"/>
      </contour>
    </TTGlyph>
    <TTGlyph name="Doubledanda.gm" xMin="110" yMin="0" xMax="364" yMax="582">
      <contour>
        <pt x="110" y="582" on="1"/>
        <pt x="170" y="582" on="1"/>
        <pt x="170" y="0" on="1"/>
        <pt x="110" y="0" on="1"/>
      </contour>
      <contour>
        <pt x="304" y="582" on="1"/>
        <pt x="364" y="582" on="1"/>
        <pt x="364" y="0" on="1"/>
        <pt x="304" y="0" on="1"/>
      </contour>
    </TTGlyph>
    <TTGlyph name="Dsmall" xMin="74" yMin="0" xMax="464" yMax="470">
      <contour>
        <pt x="217" y="470" on="1"/>
        <pt x="265" y="470" on="0"/>
        <pt x="354" y="446" on="0"/>
        <pt x="423" y="392" on="0"/>
        <pt x="464" y="307" on="0"/>
        <pt x="464" y="246" on="1"/>
        <pt x="464" y="182" on="0"/>
        <pt x="425" y="89" on="0"/>
        <pt x="357" y="29" on="0"/>
        <pt x="264" y="0" on="0"/>
        <pt x="211" y="0" on="1"/>
        <pt x="74" y="0" on="1"/>
        <pt x="74" y="470" on="1"/>
      </contour>
      <contour>
        <pt x="142" y="53" on="1"/>
        <pt x="191" y="53" on="1"/>
        <pt x="222" y="53" on="0"/>
        <pt x="294" y="66" on="0"/>
        <pt x="354" y="106" on="0"/>
        <pt x="394" y="181" on="0"/>
        <pt x="394" y="243" on="1"/>
        <pt x="394" y="331" on="0"/>
        <pt x="291" y="416" on="0"/>
        <pt x="191" y="416" on="1"/>
        <pt x="142" y="416" on="1"/>
      </contour>
    </TTGlyph>
    <TTGlyph name="E" xMin="80" yMin="0" xMax="453" yMax="630">
      <contour>
        <pt x="80" y="630" on="1"/>
        <pt x="450" y="630" on="1"/>
        <pt x="450" y="571" on="1"/>
        <pt x="152" y="571" on="1"/>
        <pt x="152" y="355" on="1"/>
        <pt x="424" y="355" on="1"/>
        <pt x="424" y="296" on="1"/>
        <pt x="152" y="296" on="1"/>
        <pt x="152" y="59" on="1"/>
        <pt x="453" y="59" on="1"/>
        <pt x="453" y="0" on="1"/>
        <pt x="80" y="0" on="1"/>
      </contour>
    </TTGlyph>
    <TTGlyph name="Eacute" xMin="80" yMin="0" xMax="453" yMax="834">
      <contour>
        <pt x="80" y="630" on="1"/>
        <pt x="450" y="630" on="1"/>
        <pt x="450" y="571" on="1"/>
        <pt x="152" y="571" on="1"/>
        <pt x="152" y="355" on="1"/>
        <pt x="424" y="355" on="1"/>
        <pt x="424" y="296" on="1"/>
        <pt x="152" y="296" on="1"/>
        <pt x="152" y="59" on="1"/>
        <pt x="453" y="59" on="1"/>
        <pt x="453" y="0" on="1"/>
        <pt x="80" y="0" on="1"/>
      </contour>
      <contour>
        <pt x="257" y="710" on="1"/>
        <pt x="200" y="710" on="1"/>
        <pt x="285" y="834" on="1"/>
        <pt x="368" y="834" on="1"/>
      </contour>
    </TTGlyph>
    <TTGlyph name="Ebreve" xMin="80" yMin="0" xMax="453" yMax="840">
      <contour>
        <pt x="80" y="630" on="1"/>
        <pt x="450" y="630" on="1"/>
        <pt x="450" y="571" on="1"/>
        <pt x="152" y="571" on="1"/>
        <pt x="152" y="355" on="1"/>
        <pt x="424" y="355" on="1"/>
        <pt x="424" y="296" on="1"/>
        <pt x="152" y="296" on="1"/>
        <pt x="152" y="59" on="1"/>
        <pt x="453" y="59" on="1"/>
        <pt x="453" y="0" on="1"/>
        <pt x="80" y="0" on="1"/>
      </contour>
      <contour>
        <pt x="192" y="840" on="1"/>
        <pt x="194" y="805" on="0"/>
        <pt x="228" y="763" on="0"/>
        <pt x="272" y="763" on="1"/>
        <pt x="309" y="763" on="0"/>
        <pt x="348" y="803" on="0"/>
        <pt x="350" y="840" on="1"/>
        <pt x="405" y="840" on="1"/>
        <pt x="405" y="786" on="0"/>
        <pt x="337" y="716" on="0"/>
        <pt x="272" y="716" on="1"/>
        <pt x="236" y="716" on="0"/>
        <pt x="185" y="737" on="0"/>
        <pt x="152" y="771" on="0"/>
        <pt x="136" y="816" on="0"/>
        <pt x="136" y="840" on="1"/>
      </contour>
    </TTGlyph>
    <TTGlyph name="Ecaron" xMin="80" yMin="0" xMax="453" yMax="845">
      <contour>
        <pt x="80" y="630" on="1"/>
        <pt x="450" y="630" on="1"/>
        <pt x="450" y="571" on="1"/>
        <pt x="152" y="571" on="1"/>
        <pt x="152" y="355" on="1"/>
        <pt x="424" y="355" on="1"/>
        <pt x="424" y="296" on="1"/>
        <pt x="152" y="296" on="1"/>
        <pt x="152" y="59" on="1"/>
        <pt x="453" y="59" on="1"/>
        <pt x="453" y="0" on="1"/>
        <pt x="80" y="0" on="1"/>
      </contour>
      <contour>
        <pt x="121" y="845" on="1"/>
        <pt x="189" y="845" on="1"/>
        <pt x="273" y="752" on="1"/>
        <pt x="358" y="845" on="1"/>
        <pt x="427" y="845" on="1"/>
        <pt x="302" y="711" on="1"/>
        <pt x="243" y="711" on="1"/>
      </contour>
    </TTGlyph>
    <TTGlyph name="Ecircumflex" xMin="80" yMin="0" xMax="453" yMax="844">
      <contour>
        <pt x="80" y="630" on="1"/>
        <pt x="450" y="630" on="1"/>
        <pt x="450" y="571" on="1"/>
        <pt x="152" y="571" on="1"/>
        <pt x="152" y="355" on="1"/>
        <pt x="424" y="355" on="1"/>
        <pt x="424" y="296" on="1"/>
        <pt x="152" y="296" on="1"/>
        <pt x="152" y="59" on="1"/>
        <pt x="453" y="59" on="1"/>
        <pt x="453" y="0" on="1"/>
        <pt x="80" y="0" on="1"/>
      </contour>
      <contour>
        <pt x="234" y="844" on="1"/>
        <pt x="293" y="844" on="1"/>
        <pt x="418" y="710" on="1"/>
        <pt x="348" y="710" on="1"/>
        <pt x="263" y="801" on="1"/>
        <pt x="178" y="710" on="1"/>
        <pt x="112" y="710" on="1"/>
      </contour>
    </TTGlyph>
    <TTGlyph name="Edieresis" xMin="80" yMin="0" xMax="453" yMax="810">
      <contour>
        <pt x="80" y="630" on="1"/>
        <pt x="450" y="630" on="1"/>
        <pt x="450" y="571" on="1"/>
        <pt x="152" y="571" on="1"/>
        <pt x="152" y="355" on="1"/>
        <pt x="424" y="355" on="1"/>
        <pt x="424" y="296" on="1"/>
        <pt x="152" y="296" on="1"/>
        <pt x="152" y="59" on="1"/>
        <pt x="453" y="59" on="1"/>
        <pt x="453" y="0" on="1"/>
        <pt x="80" y="0" on="1"/>
      </contour>
      <contour>
        <pt x="139" y="763" on="1"/>
        <pt x="139" y="783" on="0"/>
        <pt x="165" y="810" on="0"/>
        <pt x="184" y="810" on="1"/>
        <pt x="202" y="810" on="0"/>
        <pt x="229" y="783" on="0"/>
        <pt x="229" y="763" on="1"/>
        <pt x="229" y="743" on="0"/>
        <pt x="202" y="716" on="0"/>
        <pt x="184" y="716" on="1"/>
        <pt x="165" y="716" on="0"/>
        <pt x="139" y="743" on="0"/>
      </contour>
      <contour>
        <pt x="307" y="763" on="1"/>
        <pt x="307" y="783" on="0"/>
        <pt x="333" y="810" on="0"/>
        <pt x="352" y="810" on="1"/>
        <pt x="370" y="810" on="0"/>
        <pt x="397" y="783" on="0"/>
        <pt x="397" y="763" on="1"/>
        <pt x="397" y="743" on="0"/>
        <pt x="370" y="716" on="0"/>
        <pt x="352" y="716" on="1"/>
        <pt x="333" y="716" on="0"/>
        <pt x="307" y="743" on="0"/>
      </contour>
    </TTGlyph>
    <TTGlyph name="Edotaccent" xMin="80" yMin="0" xMax="453" yMax="822">
      <contour>
        <pt x="80" y="630" on="1"/>
        <pt x="450" y="630" on="1"/>
        <pt x="450" y="571" on="1"/>
        <pt x="152" y="571" on="1"/>
        <pt x="152" y="355" on="1"/>
        <pt x="424" y="355" on="1"/>
        <pt x="424" y="296" on="1"/>
        <pt x="152" y="296" on="1"/>
        <pt x="152" y="59" on="1"/>
        <pt x="453" y="59" on="1"/>
        <pt x="453" y="0" on="1"/>
        <pt x="80" y="0" on="1"/>
      </contour>
      <contour>
        <pt x="226" y="772" on="1"/>
        <pt x="226" y="792" on="0"/>
        <pt x="254" y="822" on="0"/>
        <pt x="274" y="822" on="1"/>
        <pt x="294" y="822" on="0"/>
        <pt x="322" y="792" on="0"/>
        <pt x="322" y="772" on="1"/>
        <pt x="322" y="750" on="0"/>
        <pt x="294" y="722" on="0"/>
        <pt x="274" y="722" on="1"/>
        <pt x="254" y="722" on="0"/>
        <pt x="226" y="750" on="0"/>
      </contour>
    </TTGlyph>
    <TTGlyph name="Egrave" xMin="80" yMin="0" xMax="453" yMax="834">
      <contour>
        <pt x="80" y="630" on="1"/>
        <pt x="450" y="630" on="1"/>
        <pt x="450" y="571" on="1"/>
        <pt x="152" y="571" on="1"/>
        <pt x="152" y="355" on="1"/>
        <pt x="424" y="355" on="1"/>
        <pt x="424" y="296" on="1"/>
        <pt x="152" y="296" on="1"/>
        <pt x="152" y="59" on="1"/>
        <pt x="453" y="59" on="1"/>
        <pt x="453" y="0" on="1"/>
        <pt x="80" y="0" on="1"/>
      </contour>
      <contour>
        <pt x="180" y="834" on="1"/>
        <pt x="263" y="834" on="1"/>
        <pt x="348" y="710" on="1"/>
        <pt x="291" y="710" on="1"/>
      </contour>
    </TTGlyph>
    <TTGlyph name="Eight.gm" xMin="17" yMin="-3" xMax="514" yMax="521">
      <contour>
        <pt x="514" y="45" on="1"/>
        <pt x="491" y="26" on="0"/>
        <pt x="420" y="-3" on="0"/>
        <pt x="366" y="-3" on="1"/>
        <pt x="311" y="-3" on="0"/>
        <pt x="207" y="35" on="0"/>
        <pt x="127" y="123" on="0"/>
        <pt x="79" y="269" on="0"/>
        <pt x="79" y="376" on="1"/>
        <pt x="79" y="393" on="1"/>
        <pt x="50" y="395" on="0"/>
        <pt x="17" y="420" on="0"/>
        <pt x="17" y="445" on="1"/>
        <pt x="17" y="460" on="0"/>
        <pt x="31" y="487" on="0"/>
        <pt x="53" y="508" on="0"/>
        <pt x="83" y="521" on="0"/>
        <pt x="99" y="521" on="1"/>
        <pt x="113" y="521" on="0"/>
        <pt x="132" y="516" on="0"/>
        <pt x="139" y="512" on="1"/>
        <pt x="139" y="445" on="1"/>
        <pt x="486" y="445" on="1"/>
        <pt x="486" y="393" on="1"/>
        <pt x="139" y="393" on="1"/>
        <pt x="139" y="380" on="1"/>
        <pt x="139" y="284" on="0"/>
        <pt x="178" y="156" on="0"/>
        <pt x="243" y="80" on="0"/>
        <pt x="324" y="49" on="0"/>
        <pt x="366" y="49" on="1"/>
        <pt x="409" y="49" on="0"/>
        <pt x="465" y="73" on="0"/>
        <pt x="485" y="87" on="1"/>
      </contour>
    </TTGlyph>
    <TTGlyph name="EkOnkar.gm" xMin="52" yMin="0" xMax="1290" yMax="867">
      <contour>
        <pt x="913" y="621" on="1"/>
        <pt x="896" y="676" on="0"/>
        <pt x="818" y="738" on="0"/>
        <pt x="762" y="738" on="1"/>
        <pt x="693" y="738" on="0"/>
        <pt x="604" y="649" on="0"/>
        <pt x="584" y="577" on="1"/>
        <pt x="1071" y="577" on="1"/>
        <pt x="1071" y="527" on="1"/>
        <pt x="979" y="527" on="1"/>
        <pt x="978" y="482" on="0"/>
        <pt x="954" y="410" on="0"/>
        <pt x="916" y="355" on="0"/>
        <pt x="869" y="317" on="0"/>
        <pt x="844" y="307" on="1"/>
        <pt x="885" y="290" on="0"/>
        <pt x="937" y="212" on="0"/>
        <pt x="937" y="160" on="1"/>
        <pt x="937" y="84" on="0"/>
        <pt x="835" y="0" on="0"/>
        <pt x="753" y="0" on="1"/>
        <pt x="704" y="0" on="0"/>
        <pt x="613" y="36" on="0"/>
        <pt x="544" y="124" on="0"/>
        <pt x="502" y="269" on="0"/>
        <pt x="502" y="379" on="1"/>
        <pt x="502" y="497" on="0"/>
        <pt x="546" y="655" on="0"/>
        <pt x="619" y="750" on="0"/>
        <pt x="713" y="790" on="0"/>
        <pt x="763" y="790" on="1"/>
        <pt x="797" y="790" on="0"/>
        <pt x="854" y="772" on="0"/>
        <pt x="899" y="741" on="0"/>
        <pt x="931" y="702" on="0"/>
        <pt x="942" y="681" on="1"/>
        <pt x="956" y="727" on="0"/>
        <pt x="1027" y="765" on="0"/>
        <pt x="1075" y="770" on="1"/>
        <pt x="1143" y="777" on="1"/>
        <pt x="1191" y="782" on="0"/>
        <pt x="1239" y="819" on="0"/>
        <pt x="1244" y="867" on="1"/>
        <pt x="1290" y="867" on="1"/>
        <pt x="1290" y="861" on="1"/>
        <pt x="1290" y="793" on="0"/>
        <pt x="1220" y="731" on="0"/>
        <pt x="1154" y="724" on="1"/>
        <pt x="1086" y="717" on="1"/>
        <pt x="1032" y="711" on="0"/>
        <pt x="985" y="673" on="0"/>
        <pt x="977" y="631" on="1"/>
        <pt x="975" y="621" on="1"/>
      </contour>
      <contour>
        <pt x="52" y="423" on="1"/>
        <pt x="52" y="461" on="0"/>
        <pt x="79" y="521" on="0"/>
        <pt x="124" y="562" on="0"/>
        <pt x="184" y="584" on="0"/>
        <pt x="217" y="584" on="1"/>
        <pt x="252" y="584" on="0"/>
        <pt x="310" y="562" on="0"/>
        <pt x="352" y="523" on="0"/>
        <pt x="375" y="468" on="0"/>
        <pt x="375" y="435" on="1"/>
        <pt x="375" y="104" on="1"/>
        <pt x="375" y="73" on="0"/>
        <pt x="405" y="50" on="0"/>
        <pt x="429" y="50" on="1"/>
        <pt x="440" y="50" on="1"/>
        <pt x="438" y="1" on="1"/>
        <pt x="434" y="0" on="0"/>
        <pt x="423" y="0" on="0"/>
        <pt x="421" y="0" on="1"/>
        <pt x="315" y="0" on="0"/>
        <pt x="315" y="112" on="1"/>
        <pt x="315" y="292" on="1"/>
        <pt x="301" y="280" on="0"/>
        <pt x="251" y="264" on="0"/>
        <pt x="216" y="264" on="1"/>
        <pt x="185" y="264" on="0"/>
        <pt x="126" y="284" on="0"/>
        <pt x="80" y="323" on="0"/>
        <pt x="52" y="383" on="0"/>
      </contour>
      <contour>
        <pt x="748" y="337" on="1"/>
        <pt x="785" y="337" on="0"/>
        <pt x="846" y="366" on="0"/>
        <pt x="891" y="417" on="0"/>
        <pt x="917" y="486" on="0"/>
        <pt x="919" y="527" on="1"/>
        <pt x="575" y="527" on="1"/>
        <pt x="569" y="493" on="0"/>
        <pt x="562" y="412" on="0"/>
        <pt x="562" y="370" on="1"/>
        <pt x="562" y="362" on="0"/>
        <pt x="562" y="345" on="0"/>
        <pt x="563" y="337" on="1"/>
      </contour>
      <contour>
        <pt x="877" y="161" on="1"/>
        <pt x="877" y="186" on="0"/>
        <pt x="859" y="232" on="0"/>
        <pt x="825" y="266" on="0"/>
        <pt x="778" y="286" on="0"/>
        <pt x="748" y="286" on="1"/>
        <pt x="567" y="286" on="1"/>
        <pt x="571" y="233" on="0"/>
        <pt x="599" y="147" on="0"/>
        <pt x="646" y="86" on="0"/>
        <pt x="712" y="52" on="0"/>
        <pt x="755" y="52" on="1"/>
        <pt x="809" y="52" on="0"/>
        <pt x="877" y="109" on="0"/>
      </contour>
      <contour>
        <pt x="112" y="424" on="1"/>
        <pt x="112" y="396" on="0"/>
        <pt x="130" y="356" on="0"/>
        <pt x="160" y="329" on="0"/>
        <pt x="198" y="316" on="0"/>
        <pt x="219" y="316" on="1"/>
        <pt x="253" y="316" on="0"/>
        <pt x="302" y="335" on="0"/>
        <pt x="318" y="352" on="1"/>
        <pt x="318" y="434" on="1"/>
        <pt x="318" y="476" on="0"/>
        <pt x="265" y="532" on="0"/>
        <pt x="217" y="532" on="1"/>
        <pt x="170" y="532" on="0"/>
        <pt x="112" y="472" on="0"/>
      </contour>
    </TTGlyph>
    <TTGlyph name="Ek_Type" xMin="100" yMin="-312" xMax="1089" yMax="636">
      <contour>
        <pt x="800" y="531" on="1"/>
        <pt x="800" y="403" on="1"/>
        <pt x="814" y="421" on="0"/>
        <pt x="867" y="447" on="0"/>
        <pt x="902" y="447" on="1"/>
        <pt x="977" y="447" on="0"/>
        <pt x="1062" y="351" on="0"/>
        <pt x="1062" y="266" on="1"/>
        <pt x="1062" y="224" on="0"/>
        <pt x="1037" y="156" on="0"/>
        <pt x="991" y="107" on="0"/>
        <pt x="925" y="81" on="0"/>
        <pt x="885" y="81" on="1"/>
        <pt x="876" y="81" on="0"/>
        <pt x="852" y="84" on="0"/>
        <pt x="841" y="87" on="1"/>
        <pt x="854" y="184" on="1"/>
        <pt x="869" y="184" on="1"/>
        <pt x="927" y="184" on="0"/>
        <pt x="927" y="266" on="1"/>
        <pt x="927" y="301" on="0"/>
        <pt x="894" y="340" on="0"/>
        <pt x="865" y="340" on="1"/>
        <pt x="836" y="340" on="0"/>
        <pt x="807" y="299" on="0"/>
        <pt x="803" y="276" on="1"/>
        <pt x="803" y="0" on="1"/>
        <pt x="672" y="0" on="1"/>
        <pt x="672" y="113" on="1"/>
        <pt x="657" y="95" on="0"/>
        <pt x="603" y="74" on="0"/>
        <pt x="579" y="74" on="1"/>
        <pt x="549" y="74" on="0"/>
        <pt x="489" y="94" on="0"/>
        <pt x="441" y="139" on="0"/>
        <pt x="411" y="211" on="0"/>
        <pt x="411" y="263" on="1"/>
        <pt x="411" y="352" on="0"/>
        <pt x="493" y="447" on="0"/>
        <pt x="568" y="447" on="1"/>
        <pt x="600" y="447" on="0"/>
        <pt x="654" y="428" on="0"/>
        <pt x="672" y="411" on="1"/>
        <pt x="672" y="531" on="1"/>
        <pt x="330" y="531" on="1"/>
        <pt x="330" y="50" on="1"/>
        <pt x="549" y="-40" on="0"/>
        <pt x="818" y="-164" on="0"/>
        <pt x="883" y="-197" on="1"/>
        <pt x="822" y="-312" on="1"/>
        <pt x="778" y="-291" on="0"/>
        <pt x="661" y="-235" on="0"/>
        <pt x="507" y="-163" on="0"/>
        <pt x="314" y="-73" on="0"/>
        <pt x="195" y="-18" on="1"/>
        <pt x="195" y="531" on="1"/>
        <pt x="100" y="531" on="1"/>
        <pt x="100" y="636" on="1"/>
        <pt x="1089" y="636" on="1"/>
        <pt x="1089" y="531" on="1"/>
      </contour>
      <contour>
        <pt x="675" y="309" on="1"/>
        <pt x="665" y="320" on="0"/>
        <pt x="633" y="338" on="0"/>
        <pt x="613" y="338" on="1"/>
        <pt x="584" y="338" on="0"/>
        <pt x="548" y="297" on="0"/>
        <pt x="548" y="262" on="1"/>
        <pt x="548" y="225" on="0"/>
        <pt x="582" y="182" on="0"/>
        <pt x="611" y="182" on="1"/>
        <pt x="667" y="182" on="0"/>
        <pt x="675" y="236" on="1"/>
      </contour>
    </TTGlyph>
    <TTGlyph name="Emacron" xMin="80" yMin="0" xMax="453" yMax="772">
      <contour>
        <pt x="80" y="630" on="1"/>
        <pt x="450" y="630" on="1"/>
        <pt x="450" y="571" on="1"/>
        <pt x="152" y="571" on="1"/>
        <pt x="152" y="355" on="1"/>
        <pt x="424" y="355" on="1"/>
        <pt x="424" y="296" on="1"/>
        <pt x="152" y="296" on="1"/>
        <pt x="152" y="59" on="1"/>
        <pt x="453" y="59" on="1"/>
        <pt x="453" y="0" on="1"/>
        <pt x="80" y="0" on="1"/>
      </contour>
      <contour>
        <pt x="390" y="772" on="1"/>
        <pt x="390" y="720" on="1"/>
        <pt x="145" y="720" on="1"/>
        <pt x="145" y="772" on="1"/>
      </contour>
    </TTGlyph>
    <TTGlyph name="Eng" xMin="80" yMin="-228" xMax="563" yMax="630">
      <contour>
        <pt x="241" y="385" on="1"/>
        <pt x="144" y="570" on="1"/>
        <pt x="141" y="570" on="1"/>
        <pt x="150" y="366" on="1"/>
        <pt x="150" y="0" on="1"/>
        <pt x="80" y="0" on="1"/>
        <pt x="80" y="630" on="1"/>
        <pt x="175" y="630" on="1"/>
        <pt x="416" y="228" on="1"/>
        <pt x="497" y="77" on="1"/>
        <pt x="499" y="77" on="1"/>
        <pt x="493" y="246" on="1"/>
        <pt x="493" y="630" on="1"/>
        <pt x="563" y="630" on="1"/>
        <pt x="563" y="61" on="1"/>
        <pt x="563" y="5" on="0"/>
        <pt x="550" y="-83" on="0"/>
        <pt x="515" y="-153" on="0"/>
        <pt x="457" y="-207" on="0"/>
        <pt x="412" y="-228" on="1"/>
        <pt x="379" y="-174" on="1"/>
        <pt x="434" y="-146" on="0"/>
        <pt x="486" y="-75" on="0"/>
        <pt x="491" y="-16" on="1"/>
      </contour>
    </TTGlyph>
    <TTGlyph name="Eogonek" xMin="80" yMin="-206" xMax="479" yMax="630">
      <contour>
        <pt x="453" y="0" on="1"/>
        <pt x="405" y="-19" on="0"/>
        <pt x="351" y="-69" on="0"/>
        <pt x="351" y="-101" on="1"/>
        <pt x="351" y="-127" on="0"/>
        <pt x="386" y="-156" on="0"/>
        <pt x="415" y="-156" on="1"/>
        <pt x="446" y="-156" on="0"/>
        <pt x="468" y="-146" on="1"/>
        <pt x="479" y="-185" on="1"/>
        <pt x="444" y="-206" on="0"/>
        <pt x="399" y="-206" on="1"/>
        <pt x="353" y="-206" on="0"/>
        <pt x="292" y="-156" on="0"/>
        <pt x="292" y="-109" on="1"/>
        <pt x="292" y="-71" on="0"/>
        <pt x="339" y="-16" on="0"/>
        <pt x="373" y="-2" on="1"/>
        <pt x="373" y="0" on="1"/>
        <pt x="80" y="0" on="1"/>
        <pt x="80" y="630" on="1"/>
        <pt x="450" y="630" on="1"/>
        <pt x="450" y="571" on="1"/>
        <pt x="152" y="571" on="1"/>
        <pt x="152" y="355" on="1"/>
        <pt x="424" y="355" on="1"/>
        <pt x="424" y="296" on="1"/>
        <pt x="152" y="296" on="1"/>
        <pt x="152" y="59" on="1"/>
        <pt x="453" y="59" on="1"/>
      </contour>
    </TTGlyph>
    <TTGlyph name="Esmall" xMin="74" yMin="0" xMax="378" yMax="470">
      <contour>
        <pt x="74" y="470" on="1"/>
        <pt x="376" y="470" on="1"/>
        <pt x="376" y="417" on="1"/>
        <pt x="141" y="417" on="1"/>
        <pt x="141" y="269" on="1"/>
        <pt x="356" y="269" on="1"/>
        <pt x="356" y="217" on="1"/>
        <pt x="141" y="217" on="1"/>
        <pt x="141" y="53" on="1"/>
        <pt x="378" y="53" on="1"/>
        <pt x="378" y="0" on="1"/>
        <pt x="74" y="0" on="1"/>
      </contour>
    </TTGlyph>
    <TTGlyph name="Eth" xMin="30" yMin="0" xMax="606" yMax="630">
      <contour>
        <pt x="305" y="630" on="1"/>
        <pt x="369" y="630" on="0"/>
        <pt x="480" y="592" on="0"/>
        <pt x="560" y="517" on="0"/>
        <pt x="606" y="404" on="0"/>
        <pt x="606" y="329" on="1"/>
        <pt x="606" y="238" on="0"/>
        <pt x="552" y="112" on="0"/>
        <pt x="460" y="34" on="0"/>
        <pt x="338" y="0" on="0"/>
        <pt x="270" y="0" on="1"/>
        <pt x="110" y="0" on="1"/>
        <pt x="110" y="303" on="1"/>
        <pt x="30" y="303" on="1"/>
        <pt x="30" y="355" on="1"/>
        <pt x="110" y="355" on="1"/>
        <pt x="110" y="630" on="1"/>
      </contour>
      <contour>
        <pt x="330" y="355" on="1"/>
        <pt x="330" y="303" on="1"/>
        <pt x="182" y="303" on="1"/>
        <pt x="182" y="59" on="1"/>
        <pt x="261" y="59" on="1"/>
        <pt x="311" y="59" on="0"/>
        <pt x="407" y="82" on="0"/>
        <pt x="483" y="143" on="0"/>
        <pt x="529" y="248" on="0"/>
        <pt x="529" y="329" on="1"/>
        <pt x="529" y="387" on="0"/>
        <pt x="494" y="477" on="0"/>
        <pt x="431" y="539" on="0"/>
        <pt x="341" y="571" on="0"/>
        <pt x="287" y="571" on="1"/>
        <pt x="182" y="571" on="1"/>
        <pt x="182" y="355" on="1"/>
      </contour>
    </TTGlyph>
    <TTGlyph name="Euro" xMin="5" yMin="-8" xMax="485" yMax="593">
      <contour>
        <pt x="338" y="46" on="1"/>
        <pt x="380" y="46" on="0"/>
        <pt x="440" y="63" on="0"/>
        <pt x="466" y="76" on="1"/>
        <pt x="482" y="22" on="1"/>
        <pt x="451" y="8" on="0"/>
        <pt x="382" y="-8" on="0"/>
        <pt x="329" y="-8" on="1"/>
        <pt x="281" y="-8" on="0"/>
        <pt x="195" y="20" on="0"/>
        <pt x="128" y="75" on="0"/>
        <pt x="81" y="158" on="0"/>
        <pt x="72" y="212" on="1"/>
        <pt x="5" y="212" on="1"/>
        <pt x="5" y="255" on="1"/>
        <pt x="66" y="255" on="1"/>
        <pt x="65" y="270" on="0"/>
        <pt x="65" y="286" on="0"/>
        <pt x="65" y="294" on="1"/>
        <pt x="65" y="315" on="1"/>
        <pt x="5" y="315" on="1"/>
        <pt x="5" y="358" on="1"/>
        <pt x="72" y="358" on="1"/>
        <pt x="88" y="470" on="0"/>
        <pt x="224" y="593" on="0"/>
        <pt x="331" y="593" on="1"/>
        <pt x="359" y="593" on="0"/>
        <pt x="402" y="589" on="0"/>
        <pt x="438" y="580" on="0"/>
        <pt x="470" y="568" on="0"/>
        <pt x="485" y="560" on="1"/>
        <pt x="469" y="508" on="1"/>
        <pt x="436" y="524" on="0"/>
        <pt x="377" y="538" on="0"/>
        <pt x="341" y="538" on="1"/>
        <pt x="305" y="538" on="0"/>
        <pt x="238" y="516" on="0"/>
        <pt x="184" y="472" on="0"/>
        <pt x="146" y="404" on="0"/>
        <pt x="140" y="358" on="1"/>
        <pt x="415" y="358" on="1"/>
        <pt x="415" y="315" on="1"/>
        <pt x="135" y="315" on="1"/>
        <pt x="135" y="298" on="1"/>
        <pt x="135" y="288" on="0"/>
        <pt x="135" y="268" on="0"/>
        <pt x="136" y="255" on="1"/>
        <pt x="415" y="255" on="1"/>
        <pt x="415" y="212" on="1"/>
        <pt x="142" y="212" on="1"/>
        <pt x="150" y="167" on="0"/>
        <pt x="188" y="103" on="0"/>
        <pt x="241" y="64" on="0"/>
        <pt x="305" y="46" on="0"/>
      </contour>
    </TTGlyph>
    <TTGlyph name="Euro.lat" xMin="5" yMin="-9" xMax="521" yMax="638">
      <contour>
        <pt x="363" y="50" on="1"/>
        <pt x="408" y="50" on="0"/>
        <pt x="472" y="68" on="0"/>
        <pt x="501" y="82" on="1"/>
        <pt x="518" y="24" on="1"/>
        <pt x="485" y="8" on="0"/>
        <pt x="411" y="-9" on="0"/>
        <pt x="354" y="-9" on="1"/>
        <pt x="302" y="-9" on="0"/>
        <pt x="210" y="21" on="0"/>
        <pt x="137" y="81" on="0"/>
        <pt x="87" y="169" on="0"/>
        <pt x="77" y="228" on="1"/>
        <pt x="5" y="228" on="1"/>
        <pt x="5" y="274" on="1"/>
        <pt x="71" y="274" on="1"/>
        <pt x="70" y="291" on="0"/>
        <pt x="70" y="307" on="0"/>
        <pt x="70" y="316" on="1"/>
        <pt x="70" y="339" on="1"/>
        <pt x="5" y="339" on="1"/>
        <pt x="5" y="385" on="1"/>
        <pt x="77" y="385" on="1"/>
        <pt x="94" y="505" on="0"/>
        <pt x="241" y="638" on="0"/>
        <pt x="356" y="638" on="1"/>
        <pt x="415" y="638" on="0"/>
        <pt x="488" y="619" on="0"/>
        <pt x="521" y="602" on="1"/>
        <pt x="504" y="546" on="1"/>
        <pt x="469" y="563" on="0"/>
        <pt x="405" y="579" on="0"/>
        <pt x="367" y="579" on="1"/>
        <pt x="328" y="579" on="0"/>
        <pt x="256" y="555" on="0"/>
        <pt x="197" y="507" on="0"/>
        <pt x="157" y="434" on="0"/>
        <pt x="151" y="385" on="1"/>
        <pt x="446" y="385" on="1"/>
        <pt x="446" y="339" on="1"/>
        <pt x="145" y="339" on="1"/>
        <pt x="145" y="320" on="1"/>
        <pt x="145" y="309" on="0"/>
        <pt x="145" y="288" on="0"/>
        <pt x="146" y="274" on="1"/>
        <pt x="446" y="274" on="1"/>
        <pt x="446" y="228" on="1"/>
        <pt x="153" y="228" on="1"/>
        <pt x="161" y="179" on="0"/>
        <pt x="202" y="111" on="0"/>
        <pt x="259" y="69" on="0"/>
        <pt x="327" y="50" on="0"/>
      </contour>
    </TTGlyph>
    <TTGlyph name="F" xMin="80" yMin="0" xMax="440" yMax="630">
      <contour>
        <pt x="440" y="630" on="1"/>
        <pt x="440" y="571" on="1"/>
        <pt x="152" y="571" on="1"/>
        <pt x="152" y="343" on="1"/>
        <pt x="418" y="343" on="1"/>
        <pt x="418" y="285" on="1"/>
        <pt x="152" y="285" on="1"/>
        <pt x="152" y="0" on="1"/>
        <pt x="80" y="0" on="1"/>
        <pt x="80" y="630" on="1"/>
      </contour>
    </TTGlyph>
    <TTGlyph name="Fa.gm" xMin="-20" yMin="-57" xMax="574" yMax="577">
      <contour>
        <pt x="-20" y="577" on="1"/>
        <pt x="574" y="577" on="1"/>
        <pt x="574" y="527" on="1"/>
        <pt x="465" y="527" on="1"/>
        <pt x="465" y="347" on="1"/>
        <pt x="228" y="347" on="1"/>
        <pt x="174" y="347" on="0"/>
        <pt x="112" y="292" on="0"/>
        <pt x="112" y="237" on="1"/>
        <pt x="112" y="195" on="0"/>
        <pt x="148" y="127" on="0"/>
        <pt x="172" y="107" on="1"/>
        <pt x="211" y="166" on="0"/>
        <pt x="312" y="230" on="0"/>
        <pt x="369" y="230" on="1"/>
        <pt x="426" y="230" on="0"/>
        <pt x="496" y="169" on="0"/>
        <pt x="496" y="121" on="1"/>
        <pt x="496" y="69" on="0"/>
        <pt x="413" y="-4" on="0"/>
        <pt x="329" y="-4" on="1"/>
        <pt x="276" y="-4" on="0"/>
        <pt x="176" y="30" on="0"/>
        <pt x="98" y="93" on="0"/>
        <pt x="51" y="183" on="0"/>
        <pt x="51" y="239" on="1"/>
        <pt x="51" y="315" on="0"/>
        <pt x="143" y="399" on="0"/>
        <pt x="220" y="399" on="1"/>
        <pt x="405" y="399" on="1"/>
        <pt x="405" y="527" on="1"/>
        <pt x="-20" y="527" on="1"/>
      </contour>
      <contour>
        <pt x="368" y="180" on="1"/>
        <pt x="289" y="180" on="0"/>
        <pt x="216" y="74" on="1"/>
        <pt x="235" y="64" on="0"/>
        <pt x="295" y="48" on="0"/>
        <pt x="330" y="48" on="1"/>
        <pt x="380" y="48" on="0"/>
        <pt x="435" y="87" on="0"/>
        <pt x="435" y="121" on="1"/>
        <pt x="435" y="149" on="0"/>
        <pt x="397" y="180" on="0"/>
      </contour>
      <contour>
        <pt x="7" y="-13" on="1"/>
        <pt x="7" y="5" on="0"/>
        <pt x="33" y="33" on="0"/>
        <pt x="53" y="33" on="1"/>
        <pt x="73" y="33" on="0"/>
        <pt x="100" y="5" on="0"/>
        <pt x="100" y="-13" on="1"/>
        <pt x="100" y="-31" on="0"/>
        <pt x="73" y="-57" on="0"/>
        <pt x="53" y="-57" on="1"/>
        <pt x="33" y="-57" on="0"/>
        <pt x="7" y="-31" on="0"/>
      </contour>
    </TTGlyph>
    <TTGlyph name="FaVirama.gm" xMin="-20" yMin="-257" xMax="599" yMax="577">
      <contour>
        <pt x="-20" y="577" on="1"/>
        <pt x="574" y="577" on="1"/>
        <pt x="574" y="527" on="1"/>
        <pt x="465" y="527" on="1"/>
        <pt x="465" y="347" on="1"/>
        <pt x="228" y="347" on="1"/>
        <pt x="174" y="347" on="0"/>
        <pt x="112" y="292" on="0"/>
        <pt x="112" y="237" on="1"/>
        <pt x="112" y="195" on="0"/>
        <pt x="148" y="127" on="0"/>
        <pt x="172" y="107" on="1"/>
        <pt x="211" y="166" on="0"/>
        <pt x="312" y="230" on="0"/>
        <pt x="369" y="230" on="1"/>
        <pt x="426" y="230" on="0"/>
        <pt x="496" y="169" on="0"/>
        <pt x="496" y="121" on="1"/>
        <pt x="496" y="69" on="0"/>
        <pt x="413" y="-4" on="0"/>
        <pt x="329" y="-4" on="1"/>
        <pt x="276" y="-4" on="0"/>
        <pt x="176" y="30" on="0"/>
        <pt x="98" y="93" on="0"/>
        <pt x="51" y="183" on="0"/>
        <pt x="51" y="239" on="1"/>
        <pt x="51" y="315" on="0"/>
        <pt x="143" y="399" on="0"/>
        <pt x="220" y="399" on="1"/>
        <pt x="405" y="399" on="1"/>
        <pt x="405" y="527" on="1"/>
        <pt x="-20" y="527" on="1"/>
      </contour>
      <contour>
        <pt x="368" y="180" on="1"/>
        <pt x="289" y="180" on="0"/>
        <pt x="216" y="74" on="1"/>
        <pt x="235" y="64" on="0"/>
        <pt x="295" y="48" on="0"/>
        <pt x="330" y="48" on="1"/>
        <pt x="380" y="48" on="0"/>
        <pt x="435" y="87" on="0"/>
        <pt x="435" y="121" on="1"/>
        <pt x="435" y="149" on="0"/>
        <pt x="397" y="180" on="0"/>
      </contour>
      <contour>
        <pt x="14" y="-13" on="1"/>
        <pt x="14" y="5" on="0"/>
        <pt x="40" y="33" on="0"/>
        <pt x="60" y="33" on="1"/>
        <pt x="80" y="33" on="0"/>
        <pt x="107" y="5" on="0"/>
        <pt x="107" y="-13" on="1"/>
        <pt x="107" y="-31" on="0"/>
        <pt x="80" y="-57" on="0"/>
        <pt x="60" y="-57" on="1"/>
        <pt x="40" y="-57" on="0"/>
        <pt x="14" y="-31" on="0"/>
      </contour>
      <contour>
        <pt x="599" y="-222" on="1"/>
        <pt x="569" y="-257" on="1"/>
        <pt x="373" y="-105" on="1"/>
        <pt x="409" y="-60" on="1"/>
      </contour>
    </TTGlyph>
    <TTGlyph name="Five.gm" xMin="41" yMin="0" xMax="460" yMax="584">
      <contour>
        <pt x="400" y="161" on="1"/>
        <pt x="376" y="144" on="0"/>
        <pt x="306" y="122" on="0"/>
        <pt x="258" y="122" on="1"/>
        <pt x="181" y="122" on="0"/>
        <pt x="69" y="194" on="0"/>
        <pt x="41" y="247" on="1"/>
        <pt x="69" y="293" on="0"/>
        <pt x="103" y="379" on="0"/>
        <pt x="103" y="432" on="1"/>
        <pt x="103" y="472" on="0"/>
        <pt x="83" y="543" on="0"/>
        <pt x="73" y="562" on="1"/>
        <pt x="125" y="584" on="1"/>
        <pt x="144" y="548" on="0"/>
        <pt x="164" y="465" on="0"/>
        <pt x="164" y="431" on="1"/>
        <pt x="164" y="373" on="0"/>
        <pt x="133" y="286" on="0"/>
        <pt x="110" y="248" on="1"/>
        <pt x="131" y="214" on="0"/>
        <pt x="213" y="174" on="0"/>
        <pt x="260" y="174" on="1"/>
        <pt x="308" y="174" on="0"/>
        <pt x="377" y="203" on="0"/>
        <pt x="400" y="227" on="1"/>
        <pt x="400" y="579" on="1"/>
        <pt x="460" y="579" on="1"/>
        <pt x="460" y="0" on="1"/>
        <pt x="400" y="0" on="1"/>
      </contour>
    </TTGlyph>
    <TTGlyph name="Four.gm" xMin="60" yMin="-3" xMax="485" yMax="582">
      <contour>
        <pt x="272" y="324" on="1"/>
        <pt x="304" y="329" on="0"/>
        <pt x="360" y="349" on="0"/>
        <pt x="401" y="378" on="0"/>
        <pt x="425" y="417" on="0"/>
        <pt x="425" y="441" on="1"/>
        <pt x="425" y="462" on="0"/>
        <pt x="410" y="493" on="0"/>
        <pt x="387" y="515" on="0"/>
        <pt x="360" y="529" on="0"/>
        <pt x="347" y="535" on="1"/>
        <pt x="367" y="582" on="1"/>
        <pt x="418" y="567" on="0"/>
        <pt x="485" y="498" on="0"/>
        <pt x="485" y="441" on="1"/>
        <pt x="485" y="411" on="0"/>
        <pt x="462" y="364" on="0"/>
        <pt x="426" y="330" on="0"/>
        <pt x="382" y="306" on="0"/>
        <pt x="360" y="300" on="1"/>
        <pt x="413" y="280" on="0"/>
        <pt x="474" y="205" on="0"/>
        <pt x="474" y="153" on="1"/>
        <pt x="474" y="118" on="0"/>
        <pt x="446" y="61" on="0"/>
        <pt x="393" y="20" on="0"/>
        <pt x="318" y="-3" on="0"/>
        <pt x="271" y="-3" on="1"/>
        <pt x="226" y="-3" on="0"/>
        <pt x="152" y="19" on="0"/>
        <pt x="99" y="60" on="0"/>
        <pt x="70" y="118" on="0"/>
        <pt x="70" y="154" on="1"/>
        <pt x="70" y="209" on="0"/>
        <pt x="131" y="281" on="0"/>
        <pt x="181" y="299" on="1"/>
        <pt x="156" y="306" on="0"/>
        <pt x="112" y="333" on="0"/>
        <pt x="79" y="369" on="0"/>
        <pt x="60" y="416" on="0"/>
        <pt x="60" y="444" on="1"/>
        <pt x="60" y="475" on="0"/>
        <pt x="81" y="522" on="0"/>
        <pt x="114" y="556" on="0"/>
        <pt x="154" y="577" on="0"/>
        <pt x="174" y="582" on="1"/>
        <pt x="193" y="535" on="1"/>
        <pt x="164" y="524" on="0"/>
        <pt x="121" y="481" on="0"/>
        <pt x="121" y="440" on="1"/>
        <pt x="121" y="395" on="0"/>
        <pt x="203" y="334" on="0"/>
      </contour>
      <contour>
        <pt x="273" y="279" on="1"/>
        <pt x="208" y="268" on="0"/>
        <pt x="131" y="207" on="0"/>
        <pt x="131" y="157" on="1"/>
        <pt x="131" y="131" on="0"/>
        <pt x="153" y="91" on="0"/>
        <pt x="191" y="64" on="0"/>
        <pt x="244" y="49" on="0"/>
        <pt x="274" y="49" on="1"/>
        <pt x="341" y="49" on="0"/>
        <pt x="414" y="109" on="0"/>
        <pt x="414" y="156" on="1"/>
        <pt x="414" y="206" on="0"/>
        <pt x="335" y="268" on="0"/>
      </contour>
    </TTGlyph>
    <TTGlyph name="Fsmall" xMin="74" yMin="0" xMax="362" yMax="470">
      <contour>
        <pt x="362" y="470" on="1"/>
        <pt x="362" y="417" on="1"/>
        <pt x="142" y="417" on="1"/>
        <pt x="142" y="260" on="1"/>
        <pt x="344" y="260" on="1"/>
        <pt x="344" y="207" on="1"/>
        <pt x="142" y="207" on="1"/>
        <pt x="142" y="0" on="1"/>
        <pt x="74" y="0" on="1"/>
        <pt x="74" y="470" on="1"/>
      </contour>
    </TTGlyph>
    <TTGlyph name="G" xMin="45" yMin="-9" xMax="541" yMax="638">
      <contour>
        <pt x="351" y="638" on="1"/>
        <pt x="405" y="638" on="0"/>
        <pt x="489" y="622" on="0"/>
        <pt x="527" y="602" on="1"/>
        <pt x="509" y="545" on="1"/>
        <pt x="474" y="562" on="0"/>
        <pt x="401" y="580" on="0"/>
        <pt x="362" y="580" on="1"/>
        <pt x="314" y="580" on="0"/>
        <pt x="227" y="552" on="0"/>
        <pt x="161" y="489" on="0"/>
        <pt x="121" y="387" on="0"/>
        <pt x="121" y="314" on="1"/>
        <pt x="121" y="251" on="0"/>
        <pt x="155" y="152" on="0"/>
        <pt x="218" y="85" on="0"/>
        <pt x="304" y="50" on="0"/>
        <pt x="357" y="50" on="1"/>
        <pt x="395" y="50" on="0"/>
        <pt x="452" y="60" on="0"/>
        <pt x="472" y="68" on="1"/>
        <pt x="472" y="268" on="1"/>
        <pt x="345" y="268" on="1"/>
        <pt x="345" y="324" on="1"/>
        <pt x="541" y="324" on="1"/>
        <pt x="541" y="25" on="1"/>
        <pt x="504" y="10" on="0"/>
        <pt x="417" y="-9" on="0"/>
        <pt x="354" y="-9" on="1"/>
        <pt x="290" y="-9" on="0"/>
        <pt x="178" y="33" on="0"/>
        <pt x="94" y="115" on="0"/>
        <pt x="45" y="235" on="0"/>
        <pt x="45" y="314" on="1"/>
        <pt x="45" y="393" on="0"/>
        <pt x="91" y="515" on="0"/>
        <pt x="173" y="596" on="0"/>
        <pt x="285" y="638" on="0"/>
      </contour>
    </TTGlyph>
    <TTGlyph name="Ga.gm" xMin="-20" yMin="-3" xMax="737" yMax="577">
      <contour>
        <pt x="-20" y="577" on="1"/>
        <pt x="737" y="577" on="1"/>
        <pt x="737" y="527" on="1"/>
        <pt x="624" y="527" on="1"/>
        <pt x="624" y="0" on="1"/>
        <pt x="564" y="0" on="1"/>
        <pt x="564" y="527" on="1"/>
        <pt x="397" y="527" on="1"/>
        <pt x="397" y="121" on="1"/>
        <pt x="397" y="61" on="0"/>
        <pt x="322" y="-3" on="0"/>
        <pt x="256" y="-3" on="1"/>
        <pt x="212" y="-3" on="0"/>
        <pt x="135" y="31" on="0"/>
        <pt x="76" y="92" on="0"/>
        <pt x="42" y="174" on="0"/>
        <pt x="42" y="222" on="1"/>
        <pt x="42" y="290" on="0"/>
        <pt x="120" y="366" on="0"/>
        <pt x="186" y="366" on="1"/>
        <pt x="337" y="366" on="1"/>
        <pt x="337" y="527" on="1"/>
        <pt x="-20" y="527" on="1"/>
      </contour>
      <contour>
        <pt x="256" y="49" on="1"/>
        <pt x="294" y="49" on="0"/>
        <pt x="337" y="85" on="0"/>
        <pt x="337" y="127" on="1"/>
        <pt x="337" y="314" on="1"/>
        <pt x="199" y="314" on="1"/>
        <pt x="151" y="314" on="0"/>
        <pt x="103" y="264" on="0"/>
        <pt x="103" y="221" on="1"/>
        <pt x="103" y="183" on="0"/>
        <pt x="129" y="120" on="0"/>
        <pt x="173" y="74" on="0"/>
        <pt x="227" y="49" on="0"/>
      </contour>
    </TTGlyph>
    <TTGlyph name="GaVirama.gm" xMin="-20" yMin="-257" xMax="792" yMax="577">
      <contour>
        <pt x="-20" y="577" on="1"/>
        <pt x="737" y="577" on="1"/>
        <pt x="737" y="527" on="1"/>
        <pt x="624" y="527" on="1"/>
        <pt x="624" y="0" on="1"/>
        <pt x="564" y="0" on="1"/>
        <pt x="564" y="527" on="1"/>
        <pt x="397" y="527" on="1"/>
        <pt x="397" y="121" on="1"/>
        <pt x="397" y="61" on="0"/>
        <pt x="322" y="-3" on="0"/>
        <pt x="256" y="-3" on="1"/>
        <pt x="212" y="-3" on="0"/>
        <pt x="135" y="31" on="0"/>
        <pt x="76" y="92" on="0"/>
        <pt x="42" y="174" on="0"/>
        <pt x="42" y="222" on="1"/>
        <pt x="42" y="290" on="0"/>
        <pt x="120" y="366" on="0"/>
        <pt x="186" y="366" on="1"/>
        <pt x="337" y="366" on="1"/>
        <pt x="337" y="527" on="1"/>
        <pt x="-20" y="527" on="1"/>
      </contour>
      <contour>
        <pt x="256" y="49" on="1"/>
        <pt x="294" y="49" on="0"/>
        <pt x="337" y="85" on="0"/>
        <pt x="337" y="127" on="1"/>
        <pt x="337" y="314" on="1"/>
        <pt x="199" y="314" on="1"/>
        <pt x="151" y="314" on="0"/>
        <pt x="103" y="264" on="0"/>
        <pt x="103" y="221" on="1"/>
        <pt x="103" y="183" on="0"/>
        <pt x="129" y="120" on="0"/>
        <pt x="173" y="74" on="0"/>
        <pt x="227" y="49" on="0"/>
      </contour>
      <contour>
        <pt x="792" y="-222" on="1"/>
        <pt x="762" y="-257" on="1"/>
        <pt x="566" y="-105" on="1"/>
        <pt x="602" y="-60" on="1"/>
      </contour>
    </TTGlyph>
    <TTGlyph name="Gbreve" xMin="45" yMin="-9" xMax="541" yMax="846">
      <contour>
        <pt x="351" y="638" on="1"/>
        <pt x="405" y="638" on="0"/>
        <pt x="489" y="622" on="0"/>
        <pt x="527" y="602" on="1"/>
        <pt x="509" y="545" on="1"/>
        <pt x="474" y="562" on="0"/>
        <pt x="401" y="580" on="0"/>
        <pt x="362" y="580" on="1"/>
        <pt x="314" y="580" on="0"/>
        <pt x="227" y="552" on="0"/>
        <pt x="161" y="489" on="0"/>
        <pt x="121" y="387" on="0"/>
        <pt x="121" y="314" on="1"/>
        <pt x="121" y="251" on="0"/>
        <pt x="155" y="152" on="0"/>
        <pt x="218" y="85" on="0"/>
        <pt x="304" y="50" on="0"/>
        <pt x="357" y="50" on="1"/>
        <pt x="395" y="50" on="0"/>
        <pt x="452" y="60" on="0"/>
        <pt x="472" y="68" on="1"/>
        <pt x="472" y="268" on="1"/>
        <pt x="345" y="268" on="1"/>
        <pt x="345" y="324" on="1"/>
        <pt x="541" y="324" on="1"/>
        <pt x="541" y="25" on="1"/>
        <pt x="504" y="10" on="0"/>
        <pt x="417" y="-9" on="0"/>
        <pt x="354" y="-9" on="1"/>
        <pt x="290" y="-9" on="0"/>
        <pt x="178" y="33" on="0"/>
        <pt x="94" y="115" on="0"/>
        <pt x="45" y="235" on="0"/>
        <pt x="45" y="314" on="1"/>
        <pt x="45" y="393" on="0"/>
        <pt x="91" y="515" on="0"/>
        <pt x="173" y="596" on="0"/>
        <pt x="285" y="638" on="0"/>
      </contour>
      <contour>
        <pt x="274" y="846" on="1"/>
        <pt x="276" y="811" on="0"/>
        <pt x="310" y="769" on="0"/>
        <pt x="354" y="769" on="1"/>
        <pt x="391" y="769" on="0"/>
        <pt x="430" y="809" on="0"/>
        <pt x="432" y="846" on="1"/>
        <pt x="487" y="846" on="1"/>
        <pt x="487" y="792" on="0"/>
        <pt x="419" y="722" on="0"/>
        <pt x="354" y="722" on="1"/>
        <pt x="318" y="722" on="0"/>
        <pt x="267" y="743" on="0"/>
        <pt x="234" y="777" on="0"/>
        <pt x="218" y="822" on="0"/>
        <pt x="218" y="846" on="1"/>
      </contour>
    </TTGlyph>
    <TTGlyph name="Gcircumflex" xMin="45" yMin="-9" xMax="541" yMax="844">
      <contour>
        <pt x="351" y="638" on="1"/>
        <pt x="405" y="638" on="0"/>
        <pt x="489" y="622" on="0"/>
        <pt x="527" y="602" on="1"/>
        <pt x="509" y="545" on="1"/>
        <pt x="474" y="562" on="0"/>
        <pt x="401" y="580" on="0"/>
        <pt x="362" y="580" on="1"/>
        <pt x="314" y="580" on="0"/>
        <pt x="227" y="552" on="0"/>
        <pt x="161" y="489" on="0"/>
        <pt x="121" y="387" on="0"/>
        <pt x="121" y="314" on="1"/>
        <pt x="121" y="251" on="0"/>
        <pt x="155" y="152" on="0"/>
        <pt x="218" y="85" on="0"/>
        <pt x="304" y="50" on="0"/>
        <pt x="357" y="50" on="1"/>
        <pt x="395" y="50" on="0"/>
        <pt x="452" y="60" on="0"/>
        <pt x="472" y="68" on="1"/>
        <pt x="472" y="268" on="1"/>
        <pt x="345" y="268" on="1"/>
        <pt x="345" y="324" on="1"/>
        <pt x="541" y="324" on="1"/>
        <pt x="541" y="25" on="1"/>
        <pt x="504" y="10" on="0"/>
        <pt x="417" y="-9" on="0"/>
        <pt x="354" y="-9" on="1"/>
        <pt x="290" y="-9" on="0"/>
        <pt x="178" y="33" on="0"/>
        <pt x="94" y="115" on="0"/>
        <pt x="45" y="235" on="0"/>
        <pt x="45" y="314" on="1"/>
        <pt x="45" y="393" on="0"/>
        <pt x="91" y="515" on="0"/>
        <pt x="173" y="596" on="0"/>
        <pt x="285" y="638" on="0"/>
      </contour>
      <contour>
        <pt x="315" y="844" on="1"/>
        <pt x="374" y="844" on="1"/>
        <pt x="499" y="710" on="1"/>
        <pt x="429" y="710" on="1"/>
        <pt x="344" y="801" on="1"/>
        <pt x="259" y="710" on="1"/>
        <pt x="193" y="710" on="1"/>
      </contour>
    </TTGlyph>
    <TTGlyph name="Gcommaaccent" xMin="45" yMin="-310" xMax="541" yMax="638">
      <contour>
        <pt x="351" y="638" on="1"/>
        <pt x="405" y="638" on="0"/>
        <pt x="489" y="622" on="0"/>
        <pt x="527" y="602" on="1"/>
        <pt x="509" y="545" on="1"/>
        <pt x="473" y="562" on="0"/>
        <pt x="402" y="580" on="0"/>
        <pt x="362" y="580" on="1"/>
        <pt x="314" y="580" on="0"/>
        <pt x="227" y="552" on="0"/>
        <pt x="161" y="489" on="0"/>
        <pt x="121" y="387" on="0"/>
        <pt x="121" y="314" on="1"/>
        <pt x="121" y="251" on="0"/>
        <pt x="155" y="152" on="0"/>
        <pt x="218" y="85" on="0"/>
        <pt x="304" y="50" on="0"/>
        <pt x="357" y="50" on="1"/>
        <pt x="395" y="50" on="0"/>
        <pt x="452" y="60" on="0"/>
        <pt x="472" y="68" on="1"/>
        <pt x="472" y="268" on="1"/>
        <pt x="345" y="268" on="1"/>
        <pt x="345" y="324" on="1"/>
        <pt x="541" y="324" on="1"/>
        <pt x="541" y="25" on="1"/>
        <pt x="504" y="10" on="0"/>
        <pt x="417" y="-9" on="0"/>
        <pt x="354" y="-9" on="1"/>
        <pt x="290" y="-9" on="0"/>
        <pt x="178" y="33" on="0"/>
        <pt x="94" y="115" on="0"/>
        <pt x="45" y="235" on="0"/>
        <pt x="45" y="314" on="1"/>
        <pt x="45" y="393" on="0"/>
        <pt x="91" y="515" on="0"/>
        <pt x="173" y="596" on="0"/>
        <pt x="285" y="638" on="0"/>
      </contour>
      <contour>
        <pt x="342" y="-184" on="1"/>
        <pt x="326" y="-181" on="0"/>
        <pt x="297" y="-155" on="0"/>
        <pt x="297" y="-131" on="1"/>
        <pt x="297" y="-110" on="0"/>
        <pt x="324" y="-81" on="0"/>
        <pt x="347" y="-81" on="1"/>
        <pt x="357" y="-81" on="0"/>
        <pt x="378" y="-89" on="0"/>
        <pt x="395" y="-107" on="0"/>
        <pt x="406" y="-136" on="0"/>
        <pt x="406" y="-158" on="1"/>
        <pt x="406" y="-181" on="0"/>
        <pt x="390" y="-225" on="0"/>
        <pt x="362" y="-265" on="0"/>
        <pt x="324" y="-299" on="0"/>
        <pt x="303" y="-310" on="1"/>
        <pt x="280" y="-279" on="1"/>
        <pt x="309" y="-263" on="0"/>
        <pt x="350" y="-212" on="0"/>
        <pt x="354" y="-187" on="1"/>
      </contour>
    </TTGlyph>
    <TTGlyph name="Gdotaccent" xMin="45" yMin="-9" xMax="541" yMax="822">
      <contour>
        <pt x="351" y="638" on="1"/>
        <pt x="405" y="638" on="0"/>
        <pt x="489" y="622" on="0"/>
        <pt x="527" y="602" on="1"/>
        <pt x="509" y="545" on="1"/>
        <pt x="474" y="562" on="0"/>
        <pt x="401" y="580" on="0"/>
        <pt x="362" y="580" on="1"/>
        <pt x="314" y="580" on="0"/>
        <pt x="227" y="552" on="0"/>
        <pt x="161" y="489" on="0"/>
        <pt x="121" y="387" on="0"/>
        <pt x="121" y="314" on="1"/>
        <pt x="121" y="251" on="0"/>
        <pt x="155" y="152" on="0"/>
        <pt x="218" y="85" on="0"/>
        <pt x="304" y="50" on="0"/>
        <pt x="357" y="50" on="1"/>
        <pt x="395" y="50" on="0"/>
        <pt x="452" y="60" on="0"/>
        <pt x="472" y="68" on="1"/>
        <pt x="472" y="268" on="1"/>
        <pt x="345" y="268" on="1"/>
        <pt x="345" y="324" on="1"/>
        <pt x="541" y="324" on="1"/>
        <pt x="541" y="25" on="1"/>
        <pt x="504" y="10" on="0"/>
        <pt x="417" y="-9" on="0"/>
        <pt x="354" y="-9" on="1"/>
        <pt x="290" y="-9" on="0"/>
        <pt x="178" y="33" on="0"/>
        <pt x="94" y="115" on="0"/>
        <pt x="45" y="235" on="0"/>
        <pt x="45" y="314" on="1"/>
        <pt x="45" y="393" on="0"/>
        <pt x="91" y="515" on="0"/>
        <pt x="173" y="596" on="0"/>
        <pt x="285" y="638" on="0"/>
      </contour>
      <contour>
        <pt x="304" y="772" on="1"/>
        <pt x="304" y="792" on="0"/>
        <pt x="332" y="822" on="0"/>
        <pt x="352" y="822" on="1"/>
        <pt x="372" y="822" on="0"/>
        <pt x="400" y="792" on="0"/>
        <pt x="400" y="772" on="1"/>
        <pt x="400" y="750" on="0"/>
        <pt x="372" y="722" on="0"/>
        <pt x="352" y="722" on="1"/>
        <pt x="332" y="722" on="0"/>
        <pt x="304" y="750" on="0"/>
      </contour>
    </TTGlyph>
    <TTGlyph name="Gha.gm" xMin="-30" yMin="0" xMax="728" yMax="581">
      <contour>
        <pt x="130" y="577" on="1"/>
        <pt x="144" y="551" on="0"/>
        <pt x="170" y="470" on="0"/>
        <pt x="170" y="428" on="1"/>
        <pt x="170" y="397" on="0"/>
        <pt x="162" y="345" on="0"/>
        <pt x="148" y="299" on="0"/>
        <pt x="129" y="255" on="0"/>
        <pt x="118" y="233" on="1"/>
        <pt x="129" y="205" on="0"/>
        <pt x="188" y="166" on="0"/>
        <pt x="226" y="166" on="1"/>
        <pt x="263" y="166" on="0"/>
        <pt x="322" y="204" on="0"/>
        <pt x="325" y="235" on="1"/>
        <pt x="319" y="572" on="1"/>
        <pt x="334" y="581" on="0"/>
        <pt x="350" y="581" on="1"/>
        <pt x="364" y="581" on="0"/>
        <pt x="383" y="565" on="0"/>
        <pt x="384" y="545" on="1"/>
        <pt x="384" y="539" on="0"/>
        <pt x="383" y="492" on="0"/>
        <pt x="383" y="428" on="0"/>
        <pt x="381" y="355" on="0"/>
        <pt x="381" y="289" on="0"/>
        <pt x="380" y="238" on="0"/>
        <pt x="380" y="229" on="1"/>
        <pt x="385" y="203" on="0"/>
        <pt x="438" y="168" on="0"/>
        <pt x="476" y="168" on="1"/>
        <pt x="503" y="168" on="0"/>
        <pt x="545" y="188" on="0"/>
        <pt x="556" y="205" on="1"/>
        <pt x="556" y="577" on="1"/>
        <pt x="728" y="577" on="1"/>
        <pt x="728" y="527" on="1"/>
        <pt x="616" y="527" on="1"/>
        <pt x="616" y="0" on="1"/>
        <pt x="556" y="0" on="1"/>
        <pt x="556" y="141" on="1"/>
        <pt x="523" y="116" on="0"/>
        <pt x="473" y="116" on="1"/>
        <pt x="435" y="116" on="0"/>
        <pt x="371" y="149" on="0"/>
        <pt x="353" y="176" on="1"/>
        <pt x="335" y="148" on="0"/>
        <pt x="267" y="114" on="0"/>
        <pt x="222" y="114" on="1"/>
        <pt x="161" y="114" on="0"/>
        <pt x="70" y="176" on="0"/>
        <pt x="50" y="232" on="1"/>
        <pt x="81" y="288" on="0"/>
        <pt x="109" y="379" on="0"/>
        <pt x="109" y="433" on="1"/>
        <pt x="109" y="461" on="0"/>
        <pt x="98" y="509" on="0"/>
        <pt x="91" y="527" on="1"/>
        <pt x="-30" y="527" on="1"/>
        <pt x="-30" y="577" on="1"/>
        <pt x="130" y="577" on="1"/>
      </contour>
    </TTGlyph>
    <TTGlyph name="GhaVirama.gm" xMin="-30" yMin="-257" xMax="771" yMax="581">
      <contour>
        <pt x="130" y="577" on="1"/>
        <pt x="144" y="551" on="0"/>
        <pt x="170" y="470" on="0"/>
        <pt x="170" y="428" on="1"/>
        <pt x="170" y="397" on="0"/>
        <pt x="162" y="345" on="0"/>
        <pt x="148" y="299" on="0"/>
        <pt x="129" y="255" on="0"/>
        <pt x="118" y="233" on="1"/>
        <pt x="129" y="205" on="0"/>
        <pt x="188" y="166" on="0"/>
        <pt x="226" y="166" on="1"/>
        <pt x="263" y="166" on="0"/>
        <pt x="322" y="204" on="0"/>
        <pt x="325" y="235" on="1"/>
        <pt x="319" y="572" on="1"/>
        <pt x="334" y="581" on="0"/>
        <pt x="350" y="581" on="1"/>
        <pt x="364" y="581" on="0"/>
        <pt x="383" y="565" on="0"/>
        <pt x="384" y="545" on="1"/>
        <pt x="384" y="539" on="0"/>
        <pt x="383" y="492" on="0"/>
        <pt x="383" y="428" on="0"/>
        <pt x="381" y="355" on="0"/>
        <pt x="381" y="289" on="0"/>
        <pt x="380" y="238" on="0"/>
        <pt x="380" y="229" on="1"/>
        <pt x="385" y="203" on="0"/>
        <pt x="438" y="168" on="0"/>
        <pt x="476" y="168" on="1"/>
        <pt x="503" y="168" on="0"/>
        <pt x="545" y="188" on="0"/>
        <pt x="556" y="205" on="1"/>
        <pt x="556" y="577" on="1"/>
        <pt x="728" y="577" on="1"/>
        <pt x="728" y="527" on="1"/>
        <pt x="616" y="527" on="1"/>
        <pt x="616" y="0" on="1"/>
        <pt x="556" y="0" on="1"/>
        <pt x="556" y="141" on="1"/>
        <pt x="523" y="116" on="0"/>
        <pt x="473" y="116" on="1"/>
        <pt x="435" y="116" on="0"/>
        <pt x="371" y="149" on="0"/>
        <pt x="353" y="176" on="1"/>
        <pt x="335" y="148" on="0"/>
        <pt x="267" y="114" on="0"/>
        <pt x="222" y="114" on="1"/>
        <pt x="161" y="114" on="0"/>
        <pt x="70" y="176" on="0"/>
        <pt x="50" y="232" on="1"/>
        <pt x="81" y="288" on="0"/>
        <pt x="109" y="379" on="0"/>
        <pt x="109" y="433" on="1"/>
        <pt x="109" y="461" on="0"/>
        <pt x="98" y="509" on="0"/>
        <pt x="91" y="527" on="1"/>
        <pt x="-30" y="527" on="1"/>
        <pt x="-30" y="577" on="1"/>
      </contour>
      <contour>
        <pt x="771" y="-222" on="1"/>
        <pt x="741" y="-257" on="1"/>
        <pt x="545" y="-105" on="1"/>
        <pt x="581" y="-60" on="1"/>
      </contour>
    </TTGlyph>
    <TTGlyph name="Ghha.gm" xMin="-32" yMin="-57" xMax="732" yMax="577">
      <contour>
        <pt x="-32" y="577" on="1"/>
        <pt x="732" y="577" on="1"/>
        <pt x="732" y="527" on="1"/>
        <pt x="619" y="527" on="1"/>
        <pt x="619" y="0" on="1"/>
        <pt x="559" y="0" on="1"/>
        <pt x="559" y="527" on="1"/>
        <pt x="392" y="527" on="1"/>
        <pt x="392" y="121" on="1"/>
        <pt x="392" y="61" on="0"/>
        <pt x="317" y="-3" on="0"/>
        <pt x="251" y="-3" on="1"/>
        <pt x="207" y="-3" on="0"/>
        <pt x="130" y="31" on="0"/>
        <pt x="71" y="92" on="0"/>
        <pt x="37" y="174" on="0"/>
        <pt x="37" y="222" on="1"/>
        <pt x="37" y="290" on="0"/>
        <pt x="115" y="366" on="0"/>
        <pt x="181" y="366" on="1"/>
        <pt x="332" y="366" on="1"/>
        <pt x="332" y="527" on="1"/>
        <pt x="-32" y="527" on="1"/>
      </contour>
      <contour>
        <pt x="251" y="49" on="1"/>
        <pt x="289" y="49" on="0"/>
        <pt x="332" y="85" on="0"/>
        <pt x="332" y="127" on="1"/>
        <pt x="332" y="314" on="1"/>
        <pt x="194" y="314" on="1"/>
        <pt x="146" y="314" on="0"/>
        <pt x="98" y="264" on="0"/>
        <pt x="98" y="221" on="1"/>
        <pt x="98" y="183" on="0"/>
        <pt x="124" y="120" on="0"/>
        <pt x="168" y="74" on="0"/>
        <pt x="222" y="49" on="0"/>
      </contour>
      <contour>
        <pt x="-15" y="-13" on="1"/>
        <pt x="-15" y="5" on="0"/>
        <pt x="11" y="33" on="0"/>
        <pt x="31" y="33" on="1"/>
        <pt x="51" y="33" on="0"/>
        <pt x="78" y="5" on="0"/>
        <pt x="78" y="-13" on="1"/>
        <pt x="78" y="-31" on="0"/>
        <pt x="51" y="-57" on="0"/>
        <pt x="31" y="-57" on="1"/>
        <pt x="11" y="-57" on="0"/>
        <pt x="-15" y="-31" on="0"/>
      </contour>
    </TTGlyph>
    <TTGlyph name="GhhaVirama.gm" xMin="-32" yMin="-257" xMax="804" yMax="577">
      <contour>
        <pt x="-32" y="577" on="1"/>
        <pt x="732" y="577" on="1"/>
        <pt x="732" y="527" on="1"/>
        <pt x="619" y="527" on="1"/>
        <pt x="619" y="0" on="1"/>
        <pt x="559" y="0" on="1"/>
        <pt x="559" y="527" on="1"/>
        <pt x="392" y="527" on="1"/>
        <pt x="392" y="121" on="1"/>
        <pt x="392" y="61" on="0"/>
        <pt x="317" y="-3" on="0"/>
        <pt x="251" y="-3" on="1"/>
        <pt x="207" y="-3" on="0"/>
        <pt x="130" y="31" on="0"/>
        <pt x="71" y="92" on="0"/>
        <pt x="37" y="174" on="0"/>
        <pt x="37" y="222" on="1"/>
        <pt x="37" y="290" on="0"/>
        <pt x="115" y="366" on="0"/>
        <pt x="181" y="366" on="1"/>
        <pt x="332" y="366" on="1"/>
        <pt x="332" y="527" on="1"/>
        <pt x="-32" y="527" on="1"/>
      </contour>
      <contour>
        <pt x="251" y="49" on="1"/>
        <pt x="289" y="49" on="0"/>
        <pt x="332" y="85" on="0"/>
        <pt x="332" y="127" on="1"/>
        <pt x="332" y="314" on="1"/>
        <pt x="194" y="314" on="1"/>
        <pt x="146" y="314" on="0"/>
        <pt x="98" y="264" on="0"/>
        <pt x="98" y="221" on="1"/>
        <pt x="98" y="183" on="0"/>
        <pt x="124" y="120" on="0"/>
        <pt x="168" y="74" on="0"/>
        <pt x="222" y="49" on="0"/>
      </contour>
      <contour>
        <pt x="804" y="-222" on="1"/>
        <pt x="774" y="-257" on="1"/>
        <pt x="578" y="-105" on="1"/>
        <pt x="614" y="-60" on="1"/>
      </contour>
      <contour>
        <pt x="-15" y="-13" on="1"/>
        <pt x="-15" y="5" on="0"/>
        <pt x="11" y="33" on="0"/>
        <pt x="31" y="33" on="1"/>
        <pt x="51" y="33" on="0"/>
        <pt x="78" y="5" on="0"/>
        <pt x="78" y="-13" on="1"/>
        <pt x="78" y="-31" on="0"/>
        <pt x="51" y="-57" on="0"/>
        <pt x="31" y="-57" on="1"/>
        <pt x="11" y="-57" on="0"/>
        <pt x="-15" y="-31" on="0"/>
      </contour>
    </TTGlyph>
    <TTGlyph name="Gsmall" xMin="42" yMin="-9" xMax="437" yMax="476">
      <contour>
        <pt x="294" y="44" on="1"/>
        <pt x="316" y="44" on="0"/>
        <pt x="362" y="51" on="0"/>
        <pt x="379" y="57" on="1"/>
        <pt x="379" y="195" on="1"/>
        <pt x="273" y="195" on="1"/>
        <pt x="273" y="245" on="1"/>
        <pt x="437" y="245" on="1"/>
        <pt x="437" y="19" on="1"/>
        <pt x="407" y="5" on="0"/>
        <pt x="330" y="-9" on="0"/>
        <pt x="289" y="-9" on="1"/>
        <pt x="237" y="-9" on="0"/>
        <pt x="147" y="21" on="0"/>
        <pt x="80" y="82" on="0"/>
        <pt x="42" y="173" on="0"/>
        <pt x="42" y="234" on="1"/>
        <pt x="42" y="290" on="0"/>
        <pt x="78" y="380" on="0"/>
        <pt x="143" y="443" on="0"/>
        <pt x="233" y="476" on="0"/>
        <pt x="288" y="476" on="1"/>
        <pt x="319" y="476" on="0"/>
        <pt x="387" y="468" on="0"/>
        <pt x="421" y="454" on="1"/>
        <pt x="406" y="402" on="1"/>
        <pt x="381" y="413" on="0"/>
        <pt x="326" y="423" on="0"/>
        <pt x="295" y="423" on="1"/>
        <pt x="211" y="423" on="0"/>
        <pt x="112" y="326" on="0"/>
        <pt x="112" y="237" on="1"/>
        <pt x="112" y="182" on="0"/>
        <pt x="143" y="108" on="0"/>
        <pt x="194" y="63" on="0"/>
        <pt x="259" y="44" on="0"/>
      </contour>
    </TTGlyph>
    <TTGlyph name="H" xMin="80" yMin="0" xMax="543" yMax="630">
      <contour>
        <pt x="80" y="0" on="1"/>
        <pt x="80" y="630" on="1"/>
        <pt x="152" y="630" on="1"/>
        <pt x="152" y="356" on="1"/>
        <pt x="471" y="356" on="1"/>
        <pt x="471" y="630" on="1"/>
        <pt x="543" y="630" on="1"/>
        <pt x="543" y="0" on="1"/>
        <pt x="471" y="0" on="1"/>
        <pt x="471" y="296" on="1"/>
        <pt x="152" y="296" on="1"/>
        <pt x="152" y="0" on="1"/>
      </contour>
    </TTGlyph>
    <TTGlyph name="Ha.gm" xMin="-20" yMin="-4" xMax="555" yMax="577">
      <contour>
        <pt x="-20" y="577" on="1"/>
        <pt x="555" y="577" on="1"/>
        <pt x="555" y="527" on="1"/>
        <pt x="448" y="527" on="1"/>
        <pt x="448" y="148" on="1"/>
        <pt x="448" y="70" on="0"/>
        <pt x="359" y="-4" on="0"/>
        <pt x="282" y="-4" on="1"/>
        <pt x="235" y="-4" on="0"/>
        <pt x="148" y="31" on="0"/>
        <pt x="82" y="93" on="0"/>
        <pt x="43" y="177" on="0"/>
        <pt x="43" y="226" on="1"/>
        <pt x="43" y="260" on="0"/>
        <pt x="66" y="311" on="0"/>
        <pt x="105" y="343" on="0"/>
        <pt x="156" y="359" on="0"/>
        <pt x="183" y="359" on="1"/>
        <pt x="249" y="359" on="1"/>
        <pt x="249" y="307" on="1"/>
        <pt x="192" y="307" on="1"/>
        <pt x="152" y="307" on="0"/>
        <pt x="104" y="265" on="0"/>
        <pt x="104" y="223" on="1"/>
        <pt x="104" y="185" on="0"/>
        <pt x="136" y="121" on="0"/>
        <pt x="187" y="75" on="0"/>
        <pt x="252" y="48" on="0"/>
        <pt x="285" y="48" on="1"/>
        <pt x="331" y="48" on="0"/>
        <pt x="388" y="95" on="0"/>
        <pt x="388" y="148" on="1"/>
        <pt x="388" y="527" on="1"/>
        <pt x="-20" y="527" on="1"/>
      </contour>
    </TTGlyph>
    <TTGlyph name="HaVirama.gm" xMin="-20" yMin="-257" xMax="576" yMax="577">
      <contour>
        <pt x="-20" y="577" on="1"/>
        <pt x="555" y="577" on="1"/>
        <pt x="555" y="527" on="1"/>
        <pt x="448" y="527" on="1"/>
        <pt x="448" y="148" on="1"/>
        <pt x="448" y="70" on="0"/>
        <pt x="359" y="-4" on="0"/>
        <pt x="282" y="-4" on="1"/>
        <pt x="235" y="-4" on="0"/>
        <pt x="148" y="31" on="0"/>
        <pt x="82" y="93" on="0"/>
        <pt x="43" y="177" on="0"/>
        <pt x="43" y="226" on="1"/>
        <pt x="43" y="260" on="0"/>
        <pt x="66" y="311" on="0"/>
        <pt x="105" y="343" on="0"/>
        <pt x="156" y="359" on="0"/>
        <pt x="183" y="359" on="1"/>
        <pt x="249" y="359" on="1"/>
        <pt x="249" y="307" on="1"/>
        <pt x="192" y="307" on="1"/>
        <pt x="152" y="307" on="0"/>
        <pt x="104" y="265" on="0"/>
        <pt x="104" y="223" on="1"/>
        <pt x="104" y="185" on="0"/>
        <pt x="136" y="121" on="0"/>
        <pt x="187" y="75" on="0"/>
        <pt x="252" y="48" on="0"/>
        <pt x="285" y="48" on="1"/>
        <pt x="331" y="48" on="0"/>
        <pt x="388" y="95" on="0"/>
        <pt x="388" y="148" on="1"/>
        <pt x="388" y="527" on="1"/>
        <pt x="-20" y="527" on="1"/>
      </contour>
      <contour>
        <pt x="576" y="-222" on="1"/>
        <pt x="546" y="-257" on="1"/>
        <pt x="350" y="-105" on="1"/>
        <pt x="386" y="-60" on="1"/>
      </contour>
    </TTGlyph>
    <TTGlyph name="Hbar" xMin="20" yMin="0" xMax="623" yMax="630">
      <contour>
        <pt x="623" y="540" on="1"/>
        <pt x="623" y="488" on="1"/>
        <pt x="553" y="488" on="1"/>
        <pt x="553" y="0" on="1"/>
        <pt x="481" y="0" on="1"/>
        <pt x="481" y="296" on="1"/>
        <pt x="162" y="296" on="1"/>
        <pt x="162" y="0" on="1"/>
        <pt x="90" y="0" on="1"/>
        <pt x="90" y="488" on="1"/>
        <pt x="20" y="488" on="1"/>
        <pt x="20" y="540" on="1"/>
        <pt x="90" y="540" on="1"/>
        <pt x="90" y="630" on="1"/>
        <pt x="162" y="630" on="1"/>
        <pt x="162" y="540" on="1"/>
        <pt x="481" y="540" on="1"/>
        <pt x="481" y="630" on="1"/>
        <pt x="553" y="630" on="1"/>
        <pt x="553" y="540" on="1"/>
      </contour>
      <contour>
        <pt x="481" y="356" on="1"/>
        <pt x="481" y="488" on="1"/>
        <pt x="162" y="488" on="1"/>
        <pt x="162" y="356" on="1"/>
      </contour>
    </TTGlyph>
    <TTGlyph name="Hcircumflex" xMin="80" yMin="0" xMax="543" yMax="844">
      <contour>
        <pt x="80" y="0" on="1"/>
        <pt x="80" y="630" on="1"/>
        <pt x="152" y="630" on="1"/>
        <pt x="152" y="356" on="1"/>
        <pt x="471" y="356" on="1"/>
        <pt x="471" y="630" on="1"/>
        <pt x="543" y="630" on="1"/>
        <pt x="543" y="0" on="1"/>
        <pt x="471" y="0" on="1"/>
        <pt x="471" y="296" on="1"/>
        <pt x="152" y="296" on="1"/>
        <pt x="152" y="0" on="1"/>
      </contour>
      <contour>
        <pt x="283" y="844" on="1"/>
        <pt x="342" y="844" on="1"/>
        <pt x="467" y="710" on="1"/>
        <pt x="397" y="710" on="1"/>
        <pt x="312" y="801" on="1"/>
        <pt x="227" y="710" on="1"/>
        <pt x="161" y="710" on="1"/>
      </contour>
    </TTGlyph>
    <TTGlyph name="Hsmall" xMin="74" yMin="0" xMax="437" yMax="470">
      <contour>
        <pt x="74" y="0" on="1"/>
        <pt x="74" y="470" on="1"/>
        <pt x="140" y="470" on="1"/>
        <pt x="140" y="274" on="1"/>
        <pt x="370" y="274" on="1"/>
        <pt x="370" y="470" on="1"/>
        <pt x="437" y="470" on="1"/>
        <pt x="437" y="0" on="1"/>
        <pt x="370" y="0" on="1"/>
        <pt x="370" y="219" on="1"/>
        <pt x="140" y="219" on="1"/>
        <pt x="140" y="0" on="1"/>
      </contour>
    </TTGlyph>
    <TTGlyph name="I" xMin="80" yMin="0" xMax="152" yMax="630">
      <contour>
        <pt x="152" y="630" on="1"/>
        <pt x="152" y="0" on="1"/>
        <pt x="80" y="0" on="1"/>
        <pt x="80" y="630" on="1"/>
      </contour>
    </TTGlyph>
    <TTGlyph name="IJ" xMin="80" yMin="-145" xMax="395" yMax="630">
      <contour>
        <pt x="152" y="630" on="1"/>
        <pt x="152" y="0" on="1"/>
        <pt x="80" y="0" on="1"/>
        <pt x="80" y="630" on="1"/>
      </contour>
      <contour>
        <pt x="395" y="630" on="1"/>
        <pt x="395" y="109" on="1"/>
        <pt x="395" y="43" on="0"/>
        <pt x="382" y="-39" on="0"/>
        <pt x="360" y="-70" on="1"/>
        <pt x="346" y="-91" on="0"/>
        <pt x="307" y="-119" on="0"/>
        <pt x="263" y="-137" on="0"/>
        <pt x="215" y="-145" on="0"/>
        <pt x="193" y="-145" on="1"/>
        <pt x="193" y="-89" on="1"/>
        <pt x="224" y="-88" on="0"/>
        <pt x="270" y="-71" on="0"/>
        <pt x="287" y="-55" on="1"/>
        <pt x="309" y="-34" on="0"/>
        <pt x="323" y="30" on="0"/>
        <pt x="323" y="68" on="1"/>
        <pt x="323" y="630" on="1"/>
      </contour>
    </TTGlyph>
    <TTGlyph name="Iacute" xMin="80" yMin="0" xMax="252" yMax="834">
      <contour>
        <pt x="152" y="630" on="1"/>
        <pt x="152" y="0" on="1"/>
        <pt x="80" y="0" on="1"/>
        <pt x="80" y="630" on="1"/>
      </contour>
      <contour>
        <pt x="141" y="710" on="1"/>
        <pt x="84" y="710" on="1"/>
        <pt x="169" y="834" on="1"/>
        <pt x="252" y="834" on="1"/>
      </contour>
    </TTGlyph>
    <TTGlyph name="Ibreve" xMin="-19" yMin="0" xMax="250" yMax="834">
      <contour>
        <pt x="152" y="630" on="1"/>
        <pt x="152" y="0" on="1"/>
        <pt x="80" y="0" on="1"/>
        <pt x="80" y="630" on="1"/>
      </contour>
      <contour>
        <pt x="37" y="834" on="1"/>
        <pt x="39" y="799" on="0"/>
        <pt x="73" y="757" on="0"/>
        <pt x="117" y="757" on="1"/>
        <pt x="154" y="757" on="0"/>
        <pt x="193" y="797" on="0"/>
        <pt x="195" y="834" on="1"/>
        <pt x="250" y="834" on="1"/>
        <pt x="250" y="780" on="0"/>
        <pt x="182" y="710" on="0"/>
        <pt x="117" y="710" on="1"/>
        <pt x="81" y="710" on="0"/>
        <pt x="30" y="731" on="0"/>
        <pt x="-3" y="765" on="0"/>
        <pt x="-19" y="810" on="0"/>
        <pt x="-19" y="834" on="1"/>
      </contour>
    </TTGlyph>
    <TTGlyph name="Icircumflex" xMin="-35" yMin="0" xMax="271" yMax="844">
      <contour>
        <pt x="152" y="630" on="1"/>
        <pt x="152" y="0" on="1"/>
        <pt x="80" y="0" on="1"/>
        <pt x="80" y="630" on="1"/>
      </contour>
      <contour>
        <pt x="87" y="844" on="1"/>
        <pt x="146" y="844" on="1"/>
        <pt x="271" y="710" on="1"/>
        <pt x="201" y="710" on="1"/>
        <pt x="116" y="801" on="1"/>
        <pt x="31" y="710" on="1"/>
        <pt x="-35" y="710" on="1"/>
      </contour>
    </TTGlyph>
    <TTGlyph name="Idieresis" xMin="-14" yMin="0" xMax="244" yMax="810">
      <contour>
        <pt x="152" y="630" on="1"/>
        <pt x="152" y="0" on="1"/>
        <pt x="80" y="0" on="1"/>
        <pt x="80" y="630" on="1"/>
      </contour>
      <contour>
        <pt x="-14" y="763" on="1"/>
        <pt x="-14" y="783" on="0"/>
        <pt x="12" y="810" on="0"/>
        <pt x="31" y="810" on="1"/>
        <pt x="49" y="810" on="0"/>
        <pt x="76" y="783" on="0"/>
        <pt x="76" y="763" on="1"/>
        <pt x="76" y="743" on="0"/>
        <pt x="49" y="716" on="0"/>
        <pt x="31" y="716" on="1"/>
        <pt x="12" y="716" on="0"/>
        <pt x="-14" y="743" on="0"/>
      </contour>
      <contour>
        <pt x="154" y="763" on="1"/>
        <pt x="154" y="783" on="0"/>
        <pt x="180" y="810" on="0"/>
        <pt x="199" y="810" on="1"/>
        <pt x="217" y="810" on="0"/>
        <pt x="244" y="783" on="0"/>
        <pt x="244" y="763" on="1"/>
        <pt x="244" y="743" on="0"/>
        <pt x="217" y="716" on="0"/>
        <pt x="199" y="716" on="1"/>
        <pt x="180" y="716" on="0"/>
        <pt x="154" y="743" on="0"/>
      </contour>
    </TTGlyph>
    <TTGlyph name="Idotaccent" xMin="67" yMin="0" xMax="163" yMax="822">
      <contour>
        <pt x="152" y="630" on="1"/>
        <pt x="152" y="0" on="1"/>
        <pt x="80" y="0" on="1"/>
        <pt x="80" y="630" on="1"/>
      </contour>
      <contour>
        <pt x="67" y="772" on="1"/>
        <pt x="67" y="792" on="0"/>
        <pt x="95" y="822" on="0"/>
        <pt x="115" y="822" on="1"/>
        <pt x="135" y="822" on="0"/>
        <pt x="163" y="792" on="0"/>
        <pt x="163" y="772" on="1"/>
        <pt x="163" y="750" on="0"/>
        <pt x="135" y="722" on="0"/>
        <pt x="115" y="722" on="1"/>
        <pt x="95" y="722" on="0"/>
        <pt x="67" y="750" on="0"/>
      </contour>
    </TTGlyph>
    <TTGlyph name="Igrave" xMin="-21" yMin="0" xMax="152" yMax="834">
      <contour>
        <pt x="152" y="630" on="1"/>
        <pt x="152" y="0" on="1"/>
        <pt x="80" y="0" on="1"/>
        <pt x="80" y="630" on="1"/>
      </contour>
      <contour>
        <pt x="-21" y="834" on="1"/>
        <pt x="62" y="834" on="1"/>
        <pt x="147" y="710" on="1"/>
        <pt x="90" y="710" on="1"/>
      </contour>
    </TTGlyph>
    <TTGlyph name="Imacron" xMin="-5" yMin="0" xMax="240" yMax="772">
      <contour>
        <pt x="152" y="630" on="1"/>
        <pt x="152" y="0" on="1"/>
        <pt x="80" y="0" on="1"/>
        <pt x="80" y="630" on="1"/>
      </contour>
      <contour>
        <pt x="240" y="772" on="1"/>
        <pt x="240" y="720" on="1"/>
        <pt x="-5" y="720" on="1"/>
        <pt x="-5" y="772" on="1"/>
      </contour>
    </TTGlyph>
    <TTGlyph name="Iogonek" xMin="2" yMin="-206" xMax="189" yMax="630">
      <contour>
        <pt x="152" y="0" on="1"/>
        <pt x="109" y="-23" on="0"/>
        <pt x="61" y="-68" on="0"/>
        <pt x="61" y="-100" on="1"/>
        <pt x="61" y="-126" on="0"/>
        <pt x="97" y="-156" on="0"/>
        <pt x="126" y="-156" on="1"/>
        <pt x="142" y="-156" on="0"/>
        <pt x="168" y="-151" on="0"/>
        <pt x="178" y="-147" on="1"/>
        <pt x="189" y="-185" on="1"/>
        <pt x="173" y="-195" on="0"/>
        <pt x="134" y="-206" on="0"/>
        <pt x="111" y="-206" on="1"/>
        <pt x="65" y="-206" on="0"/>
        <pt x="2" y="-155" on="0"/>
        <pt x="2" y="-108" on="1"/>
        <pt x="2" y="-70" on="0"/>
        <pt x="49" y="-15" on="0"/>
        <pt x="80" y="0" on="1"/>
        <pt x="80" y="630" on="1"/>
        <pt x="152" y="630" on="1"/>
      </contour>
    </TTGlyph>
    <TTGlyph name="Iri.gm" xMin="-30" yMin="-3" xMax="575" yMax="577">
      <contour>
        <pt x="-30" y="577" on="1"/>
        <pt x="575" y="577" on="1"/>
        <pt x="575" y="527" on="1"/>
        <pt x="465" y="527" on="1"/>
        <pt x="465" y="291" on="1"/>
        <pt x="311" y="291" on="1"/>
        <pt x="251" y="291" on="0"/>
        <pt x="141" y="236" on="0"/>
        <pt x="108" y="182" on="1"/>
        <pt x="121" y="156" on="0"/>
        <pt x="162" y="108" on="0"/>
        <pt x="217" y="71" on="0"/>
        <pt x="286" y="49" on="0"/>
        <pt x="327" y="49" on="1"/>
        <pt x="380" y="49" on="0"/>
        <pt x="448" y="81" on="0"/>
        <pt x="468" y="96" on="1"/>
        <pt x="498" y="56" on="1"/>
        <pt x="473" y="32" on="0"/>
        <pt x="386" y="-3" on="0"/>
        <pt x="326" y="-3" on="1"/>
        <pt x="231" y="-3" on="0"/>
        <pt x="82" y="90" on="0"/>
        <pt x="43" y="182" on="1"/>
        <pt x="59" y="212" on="0"/>
        <pt x="98" y="258" on="0"/>
        <pt x="139" y="292" on="0"/>
        <pt x="180" y="314" on="0"/>
        <pt x="198" y="320" on="1"/>
        <pt x="145" y="344" on="0"/>
        <pt x="77" y="454" on="0"/>
        <pt x="69" y="527" on="1"/>
        <pt x="-30" y="527" on="1"/>
      </contour>
      <contour>
        <pt x="406" y="342" on="1"/>
        <pt x="406" y="527" on="1"/>
        <pt x="129" y="527" on="1"/>
        <pt x="131" y="495" on="0"/>
        <pt x="155" y="432" on="0"/>
        <pt x="196" y="380" on="0"/>
        <pt x="253" y="345" on="0"/>
        <pt x="289" y="342" on="1"/>
      </contour>
    </TTGlyph>
    <TTGlyph name="Ismall" xMin="74" yMin="0" xMax="142" yMax="470">
      <contour>
        <pt x="142" y="470" on="1"/>
        <pt x="142" y="0" on="1"/>
        <pt x="74" y="0" on="1"/>
        <pt x="74" y="470" on="1"/>
      </contour>
    </TTGlyph>
    <TTGlyph name="Itilde" xMin="-40" yMin="0" xMax="263" yMax="821">
      <contour>
        <pt x="152" y="630" on="1"/>
        <pt x="152" y="0" on="1"/>
        <pt x="80" y="0" on="1"/>
        <pt x="80" y="630" on="1"/>
      </contour>
      <contour>
        <pt x="-40" y="713" on="1"/>
        <pt x="-40" y="757" on="0"/>
        <pt x="1" y="818" on="0"/>
        <pt x="47" y="818" on="1"/>
        <pt x="69" y="818" on="0"/>
        <pt x="101" y="803" on="0"/>
        <pt x="130" y="784" on="0"/>
        <pt x="157" y="769" on="0"/>
        <pt x="174" y="769" on="1"/>
        <pt x="197" y="769" on="0"/>
        <pt x="216" y="800" on="0"/>
        <pt x="218" y="821" on="1"/>
        <pt x="263" y="821" on="1"/>
        <pt x="263" y="801" on="0"/>
        <pt x="253" y="764" on="0"/>
        <pt x="232" y="735" on="0"/>
        <pt x="201" y="717" on="0"/>
        <pt x="180" y="717" on="1"/>
        <pt x="157" y="717" on="0"/>
        <pt x="121" y="732" on="0"/>
        <pt x="90" y="751" on="0"/>
        <pt x="63" y="766" on="0"/>
        <pt x="50" y="766" on="1"/>
        <pt x="27" y="766" on="0"/>
        <pt x="7" y="735" on="0"/>
        <pt x="5" y="713" on="1"/>
      </contour>
    </TTGlyph>
    <TTGlyph name="J" xMin="-15" yMin="-145" xMax="187" yMax="630">
      <contour>
        <pt x="187" y="630" on="1"/>
        <pt x="187" y="109" on="1"/>
        <pt x="187" y="43" on="0"/>
        <pt x="173" y="-39" on="0"/>
        <pt x="151" y="-70" on="1"/>
        <pt x="137" y="-91" on="0"/>
        <pt x="98" y="-119" on="0"/>
        <pt x="54" y="-137" on="0"/>
        <pt x="7" y="-145" on="0"/>
        <pt x="-15" y="-145" on="1"/>
        <pt x="-15" y="-89" on="1"/>
        <pt x="44" y="-88" on="0"/>
        <pt x="78" y="-55" on="1"/>
        <pt x="101" y="-34" on="0"/>
        <pt x="115" y="30" on="0"/>
        <pt x="115" y="68" on="1"/>
        <pt x="115" y="630" on="1"/>
      </contour>
    </TTGlyph>
    <TTGlyph name="Ja.gm" xMin="-20" yMin="0" xMax="605" yMax="577">
      <contour>
        <pt x="-20" y="577" on="1"/>
        <pt x="605" y="577" on="1"/>
        <pt x="605" y="527" on="1"/>
        <pt x="493" y="527" on="1"/>
        <pt x="493" y="0" on="1"/>
        <pt x="433" y="0" on="1"/>
        <pt x="433" y="275" on="1"/>
        <pt x="167" y="275" on="1"/>
        <pt x="167" y="0" on="1"/>
        <pt x="107" y="0" on="1"/>
        <pt x="107" y="274" on="1"/>
        <pt x="81" y="275" on="0"/>
        <pt x="45" y="299" on="0"/>
        <pt x="45" y="325" on="1"/>
        <pt x="45" y="357" on="0"/>
        <pt x="95" y="401" on="0"/>
        <pt x="126" y="401" on="1"/>
        <pt x="141" y="401" on="0"/>
        <pt x="159" y="397" on="0"/>
        <pt x="167" y="392" on="1"/>
        <pt x="167" y="327" on="1"/>
        <pt x="433" y="327" on="1"/>
        <pt x="433" y="527" on="1"/>
        <pt x="-20" y="527" on="1"/>
      </contour>
    </TTGlyph>
    <TTGlyph name="JaVirama.gm" xMin="-20" yMin="-257" xMax="658" yMax="577">
      <contour>
        <pt x="-20" y="577" on="1"/>
        <pt x="605" y="577" on="1"/>
        <pt x="605" y="527" on="1"/>
        <pt x="493" y="527" on="1"/>
        <pt x="493" y="0" on="1"/>
        <pt x="433" y="0" on="1"/>
        <pt x="433" y="275" on="1"/>
        <pt x="167" y="275" on="1"/>
        <pt x="167" y="0" on="1"/>
        <pt x="107" y="0" on="1"/>
        <pt x="107" y="274" on="1"/>
        <pt x="81" y="275" on="0"/>
        <pt x="45" y="299" on="0"/>
        <pt x="45" y="325" on="1"/>
        <pt x="45" y="357" on="0"/>
        <pt x="95" y="401" on="0"/>
        <pt x="126" y="401" on="1"/>
        <pt x="141" y="401" on="0"/>
        <pt x="159" y="397" on="0"/>
        <pt x="167" y="392" on="1"/>
        <pt x="167" y="327" on="1"/>
        <pt x="433" y="327" on="1"/>
        <pt x="433" y="527" on="1"/>
        <pt x="-20" y="527" on="1"/>
      </contour>
      <contour>
        <pt x="658" y="-222" on="1"/>
        <pt x="628" y="-257" on="1"/>
        <pt x="432" y="-105" on="1"/>
        <pt x="468" y="-60" on="1"/>
      </contour>
    </TTGlyph>
    <TTGlyph name="Jcircumflex" xMin="-15" yMin="-145" xMax="308" yMax="844">
      <contour>
        <pt x="187" y="630" on="1"/>
        <pt x="187" y="109" on="1"/>
        <pt x="187" y="43" on="0"/>
        <pt x="173" y="-39" on="0"/>
        <pt x="151" y="-70" on="1"/>
        <pt x="137" y="-91" on="0"/>
        <pt x="98" y="-119" on="0"/>
        <pt x="54" y="-137" on="0"/>
        <pt x="7" y="-145" on="0"/>
        <pt x="-15" y="-145" on="1"/>
        <pt x="-15" y="-89" on="1"/>
        <pt x="44" y="-88" on="0"/>
        <pt x="78" y="-55" on="1"/>
        <pt x="101" y="-34" on="0"/>
        <pt x="115" y="30" on="0"/>
        <pt x="115" y="68" on="1"/>
        <pt x="115" y="630" on="1"/>
      </contour>
      <contour>
        <pt x="124" y="844" on="1"/>
        <pt x="183" y="844" on="1"/>
        <pt x="308" y="710" on="1"/>
        <pt x="238" y="710" on="1"/>
        <pt x="153" y="801" on="1"/>
        <pt x="68" y="710" on="1"/>
        <pt x="2" y="710" on="1"/>
      </contour>
    </TTGlyph>
    <TTGlyph name="Jha.gm" xMin="-40" yMin="-86" xMax="568" yMax="577">
      <contour>
        <pt x="414" y="203" on="1"/>
        <pt x="414" y="254" on="0"/>
        <pt x="324" y="324" on="0"/>
        <pt x="234" y="324" on="1"/>
        <pt x="187" y="324" on="0"/>
        <pt x="98" y="309" on="0"/>
        <pt x="71" y="302" on="1"/>
        <pt x="60" y="352" on="1"/>
        <pt x="78" y="356" on="0"/>
        <pt x="131" y="365" on="0"/>
        <pt x="152" y="368" on="1"/>
        <pt x="122" y="388" on="0"/>
        <pt x="66" y="467" on="0"/>
        <pt x="53" y="527" on="1"/>
        <pt x="-40" y="527" on="1"/>
        <pt x="-40" y="577" on="1"/>
        <pt x="568" y="577" on="1"/>
        <pt x="568" y="527" on="1"/>
        <pt x="480" y="527" on="1"/>
        <pt x="474" y="492" on="0"/>
        <pt x="448" y="435" on="0"/>
        <pt x="413" y="391" on="0"/>
        <pt x="375" y="361" on="0"/>
        <pt x="358" y="352" on="1"/>
        <pt x="409" y="336" on="0"/>
        <pt x="475" y="257" on="0"/>
        <pt x="475" y="200" on="1"/>
        <pt x="475" y="158" on="0"/>
        <pt x="438" y="96" on="0"/>
        <pt x="375" y="54" on="0"/>
        <pt x="292" y="34" on="0"/>
        <pt x="246" y="34" on="1"/>
        <pt x="233" y="34" on="1"/>
        <pt x="291" y="-59" on="1"/>
        <pt x="238" y="-86" on="1"/>
        <pt x="172" y="36" on="1"/>
        <pt x="124" y="44" on="0"/>
        <pt x="64" y="97" on="0"/>
        <pt x="64" y="133" on="1"/>
        <pt x="64" y="159" on="0"/>
        <pt x="101" y="189" on="0"/>
        <pt x="124" y="189" on="1"/>
        <pt x="129" y="189" on="0"/>
        <pt x="138" y="189" on="0"/>
        <pt x="146" y="187" on="1"/>
        <pt x="208" y="88" on="1"/>
        <pt x="217" y="86" on="0"/>
        <pt x="238" y="85" on="0"/>
        <pt x="243" y="85" on="1"/>
        <pt x="279" y="85" on="0"/>
        <pt x="341" y="100" on="0"/>
        <pt x="388" y="130" on="0"/>
        <pt x="414" y="174" on="0"/>
      </contour>
      <contour>
        <pt x="116" y="527" on="1"/>
        <pt x="132" y="460" on="0"/>
        <pt x="209" y="374" on="0"/>
        <pt x="266" y="374" on="1"/>
        <pt x="323" y="374" on="0"/>
        <pt x="403" y="458" on="0"/>
        <pt x="418" y="527" on="1"/>
      </contour>
    </TTGlyph>
    <TTGlyph name="JhaVirama.gm" xMin="-40" yMin="-257" xMax="568" yMax="577">
      <contour>
        <pt x="414" y="203" on="1"/>
        <pt x="414" y="254" on="0"/>
        <pt x="324" y="324" on="0"/>
        <pt x="234" y="324" on="1"/>
        <pt x="187" y="324" on="0"/>
        <pt x="98" y="309" on="0"/>
        <pt x="71" y="302" on="1"/>
        <pt x="60" y="352" on="1"/>
        <pt x="78" y="356" on="0"/>
        <pt x="131" y="365" on="0"/>
        <pt x="152" y="368" on="1"/>
        <pt x="122" y="388" on="0"/>
        <pt x="66" y="467" on="0"/>
        <pt x="53" y="527" on="1"/>
        <pt x="-40" y="527" on="1"/>
        <pt x="-40" y="577" on="1"/>
        <pt x="568" y="577" on="1"/>
        <pt x="568" y="527" on="1"/>
        <pt x="480" y="527" on="1"/>
        <pt x="474" y="492" on="0"/>
        <pt x="448" y="435" on="0"/>
        <pt x="413" y="391" on="0"/>
        <pt x="375" y="361" on="0"/>
        <pt x="358" y="352" on="1"/>
        <pt x="409" y="336" on="0"/>
        <pt x="475" y="257" on="0"/>
        <pt x="475" y="200" on="1"/>
        <pt x="475" y="158" on="0"/>
        <pt x="438" y="96" on="0"/>
        <pt x="375" y="54" on="0"/>
        <pt x="292" y="34" on="0"/>
        <pt x="246" y="34" on="1"/>
        <pt x="233" y="34" on="1"/>
        <pt x="291" y="-59" on="1"/>
        <pt x="238" y="-86" on="1"/>
        <pt x="172" y="36" on="1"/>
        <pt x="124" y="44" on="0"/>
        <pt x="64" y="97" on="0"/>
        <pt x="64" y="133" on="1"/>
        <pt x="64" y="159" on="0"/>
        <pt x="101" y="189" on="0"/>
        <pt x="124" y="189" on="1"/>
        <pt x="129" y="189" on="0"/>
        <pt x="138" y="189" on="0"/>
        <pt x="146" y="187" on="1"/>
        <pt x="208" y="88" on="1"/>
        <pt x="217" y="86" on="0"/>
        <pt x="238" y="85" on="0"/>
        <pt x="243" y="85" on="1"/>
        <pt x="279" y="85" on="0"/>
        <pt x="341" y="100" on="0"/>
        <pt x="388" y="130" on="0"/>
        <pt x="414" y="174" on="0"/>
      </contour>
      <contour>
        <pt x="116" y="527" on="1"/>
        <pt x="132" y="460" on="0"/>
        <pt x="209" y="374" on="0"/>
        <pt x="266" y="374" on="1"/>
        <pt x="323" y="374" on="0"/>
        <pt x="403" y="458" on="0"/>
        <pt x="418" y="527" on="1"/>
      </contour>
      <contour>
        <pt x="568" y="-222" on="1"/>
        <pt x="538" y="-257" on="1"/>
        <pt x="342" y="-105" on="1"/>
        <pt x="378" y="-60" on="1"/>
      </contour>
    </TTGlyph>
    <TTGlyph name="Jsmall" xMin="0" yMin="-152" xMax="160" yMax="470">
      <contour>
        <pt x="160" y="470" on="1"/>
        <pt x="160" y="65" on="1"/>
        <pt x="160" y="13" on="0"/>
        <pt x="149" y="-59" on="0"/>
        <pt x="129" y="-90" on="1"/>
        <pt x="106" y="-126" on="0"/>
        <pt x="35" y="-152" on="0"/>
        <pt x="0" y="-152" on="1"/>
        <pt x="0" y="-97" on="1"/>
        <pt x="20" y="-97" on="0"/>
        <pt x="61" y="-81" on="0"/>
        <pt x="73" y="-60" on="1"/>
        <pt x="85" y="-40" on="0"/>
        <pt x="92" y="19" on="0"/>
        <pt x="92" y="41" on="1"/>
        <pt x="92" y="470" on="1"/>
      </contour>
    </TTGlyph>
    <TTGlyph name="K" xMin="80" yMin="0" xMax="546" yMax="630">
      <contour>
        <pt x="80" y="0" on="1"/>
        <pt x="80" y="630" on="1"/>
        <pt x="152" y="630" on="1"/>
        <pt x="152" y="325" on="1"/>
        <pt x="434" y="630" on="1"/>
        <pt x="524" y="630" on="1"/>
        <pt x="265" y="352" on="1"/>
        <pt x="546" y="0" on="1"/>
        <pt x="455" y="0" on="1"/>
        <pt x="215" y="303" on="1"/>
        <pt x="152" y="235" on="1"/>
        <pt x="152" y="0" on="1"/>
      </contour>
    </TTGlyph>
    <TTGlyph name="Ka.gm" xMin="-30" yMin="0" xMax="597" yMax="577">
      <contour>
        <pt x="-30" y="577" on="1"/>
        <pt x="597" y="577" on="1"/>
        <pt x="597" y="527" on="1"/>
        <pt x="503" y="527" on="1"/>
        <pt x="502" y="492" on="0"/>
        <pt x="491" y="419" on="0"/>
        <pt x="473" y="349" on="0"/>
        <pt x="447" y="284" on="0"/>
        <pt x="431" y="257" on="1"/>
        <pt x="443" y="232" on="0"/>
        <pt x="467" y="170" on="0"/>
        <pt x="487" y="103" on="0"/>
        <pt x="502" y="33" on="0"/>
        <pt x="505" y="0" on="1"/>
        <pt x="445" y="0" on="1"/>
        <pt x="437" y="55" on="0"/>
        <pt x="409" y="162" on="0"/>
        <pt x="394" y="204" on="1"/>
        <pt x="365" y="169" on="0"/>
        <pt x="274" y="116" on="0"/>
        <pt x="210" y="116" on="1"/>
        <pt x="177" y="116" on="0"/>
        <pt x="115" y="134" on="0"/>
        <pt x="67" y="171" on="0"/>
        <pt x="38" y="228" on="0"/>
        <pt x="38" y="266" on="1"/>
        <pt x="38" y="300" on="0"/>
        <pt x="64" y="356" on="0"/>
        <pt x="109" y="395" on="0"/>
        <pt x="171" y="417" on="0"/>
        <pt x="207" y="417" on="1"/>
        <pt x="272" y="417" on="0"/>
        <pt x="367" y="358" on="0"/>
        <pt x="399" y="311" on="1"/>
        <pt x="415" y="349" on="0"/>
        <pt x="441" y="462" on="0"/>
        <pt x="443" y="527" on="1"/>
        <pt x="-30" y="527" on="1"/>
      </contour>
      <contour>
        <pt x="217" y="167" on="1"/>
        <pt x="269" y="167" on="0"/>
        <pt x="351" y="222" on="0"/>
        <pt x="374" y="259" on="1"/>
        <pt x="344" y="313" on="0"/>
        <pt x="258" y="365" on="0"/>
        <pt x="214" y="365" on="1"/>
        <pt x="157" y="365" on="0"/>
        <pt x="99" y="307" on="0"/>
        <pt x="99" y="266" on="1"/>
        <pt x="99" y="218" on="0"/>
        <pt x="163" y="167" on="0"/>
      </contour>
    </TTGlyph>
    <TTGlyph name="KaVirama.gm" xMin="-30" yMin="-257" xMax="671" yMax="577">
      <contour>
        <pt x="-30" y="577" on="1"/>
        <pt x="597" y="577" on="1"/>
        <pt x="597" y="527" on="1"/>
        <pt x="503" y="527" on="1"/>
        <pt x="502" y="492" on="0"/>
        <pt x="491" y="419" on="0"/>
        <pt x="473" y="349" on="0"/>
        <pt x="447" y="284" on="0"/>
        <pt x="431" y="257" on="1"/>
        <pt x="443" y="232" on="0"/>
        <pt x="467" y="170" on="0"/>
        <pt x="487" y="103" on="0"/>
        <pt x="502" y="33" on="0"/>
        <pt x="505" y="0" on="1"/>
        <pt x="445" y="0" on="1"/>
        <pt x="437" y="55" on="0"/>
        <pt x="409" y="162" on="0"/>
        <pt x="394" y="204" on="1"/>
        <pt x="365" y="169" on="0"/>
        <pt x="274" y="116" on="0"/>
        <pt x="210" y="116" on="1"/>
        <pt x="177" y="116" on="0"/>
        <pt x="115" y="134" on="0"/>
        <pt x="67" y="171" on="0"/>
        <pt x="38" y="228" on="0"/>
        <pt x="38" y="266" on="1"/>
        <pt x="38" y="300" on="0"/>
        <pt x="64" y="356" on="0"/>
        <pt x="109" y="395" on="0"/>
        <pt x="171" y="417" on="0"/>
        <pt x="207" y="417" on="1"/>
        <pt x="272" y="417" on="0"/>
        <pt x="367" y="358" on="0"/>
        <pt x="399" y="311" on="1"/>
        <pt x="415" y="349" on="0"/>
        <pt x="441" y="462" on="0"/>
        <pt x="443" y="527" on="1"/>
        <pt x="-30" y="527" on="1"/>
      </contour>
      <contour>
        <pt x="217" y="167" on="1"/>
        <pt x="269" y="167" on="0"/>
        <pt x="351" y="222" on="0"/>
        <pt x="374" y="259" on="1"/>
        <pt x="344" y="313" on="0"/>
        <pt x="258" y="365" on="0"/>
        <pt x="214" y="365" on="1"/>
        <pt x="157" y="365" on="0"/>
        <pt x="99" y="307" on="0"/>
        <pt x="99" y="266" on="1"/>
        <pt x="99" y="218" on="0"/>
        <pt x="163" y="167" on="0"/>
      </contour>
      <contour>
        <pt x="671" y="-222" on="1"/>
        <pt x="641" y="-257" on="1"/>
        <pt x="445" y="-105" on="1"/>
        <pt x="481" y="-60" on="1"/>
      </contour>
    </TTGlyph>
    <TTGlyph name="KaViramaRa.gm" xMin="-30" yMin="-192" xMax="647" yMax="577">
      <contour>
        <pt x="484" y="-130" on="1"/>
        <pt x="470" y="-135" on="0"/>
        <pt x="438" y="-141" on="0"/>
        <pt x="418" y="-141" on="1"/>
        <pt x="374" y="-141" on="0"/>
        <pt x="332" y="-109" on="0"/>
        <pt x="332" y="-85" on="1"/>
        <pt x="332" y="-69" on="0"/>
        <pt x="345" y="-46" on="0"/>
        <pt x="354" y="-41" on="1"/>
        <pt x="444" y="-68" on="1"/>
        <pt x="444" y="-20" on="1"/>
        <pt x="444" y="55" on="0"/>
        <pt x="420" y="168" on="0"/>
        <pt x="399" y="210" on="1"/>
        <pt x="370" y="173" on="0"/>
        <pt x="277" y="116" on="0"/>
        <pt x="210" y="116" on="1"/>
        <pt x="177" y="116" on="0"/>
        <pt x="115" y="134" on="0"/>
        <pt x="67" y="171" on="0"/>
        <pt x="38" y="228" on="0"/>
        <pt x="38" y="266" on="1"/>
        <pt x="38" y="300" on="0"/>
        <pt x="64" y="356" on="0"/>
        <pt x="109" y="395" on="0"/>
        <pt x="171" y="417" on="0"/>
        <pt x="207" y="417" on="1"/>
        <pt x="272" y="417" on="0"/>
        <pt x="367" y="358" on="0"/>
        <pt x="399" y="311" on="1"/>
        <pt x="415" y="349" on="0"/>
        <pt x="441" y="462" on="0"/>
        <pt x="443" y="527" on="1"/>
        <pt x="-30" y="527" on="1"/>
        <pt x="-30" y="577" on="1"/>
        <pt x="597" y="577" on="1"/>
        <pt x="597" y="527" on="1"/>
        <pt x="503" y="527" on="1"/>
        <pt x="501" y="457" on="0"/>
        <pt x="464" y="315" on="0"/>
        <pt x="434" y="261" on="1"/>
        <pt x="449" y="236" on="0"/>
        <pt x="475" y="179" on="0"/>
        <pt x="493" y="111" on="0"/>
        <pt x="504" y="29" on="0"/>
        <pt x="504" y="-20" on="1"/>
        <pt x="504" y="-92" on="1"/>
        <pt x="647" y="-138" on="1"/>
        <pt x="626" y="-192" on="1"/>
      </contour>
      <contour>
        <pt x="217" y="167" on="1"/>
        <pt x="269" y="167" on="0"/>
        <pt x="351" y="222" on="0"/>
        <pt x="374" y="259" on="1"/>
        <pt x="344" y="313" on="0"/>
        <pt x="258" y="365" on="0"/>
        <pt x="214" y="365" on="1"/>
        <pt x="157" y="365" on="0"/>
        <pt x="99" y="307" on="0"/>
        <pt x="99" y="266" on="1"/>
        <pt x="99" y="218" on="0"/>
        <pt x="163" y="167" on="0"/>
      </contour>
    </TTGlyph>
    <TTGlyph name="Kcommaaccent" xMin="80" yMin="-310" xMax="546" yMax="630">
      <contour>
        <pt x="80" y="0" on="1"/>
        <pt x="80" y="630" on="1"/>
        <pt x="152" y="630" on="1"/>
        <pt x="152" y="325" on="1"/>
        <pt x="434" y="630" on="1"/>
        <pt x="524" y="630" on="1"/>
        <pt x="265" y="352" on="1"/>
        <pt x="546" y="0" on="1"/>
        <pt x="455" y="0" on="1"/>
        <pt x="215" y="303" on="1"/>
        <pt x="152" y="235" on="1"/>
        <pt x="152" y="0" on="1"/>
      </contour>
      <contour>
        <pt x="287" y="-184" on="1"/>
        <pt x="271" y="-181" on="0"/>
        <pt x="242" y="-155" on="0"/>
        <pt x="242" y="-131" on="1"/>
        <pt x="242" y="-110" on="0"/>
        <pt x="269" y="-81" on="0"/>
        <pt x="292" y="-81" on="1"/>
        <pt x="302" y="-81" on="0"/>
        <pt x="323" y="-89" on="0"/>
        <pt x="340" y="-107" on="0"/>
        <pt x="351" y="-136" on="0"/>
        <pt x="351" y="-158" on="1"/>
        <pt x="351" y="-181" on="0"/>
        <pt x="335" y="-225" on="0"/>
        <pt x="307" y="-265" on="0"/>
        <pt x="269" y="-299" on="0"/>
        <pt x="248" y="-310" on="1"/>
        <pt x="225" y="-279" on="1"/>
        <pt x="254" y="-263" on="0"/>
        <pt x="295" y="-212" on="0"/>
        <pt x="299" y="-187" on="1"/>
      </contour>
    </TTGlyph>
    <TTGlyph name="Kha.gm" xMin="-30" yMin="0" xMax="592" yMax="577">
      <contour>
        <pt x="129" y="577" on="1"/>
        <pt x="171" y="502" on="0"/>
        <pt x="171" y="428" on="1"/>
        <pt x="171" y="405" on="0"/>
        <pt x="168" y="384" on="1"/>
        <pt x="419" y="384" on="1"/>
        <pt x="419" y="577" on="1"/>
        <pt x="592" y="577" on="1"/>
        <pt x="592" y="527" on="1"/>
        <pt x="479" y="527" on="1"/>
        <pt x="479" y="0" on="1"/>
        <pt x="419" y="0" on="1"/>
        <pt x="419" y="156" on="1"/>
        <pt x="394" y="136" on="0"/>
        <pt x="319" y="110" on="0"/>
        <pt x="266" y="110" on="1"/>
        <pt x="189" y="110" on="0"/>
        <pt x="74" y="181" on="0"/>
        <pt x="47" y="235" on="1"/>
        <pt x="73" y="277" on="0"/>
        <pt x="110" y="372" on="0"/>
        <pt x="110" y="428" on="1"/>
        <pt x="110" y="481" on="0"/>
        <pt x="91" y="527" on="1"/>
        <pt x="-30" y="527" on="1"/>
        <pt x="-30" y="577" on="1"/>
      </contour>
      <contour>
        <pt x="268" y="162" on="1"/>
        <pt x="322" y="162" on="0"/>
        <pt x="397" y="198" on="0"/>
        <pt x="419" y="226" on="1"/>
        <pt x="419" y="335" on="1"/>
        <pt x="159" y="335" on="1"/>
        <pt x="151" y="307" on="0"/>
        <pt x="129" y="259" on="0"/>
        <pt x="116" y="236" on="1"/>
        <pt x="136" y="204" on="0"/>
        <pt x="220" y="162" on="0"/>
      </contour>
    </TTGlyph>
    <TTGlyph name="KhaVirama.gm" xMin="-30" yMin="-257" xMax="650" yMax="577">
      <contour>
        <pt x="129" y="577" on="1"/>
        <pt x="171" y="502" on="0"/>
        <pt x="171" y="428" on="1"/>
        <pt x="171" y="405" on="0"/>
        <pt x="168" y="384" on="1"/>
        <pt x="419" y="384" on="1"/>
        <pt x="419" y="577" on="1"/>
        <pt x="592" y="577" on="1"/>
        <pt x="592" y="527" on="1"/>
        <pt x="479" y="527" on="1"/>
        <pt x="479" y="0" on="1"/>
        <pt x="419" y="0" on="1"/>
        <pt x="419" y="156" on="1"/>
        <pt x="394" y="136" on="0"/>
        <pt x="319" y="110" on="0"/>
        <pt x="266" y="110" on="1"/>
        <pt x="189" y="110" on="0"/>
        <pt x="74" y="181" on="0"/>
        <pt x="47" y="235" on="1"/>
        <pt x="73" y="277" on="0"/>
        <pt x="110" y="372" on="0"/>
        <pt x="110" y="428" on="1"/>
        <pt x="110" y="481" on="0"/>
        <pt x="91" y="527" on="1"/>
        <pt x="-30" y="527" on="1"/>
        <pt x="-30" y="577" on="1"/>
      </contour>
      <contour>
        <pt x="268" y="162" on="1"/>
        <pt x="322" y="162" on="0"/>
        <pt x="397" y="198" on="0"/>
        <pt x="419" y="226" on="1"/>
        <pt x="419" y="335" on="1"/>
        <pt x="159" y="335" on="1"/>
        <pt x="151" y="307" on="0"/>
        <pt x="129" y="259" on="0"/>
        <pt x="116" y="236" on="1"/>
        <pt x="136" y="204" on="0"/>
        <pt x="220" y="162" on="0"/>
      </contour>
      <contour>
        <pt x="650" y="-222" on="1"/>
        <pt x="620" y="-257" on="1"/>
        <pt x="424" y="-105" on="1"/>
        <pt x="460" y="-60" on="1"/>
      </contour>
    </TTGlyph>
    <TTGlyph name="Khanda.gm" xMin="84" yMin="-39" xMax="711" yMax="696">
      <contour>
        <pt x="361" y="-1" on="1"/>
        <pt x="361" y="18" on="0"/>
        <pt x="376" y="30" on="1"/>
        <pt x="376" y="82" on="1"/>
        <pt x="360" y="74" on="0"/>
        <pt x="332" y="59" on="0"/>
        <pt x="321" y="54" on="1"/>
        <pt x="323" y="52" on="0"/>
        <pt x="327" y="42" on="0"/>
        <pt x="327" y="38" on="1"/>
        <pt x="327" y="24" on="0"/>
        <pt x="308" y="7" on="0"/>
        <pt x="293" y="7" on="1"/>
        <pt x="278" y="7" on="0"/>
        <pt x="259" y="26" on="0"/>
        <pt x="259" y="40" on="1"/>
        <pt x="259" y="62" on="0"/>
        <pt x="284" y="75" on="1"/>
        <pt x="301" y="83" on="0"/>
        <pt x="337" y="101" on="0"/>
        <pt x="358" y="110" on="1"/>
        <pt x="336" y="121" on="0"/>
        <pt x="289" y="148" on="0"/>
        <pt x="269" y="160" on="1"/>
        <pt x="220" y="96" on="1"/>
        <pt x="196" y="129" on="0"/>
        <pt x="148" y="195" on="0"/>
        <pt x="109" y="266" on="0"/>
        <pt x="84" y="344" on="0"/>
        <pt x="84" y="389" on="1"/>
        <pt x="84" y="445" on="0"/>
        <pt x="140" y="542" on="0"/>
        <pt x="199" y="579" on="1"/>
        <pt x="188" y="565" on="0"/>
        <pt x="170" y="538" on="0"/>
        <pt x="157" y="505" on="0"/>
        <pt x="149" y="463" on="0"/>
        <pt x="149" y="435" on="1"/>
        <pt x="149" y="396" on="0"/>
        <pt x="172" y="321" on="0"/>
        <pt x="225" y="249" on="0"/>
        <pt x="313" y="178" on="0"/>
        <pt x="378" y="143" on="1"/>
        <pt x="378" y="194" on="1"/>
        <pt x="348" y="210" on="0"/>
        <pt x="327" y="226" on="1"/>
        <pt x="334" y="242" on="0"/>
        <pt x="338" y="259" on="1"/>
        <pt x="312" y="266" on="0"/>
        <pt x="266" y="296" on="0"/>
        <pt x="231" y="339" on="0"/>
        <pt x="210" y="396" on="0"/>
        <pt x="210" y="431" on="1"/>
        <pt x="210" y="494" on="0"/>
        <pt x="283" y="575" on="0"/>
        <pt x="334" y="592" on="1"/>
        <pt x="331" y="601" on="0"/>
        <pt x="324" y="616" on="0"/>
        <pt x="321" y="623" on="1"/>
        <pt x="347" y="636" on="0"/>
        <pt x="387" y="679" on="0"/>
        <pt x="399" y="696" on="1"/>
        <pt x="411" y="679" on="0"/>
        <pt x="451" y="636" on="0"/>
        <pt x="477" y="623" on="1"/>
        <pt x="473" y="616" on="0"/>
        <pt x="467" y="600" on="0"/>
        <pt x="463" y="591" on="1"/>
        <pt x="515" y="574" on="0"/>
        <pt x="585" y="491" on="0"/>
        <pt x="585" y="431" on="1"/>
        <pt x="585" y="397" on="0"/>
        <pt x="564" y="341" on="0"/>
        <pt x="530" y="299" on="0"/>
        <pt x="483" y="269" on="0"/>
        <pt x="458" y="261" on="1"/>
        <pt x="461" y="251" on="0"/>
        <pt x="468" y="234" on="0"/>
        <pt x="471" y="226" on="1"/>
        <pt x="460" y="218" on="0"/>
        <pt x="429" y="199" on="0"/>
        <pt x="415" y="191" on="1"/>
        <pt x="415" y="142" on="1"/>
        <pt x="481" y="177" on="0"/>
        <pt x="570" y="248" on="0"/>
        <pt x="623" y="321" on="0"/>
        <pt x="646" y="396" on="0"/>
        <pt x="646" y="435" on="1"/>
        <pt x="646" y="463" on="0"/>
        <pt x="638" y="505" on="0"/>
        <pt x="625" y="538" on="0"/>
        <pt x="606" y="565" on="0"/>
        <pt x="596" y="579" on="1"/>
        <pt x="655" y="542" on="0"/>
        <pt x="711" y="445" on="0"/>
        <pt x="711" y="389" on="1"/>
        <pt x="711" y="344" on="0"/>
        <pt x="686" y="266" on="0"/>
        <pt x="647" y="195" on="0"/>
        <pt x="599" y="129" on="0"/>
        <pt x="575" y="96" on="1"/>
        <pt x="526" y="160" on="1"/>
        <pt x="506" y="148" on="0"/>
        <pt x="458" y="121" on="0"/>
        <pt x="436" y="110" on="1"/>
        <pt x="509" y="75" on="1"/>
        <pt x="534" y="62" on="0"/>
        <pt x="534" y="40" on="1"/>
        <pt x="534" y="26" on="0"/>
        <pt x="515" y="7" on="0"/>
        <pt x="500" y="7" on="1"/>
        <pt x="485" y="7" on="0"/>
        <pt x="466" y="24" on="0"/>
        <pt x="466" y="38" on="1"/>
        <pt x="466" y="42" on="0"/>
        <pt x="469" y="52" on="0"/>
        <pt x="471" y="54" on="1"/>
        <pt x="460" y="59" on="0"/>
        <pt x="432" y="74" on="0"/>
        <pt x="416" y="82" on="1"/>
        <pt x="416" y="33" on="1"/>
        <pt x="436" y="21" on="0"/>
        <pt x="436" y="-1" on="1"/>
        <pt x="436" y="-17" on="0"/>
        <pt x="414" y="-39" on="0"/>
        <pt x="399" y="-39" on="1"/>
        <pt x="383" y="-39" on="0"/>
        <pt x="361" y="-17" on="0"/>
      </contour>
      <contour>
        <pt x="274" y="431" on="1"/>
        <pt x="274" y="385" on="0"/>
        <pt x="316" y="325" on="0"/>
        <pt x="351" y="312" on="1"/>
        <pt x="356" y="339" on="0"/>
        <pt x="363" y="400" on="0"/>
        <pt x="363" y="432" on="1"/>
        <pt x="363" y="456" on="0"/>
        <pt x="355" y="513" on="0"/>
        <pt x="348" y="540" on="1"/>
        <pt x="316" y="528" on="0"/>
        <pt x="274" y="472" on="0"/>
      </contour>
      <contour>
        <pt x="522" y="431" on="1"/>
        <pt x="522" y="470" on="0"/>
        <pt x="480" y="526" on="0"/>
        <pt x="448" y="539" on="1"/>
        <pt x="442" y="512" on="0"/>
        <pt x="435" y="456" on="0"/>
        <pt x="435" y="432" on="1"/>
        <pt x="435" y="400" on="0"/>
        <pt x="441" y="339" on="0"/>
        <pt x="446" y="312" on="1"/>
        <pt x="481" y="324" on="0"/>
        <pt x="522" y="384" on="0"/>
      </contour>
    </TTGlyph>
    <TTGlyph name="Khha.gm" xMin="-30" yMin="-18" xMax="592" yMax="577">
      <contour>
        <pt x="129" y="577" on="1"/>
        <pt x="171" y="502" on="0"/>
        <pt x="171" y="428" on="1"/>
        <pt x="171" y="405" on="0"/>
        <pt x="168" y="384" on="1"/>
        <pt x="419" y="384" on="1"/>
        <pt x="419" y="577" on="1"/>
        <pt x="592" y="577" on="1"/>
        <pt x="592" y="527" on="1"/>
        <pt x="479" y="527" on="1"/>
        <pt x="479" y="0" on="1"/>
        <pt x="419" y="0" on="1"/>
        <pt x="419" y="156" on="1"/>
        <pt x="394" y="136" on="0"/>
        <pt x="319" y="110" on="0"/>
        <pt x="266" y="110" on="1"/>
        <pt x="189" y="110" on="0"/>
        <pt x="74" y="181" on="0"/>
        <pt x="47" y="235" on="1"/>
        <pt x="73" y="277" on="0"/>
        <pt x="110" y="372" on="0"/>
        <pt x="110" y="428" on="1"/>
        <pt x="110" y="481" on="0"/>
        <pt x="91" y="527" on="1"/>
        <pt x="-30" y="527" on="1"/>
        <pt x="-30" y="577" on="1"/>
      </contour>
      <contour>
        <pt x="268" y="162" on="1"/>
        <pt x="322" y="162" on="0"/>
        <pt x="397" y="198" on="0"/>
        <pt x="419" y="226" on="1"/>
        <pt x="419" y="335" on="1"/>
        <pt x="159" y="335" on="1"/>
        <pt x="151" y="307" on="0"/>
        <pt x="129" y="259" on="0"/>
        <pt x="116" y="236" on="1"/>
        <pt x="136" y="204" on="0"/>
        <pt x="220" y="162" on="0"/>
      </contour>
      <contour>
        <pt x="44" y="26" on="1"/>
        <pt x="44" y="44" on="0"/>
        <pt x="70" y="72" on="0"/>
        <pt x="90" y="72" on="1"/>
        <pt x="110" y="72" on="0"/>
        <pt x="137" y="44" on="0"/>
        <pt x="137" y="26" on="1"/>
        <pt x="137" y="8" on="0"/>
        <pt x="110" y="-18" on="0"/>
        <pt x="90" y="-18" on="1"/>
        <pt x="70" y="-18" on="0"/>
        <pt x="44" y="8" on="0"/>
      </contour>
    </TTGlyph>
    <TTGlyph name="KhhaVirama.gm" xMin="-30" yMin="-257" xMax="650" yMax="577">
      <contour>
        <pt x="129" y="577" on="1"/>
        <pt x="171" y="502" on="0"/>
        <pt x="171" y="428" on="1"/>
        <pt x="171" y="405" on="0"/>
        <pt x="168" y="384" on="1"/>
        <pt x="419" y="384" on="1"/>
        <pt x="419" y="577" on="1"/>
        <pt x="592" y="577" on="1"/>
        <pt x="592" y="527" on="1"/>
        <pt x="479" y="527" on="1"/>
        <pt x="479" y="0" on="1"/>
        <pt x="419" y="0" on="1"/>
        <pt x="419" y="156" on="1"/>
        <pt x="394" y="136" on="0"/>
        <pt x="319" y="110" on="0"/>
        <pt x="266" y="110" on="1"/>
        <pt x="189" y="110" on="0"/>
        <pt x="74" y="181" on="0"/>
        <pt x="47" y="235" on="1"/>
        <pt x="73" y="277" on="0"/>
        <pt x="110" y="372" on="0"/>
        <pt x="110" y="428" on="1"/>
        <pt x="110" y="481" on="0"/>
        <pt x="91" y="527" on="1"/>
        <pt x="-30" y="527" on="1"/>
        <pt x="-30" y="577" on="1"/>
      </contour>
      <contour>
        <pt x="268" y="162" on="1"/>
        <pt x="322" y="162" on="0"/>
        <pt x="397" y="198" on="0"/>
        <pt x="419" y="226" on="1"/>
        <pt x="419" y="335" on="1"/>
        <pt x="159" y="335" on="1"/>
        <pt x="151" y="307" on="0"/>
        <pt x="129" y="259" on="0"/>
        <pt x="116" y="236" on="1"/>
        <pt x="136" y="204" on="0"/>
        <pt x="220" y="162" on="0"/>
      </contour>
      <contour>
        <pt x="34" y="26" on="1"/>
        <pt x="34" y="44" on="0"/>
        <pt x="60" y="72" on="0"/>
        <pt x="80" y="72" on="1"/>
        <pt x="100" y="72" on="0"/>
        <pt x="127" y="44" on="0"/>
        <pt x="127" y="26" on="1"/>
        <pt x="127" y="8" on="0"/>
        <pt x="100" y="-18" on="0"/>
        <pt x="80" y="-18" on="1"/>
        <pt x="60" y="-18" on="0"/>
        <pt x="34" y="8" on="0"/>
      </contour>
      <contour>
        <pt x="650" y="-222" on="1"/>
        <pt x="620" y="-257" on="1"/>
        <pt x="424" y="-105" on="1"/>
        <pt x="460" y="-60" on="1"/>
      </contour>
    </TTGlyph>
    <TTGlyph name="Ksmall" xMin="74" yMin="0" xMax="436" yMax="470">
      <contour>
        <pt x="74" y="0" on="1"/>
        <pt x="74" y="470" on="1"/>
        <pt x="142" y="470" on="1"/>
        <pt x="142" y="251" on="1"/>
        <pt x="335" y="470" on="1"/>
        <pt x="419" y="470" on="1"/>
        <pt x="231" y="264" on="1"/>
        <pt x="436" y="0" on="1"/>
        <pt x="350" y="0" on="1"/>
        <pt x="186" y="219" on="1"/>
        <pt x="142" y="170" on="1"/>
        <pt x="142" y="0" on="1"/>
      </contour>
    </TTGlyph>
    <TTGlyph name="L" xMin="80" yMin="0" xMax="431" yMax="630">
      <contour>
        <pt x="80" y="630" on="1"/>
        <pt x="152" y="630" on="1"/>
        <pt x="152" y="60" on="1"/>
        <pt x="431" y="60" on="1"/>
        <pt x="431" y="0" on="1"/>
        <pt x="80" y="0" on="1"/>
      </contour>
    </TTGlyph>
    <TTGlyph name="La.gm" xMin="-20" yMin="-7" xMax="665" yMax="577">
      <contour>
        <pt x="-20" y="577" on="1"/>
        <pt x="665" y="577" on="1"/>
        <pt x="665" y="527" on="1"/>
        <pt x="503" y="527" on="1"/>
        <pt x="498" y="486" on="0"/>
        <pt x="475" y="401" on="0"/>
        <pt x="463" y="374" on="1"/>
        <pt x="528" y="344" on="0"/>
        <pt x="600" y="249" on="0"/>
        <pt x="600" y="181" on="1"/>
        <pt x="600" y="139" on="0"/>
        <pt x="569" y="73" on="0"/>
        <pt x="518" y="26" on="0"/>
        <pt x="454" y="-2" on="0"/>
        <pt x="421" y="-7" on="1"/>
        <pt x="407" y="41" on="1"/>
        <pt x="469" y="55" on="0"/>
        <pt x="539" y="131" on="0"/>
        <pt x="539" y="188" on="1"/>
        <pt x="539" y="235" on="0"/>
        <pt x="483" y="303" on="0"/>
        <pt x="438" y="326" on="1"/>
        <pt x="416" y="288" on="0"/>
        <pt x="352" y="218" on="0"/>
        <pt x="322" y="199" on="1"/>
        <pt x="284" y="222" on="0"/>
        <pt x="224" y="289" on="0"/>
        <pt x="201" y="326" on="1"/>
        <pt x="161" y="305" on="0"/>
        <pt x="106" y="236" on="0"/>
        <pt x="106" y="188" on="1"/>
        <pt x="106" y="127" on="0"/>
        <pt x="176" y="55" on="0"/>
        <pt x="239" y="41" on="1"/>
        <pt x="224" y="-7" on="1"/>
        <pt x="189" y="-3" on="0"/>
        <pt x="124" y="24" on="0"/>
        <pt x="75" y="72" on="0"/>
        <pt x="45" y="139" on="0"/>
        <pt x="45" y="183" on="1"/>
        <pt x="45" y="248" on="0"/>
        <pt x="115" y="343" on="0"/>
        <pt x="176" y="372" on="1"/>
        <pt x="162" y="403" on="0"/>
        <pt x="140" y="483" on="0"/>
        <pt x="135" y="527" on="1"/>
        <pt x="-20" y="527" on="1"/>
      </contour>
      <contour>
        <pt x="322" y="261" on="1"/>
        <pt x="346" y="283" on="0"/>
        <pt x="387" y="343" on="0"/>
        <pt x="418" y="412" on="0"/>
        <pt x="438" y="488" on="0"/>
        <pt x="441" y="527" on="1"/>
        <pt x="195" y="527" on="1"/>
        <pt x="205" y="444" on="0"/>
        <pt x="269" y="308" on="0"/>
      </contour>
    </TTGlyph>
    <TTGlyph name="LaVirama.gm" xMin="-20" yMin="-257" xMax="671" yMax="577">
      <contour>
        <pt x="-20" y="577" on="1"/>
        <pt x="665" y="577" on="1"/>
        <pt x="665" y="527" on="1"/>
        <pt x="503" y="527" on="1"/>
        <pt x="498" y="486" on="0"/>
        <pt x="475" y="401" on="0"/>
        <pt x="463" y="374" on="1"/>
        <pt x="528" y="344" on="0"/>
        <pt x="600" y="249" on="0"/>
        <pt x="600" y="181" on="1"/>
        <pt x="600" y="139" on="0"/>
        <pt x="569" y="73" on="0"/>
        <pt x="518" y="26" on="0"/>
        <pt x="454" y="-2" on="0"/>
        <pt x="421" y="-7" on="1"/>
        <pt x="407" y="41" on="1"/>
        <pt x="469" y="55" on="0"/>
        <pt x="539" y="131" on="0"/>
        <pt x="539" y="188" on="1"/>
        <pt x="539" y="235" on="0"/>
        <pt x="483" y="303" on="0"/>
        <pt x="438" y="326" on="1"/>
        <pt x="416" y="288" on="0"/>
        <pt x="352" y="218" on="0"/>
        <pt x="322" y="199" on="1"/>
        <pt x="284" y="222" on="0"/>
        <pt x="224" y="289" on="0"/>
        <pt x="201" y="326" on="1"/>
        <pt x="161" y="305" on="0"/>
        <pt x="106" y="236" on="0"/>
        <pt x="106" y="188" on="1"/>
        <pt x="106" y="127" on="0"/>
        <pt x="176" y="55" on="0"/>
        <pt x="239" y="41" on="1"/>
        <pt x="224" y="-7" on="1"/>
        <pt x="189" y="-3" on="0"/>
        <pt x="124" y="24" on="0"/>
        <pt x="75" y="72" on="0"/>
        <pt x="45" y="139" on="0"/>
        <pt x="45" y="183" on="1"/>
        <pt x="45" y="248" on="0"/>
        <pt x="115" y="343" on="0"/>
        <pt x="176" y="372" on="1"/>
        <pt x="162" y="403" on="0"/>
        <pt x="140" y="483" on="0"/>
        <pt x="135" y="527" on="1"/>
        <pt x="-20" y="527" on="1"/>
      </contour>
      <contour>
        <pt x="322" y="261" on="1"/>
        <pt x="346" y="283" on="0"/>
        <pt x="387" y="343" on="0"/>
        <pt x="418" y="412" on="0"/>
        <pt x="438" y="488" on="0"/>
        <pt x="441" y="527" on="1"/>
        <pt x="195" y="527" on="1"/>
        <pt x="205" y="444" on="0"/>
        <pt x="269" y="308" on="0"/>
      </contour>
      <contour>
        <pt x="671" y="-222" on="1"/>
        <pt x="641" y="-257" on="1"/>
        <pt x="445" y="-105" on="1"/>
        <pt x="481" y="-60" on="1"/>
      </contour>
    </TTGlyph>
    <TTGlyph name="Lacute" xMin="80" yMin="0" xMax="431" yMax="834">
      <contour>
        <pt x="80" y="630" on="1"/>
        <pt x="152" y="630" on="1"/>
        <pt x="152" y="60" on="1"/>
        <pt x="431" y="60" on="1"/>
        <pt x="431" y="0" on="1"/>
        <pt x="80" y="0" on="1"/>
      </contour>
      <contour>
        <pt x="142" y="710" on="1"/>
        <pt x="85" y="710" on="1"/>
        <pt x="170" y="834" on="1"/>
        <pt x="253" y="834" on="1"/>
      </contour>
    </TTGlyph>
    <TTGlyph name="Lcaron" xMin="80" yMin="0" xMax="431" yMax="727">
      <contour>
        <pt x="80" y="630" on="1"/>
        <pt x="152" y="630" on="1"/>
        <pt x="152" y="60" on="1"/>
        <pt x="431" y="60" on="1"/>
        <pt x="431" y="0" on="1"/>
        <pt x="80" y="0" on="1"/>
      </contour>
      <contour>
        <pt x="315" y="624" on="1"/>
        <pt x="298" y="627" on="0"/>
        <pt x="270" y="653" on="0"/>
        <pt x="270" y="677" on="1"/>
        <pt x="270" y="698" on="0"/>
        <pt x="297" y="727" on="0"/>
        <pt x="320" y="727" on="1"/>
        <pt x="330" y="727" on="0"/>
        <pt x="351" y="719" on="0"/>
        <pt x="368" y="701" on="0"/>
        <pt x="379" y="672" on="0"/>
        <pt x="379" y="650" on="1"/>
        <pt x="379" y="627" on="0"/>
        <pt x="363" y="583" on="0"/>
        <pt x="335" y="543" on="0"/>
        <pt x="297" y="509" on="0"/>
        <pt x="275" y="498" on="1"/>
        <pt x="253" y="529" on="1"/>
        <pt x="282" y="545" on="0"/>
        <pt x="323" y="596" on="0"/>
        <pt x="326" y="621" on="1"/>
      </contour>
    </TTGlyph>
    <TTGlyph name="Lcommaaccent" xMin="80" yMin="-311" xMax="431" yMax="630">
      <contour>
        <pt x="80" y="630" on="1"/>
        <pt x="152" y="630" on="1"/>
        <pt x="152" y="60" on="1"/>
        <pt x="431" y="60" on="1"/>
        <pt x="431" y="0" on="1"/>
        <pt x="80" y="0" on="1"/>
      </contour>
      <contour>
        <pt x="253" y="-185" on="1"/>
        <pt x="237" y="-182" on="0"/>
        <pt x="208" y="-156" on="0"/>
        <pt x="208" y="-132" on="1"/>
        <pt x="208" y="-111" on="0"/>
        <pt x="235" y="-82" on="0"/>
        <pt x="258" y="-82" on="1"/>
        <pt x="268" y="-82" on="0"/>
        <pt x="289" y="-90" on="0"/>
        <pt x="306" y="-108" on="0"/>
        <pt x="317" y="-137" on="0"/>
        <pt x="317" y="-159" on="1"/>
        <pt x="317" y="-182" on="0"/>
        <pt x="301" y="-226" on="0"/>
        <pt x="273" y="-266" on="0"/>
        <pt x="235" y="-300" on="0"/>
        <pt x="214" y="-311" on="1"/>
        <pt x="191" y="-280" on="1"/>
        <pt x="220" y="-264" on="0"/>
        <pt x="261" y="-213" on="0"/>
        <pt x="265" y="-188" on="1"/>
      </contour>
    </TTGlyph>
    <TTGlyph name="Ldot" xMin="80" yMin="0" xMax="431" yMax="630">
      <contour>
        <pt x="80" y="630" on="1"/>
        <pt x="152" y="630" on="1"/>
        <pt x="152" y="60" on="1"/>
        <pt x="431" y="60" on="1"/>
        <pt x="431" y="0" on="1"/>
        <pt x="80" y="0" on="1"/>
      </contour>
      <contour>
        <pt x="259" y="331" on="1"/>
        <pt x="259" y="354" on="0"/>
        <pt x="287" y="384" on="0"/>
        <pt x="309" y="384" on="1"/>
        <pt x="329" y="384" on="0"/>
        <pt x="357" y="354" on="0"/>
        <pt x="357" y="331" on="1"/>
        <pt x="357" y="308" on="0"/>
        <pt x="329" y="278" on="0"/>
        <pt x="309" y="278" on="1"/>
        <pt x="287" y="278" on="0"/>
        <pt x="259" y="308" on="0"/>
      </contour>
    </TTGlyph>
    <TTGlyph name="Lla.gm" xMin="-32" yMin="-57" xMax="666" yMax="577">
      <contour>
        <pt x="-32" y="577" on="1"/>
        <pt x="666" y="577" on="1"/>
        <pt x="666" y="527" on="1"/>
        <pt x="504" y="527" on="1"/>
        <pt x="499" y="486" on="0"/>
        <pt x="476" y="401" on="0"/>
        <pt x="464" y="374" on="1"/>
        <pt x="529" y="344" on="0"/>
        <pt x="601" y="249" on="0"/>
        <pt x="601" y="181" on="1"/>
        <pt x="601" y="139" on="0"/>
        <pt x="570" y="73" on="0"/>
        <pt x="519" y="26" on="0"/>
        <pt x="455" y="-2" on="0"/>
        <pt x="422" y="-7" on="1"/>
        <pt x="408" y="41" on="1"/>
        <pt x="470" y="55" on="0"/>
        <pt x="540" y="131" on="0"/>
        <pt x="540" y="188" on="1"/>
        <pt x="540" y="235" on="0"/>
        <pt x="484" y="303" on="0"/>
        <pt x="439" y="326" on="1"/>
        <pt x="417" y="288" on="0"/>
        <pt x="353" y="218" on="0"/>
        <pt x="323" y="199" on="1"/>
        <pt x="285" y="222" on="0"/>
        <pt x="225" y="289" on="0"/>
        <pt x="202" y="326" on="1"/>
        <pt x="162" y="305" on="0"/>
        <pt x="107" y="236" on="0"/>
        <pt x="107" y="188" on="1"/>
        <pt x="107" y="127" on="0"/>
        <pt x="177" y="55" on="0"/>
        <pt x="240" y="41" on="1"/>
        <pt x="225" y="-7" on="1"/>
        <pt x="190" y="-3" on="0"/>
        <pt x="125" y="24" on="0"/>
        <pt x="76" y="72" on="0"/>
        <pt x="46" y="139" on="0"/>
        <pt x="46" y="183" on="1"/>
        <pt x="46" y="248" on="0"/>
        <pt x="116" y="343" on="0"/>
        <pt x="177" y="372" on="1"/>
        <pt x="163" y="403" on="0"/>
        <pt x="141" y="483" on="0"/>
        <pt x="136" y="527" on="1"/>
        <pt x="-32" y="527" on="1"/>
      </contour>
      <contour>
        <pt x="323" y="261" on="1"/>
        <pt x="347" y="283" on="0"/>
        <pt x="388" y="343" on="0"/>
        <pt x="419" y="412" on="0"/>
        <pt x="439" y="488" on="0"/>
        <pt x="442" y="527" on="1"/>
        <pt x="196" y="527" on="1"/>
        <pt x="206" y="444" on="0"/>
        <pt x="270" y="308" on="0"/>
      </contour>
      <contour>
        <pt x="-27" y="-13" on="1"/>
        <pt x="-27" y="5" on="0"/>
        <pt x="-1" y="33" on="0"/>
        <pt x="19" y="33" on="1"/>
        <pt x="39" y="33" on="0"/>
        <pt x="66" y="5" on="0"/>
        <pt x="66" y="-13" on="1"/>
        <pt x="66" y="-31" on="0"/>
        <pt x="39" y="-57" on="0"/>
        <pt x="19" y="-57" on="1"/>
        <pt x="-1" y="-57" on="0"/>
        <pt x="-27" y="-31" on="0"/>
      </contour>
    </TTGlyph>
</ttFont>
